<svg width="196" height="177" viewBox="0 0 196 177" fill="none" xmlns="http://www.w3.org/2000/svg">
<path d="M68.1188 9.00839C69.3693 10.2291 70.6864 11.3775 72.1503 12.3364C79.6161 17.2275 101.821 28.9801 136.946 24.0097C180.834 17.7995 174.561 61.6689 168.287 73.3783C162.013 85.0876 138.857 106.597 136.946 117.337C135.036 128.077 143.5 157.36 123.897 148.637C104.294 139.915 92.9101 119.355 67.2332 121.847C41.5563 124.339 23.3623 113.104 34.6551 92.8658C45.9479 72.6279 59.4917 59.5436 42.0546 37.1142C25.1014 15.3074 53.4378 -5.32118 68.1188 9.00839Z" fill="#EBECF4"/>
<path d="M134.679 49.8418L135.535 75.8496" stroke="#000927" stroke-width="5" stroke-linecap="round"/>
<path d="M142.022 25.8633L134.033 47.1479" stroke="#000927" stroke-width="5" stroke-linecap="round"/>
<path d="M97.951 142.392C145.651 142.392 184.32 140.15 184.32 137.383C184.32 134.617 145.651 132.374 97.951 132.374C50.2506 132.374 11.5818 134.617 11.5818 137.383C11.5818 140.15 50.2506 142.392 97.951 142.392Z" fill="#D8D9DB"/>
<path d="M77.3583 80.044H96.397C96.9145 80.044 97.4269 80.1453 97.905 80.3422C98.383 80.539 98.8173 80.8276 99.183 81.1913C99.5488 81.555 99.8387 81.9867 100.036 82.4618C100.234 82.9369 100.335 83.446 100.335 83.9601V90.5976C100.335 91.1117 100.234 91.6208 100.036 92.0959C99.8387 92.571 99.5488 93.0028 99.183 93.3665C98.8173 93.7302 98.383 94.0187 97.905 94.2155C97.4269 94.4124 96.9145 94.5137 96.397 94.5137H83.7461L77.9552 100.664L81.0734 94.5137H77.3405C76.2949 94.5137 75.2922 94.1011 74.5529 93.3667C73.8135 92.6323 73.3982 91.6362 73.3982 90.5976V83.9601C73.3982 83.4443 73.5007 82.9337 73.7 82.4574C73.8992 81.9811 74.1912 81.5486 74.5592 81.1847C74.9271 80.8208 75.3638 80.5327 75.8442 80.337C76.3245 80.1412 76.8391 80.0417 77.3583 80.044Z" fill="#2955CF"/>
<path opacity="0.7" d="M77.3583 80.044H96.397C96.9145 80.044 97.4269 80.1453 97.905 80.3422C98.383 80.539 98.8173 80.8276 99.183 81.1913C99.5488 81.555 99.8387 81.9867 100.036 82.4618C100.234 82.9369 100.335 83.446 100.335 83.9601V90.5976C100.335 91.1117 100.234 91.6208 100.036 92.0959C99.8387 92.571 99.5488 93.0028 99.183 93.3665C98.8173 93.7302 98.383 94.0187 97.905 94.2155C97.4269 94.4124 96.9145 94.5137 96.397 94.5137H83.7461L77.9552 100.664L81.0734 94.5137H77.3405C76.2949 94.5137 75.2922 94.1011 74.5529 93.3667C73.8135 92.6323 73.3982 91.6362 73.3982 90.5976V83.9601C73.3982 83.4443 73.5007 82.9337 73.7 82.4574C73.8992 81.9811 74.1912 81.5486 74.5592 81.1847C74.9271 80.8208 75.3638 80.5327 75.8442 80.337C76.3245 80.1412 76.8391 80.0417 77.3583 80.044Z" fill="white"/>
<path d="M78.2892 86.9115C78.2723 86.4648 78.3902 86.0233 78.6277 85.6435C78.8652 85.2638 79.2115 84.9632 79.6221 84.7803C80.0327 84.5974 80.489 84.5406 80.9324 84.6171C81.3758 84.6935 81.7861 84.8999 82.1106 85.2096C82.4352 85.5193 82.6592 85.9182 82.7539 86.3552C82.8486 86.7923 82.8098 87.2474 82.6423 87.6624C82.4748 88.0773 82.1864 88.4331 81.8139 88.684C81.4415 88.935 81.0021 89.0697 80.5521 89.0709C80.2586 89.0854 79.9652 89.0402 79.69 88.9379C79.4147 88.8357 79.1634 88.6786 78.9515 88.4764C78.7396 88.2741 78.5715 88.031 78.4576 87.7619C78.3437 87.4928 78.2864 87.2034 78.2892 86.9115ZM82.1958 86.9115C82.1994 86.5857 82.1052 86.2663 81.9254 85.9938C81.7456 85.7213 81.4882 85.5081 81.186 85.3814C80.8838 85.2547 80.5505 85.2202 80.2285 85.2822C79.9065 85.3443 79.6104 85.5001 79.3779 85.7299C79.1453 85.9596 78.9868 86.2529 78.9226 86.5724C78.8584 86.892 78.8914 87.2232 79.0173 87.5241C79.1432 87.8249 79.3564 88.0818 79.6297 88.2619C79.903 88.442 80.2241 88.5372 80.5521 88.5355C80.769 88.5422 80.985 88.5048 81.1869 88.4257C81.3888 88.3466 81.5723 88.2273 81.7262 88.0753C81.8801 87.9233 82.0011 87.7417 82.0819 87.5415C82.1626 87.3414 82.2014 87.127 82.1958 86.9115Z" fill="#2955CF"/>
<path d="M83.3497 87.4248C83.3409 87.0944 83.4313 86.7688 83.6095 86.4897C83.7877 86.2105 84.0455 85.9904 84.3502 85.8574C84.6548 85.7244 84.9924 85.6846 85.3199 85.743C85.6475 85.8014 85.9501 85.9554 86.1891 86.1853C86.4282 86.4152 86.5929 86.7107 86.6622 87.034C86.7315 87.3573 86.7023 87.6938 86.5783 88.0005C86.4544 88.3073 86.2412 88.5704 85.9661 88.7563C85.6909 88.9422 85.3663 89.0425 85.0335 89.0444C84.814 89.0553 84.5946 89.0214 84.3889 88.9445C84.1831 88.8677 83.9955 88.7497 83.8376 88.5978C83.6797 88.446 83.5549 88.2635 83.471 88.0617C83.387 87.8599 83.3458 87.6431 83.3497 87.4248ZM86.1071 87.4248C86.1166 87.2775 86.0956 87.1298 86.0454 86.9909C85.9952 86.852 85.9168 86.7248 85.8152 86.6171C85.7135 86.5094 85.5907 86.4236 85.4544 86.365C85.318 86.3063 85.171 86.276 85.0224 86.276C84.8738 86.276 84.7268 86.3063 84.5904 86.365C84.4541 86.4236 84.3313 86.5094 84.2296 86.6171C84.128 86.7248 84.0496 86.852 83.9994 86.9909C83.9492 87.1298 83.9282 87.2775 83.9377 87.4248C83.9282 87.5721 83.9492 87.7198 83.9994 87.8587C84.0496 87.9977 84.128 88.1249 84.2296 88.2325C84.3313 88.3402 84.4541 88.426 84.5904 88.4847C84.7268 88.5434 84.8738 88.5736 85.0224 88.5736C85.171 88.5736 85.318 88.5434 85.4544 88.4847C85.5907 88.426 85.7135 88.3402 85.8152 88.2325C85.9168 88.1249 85.9952 87.9977 86.0454 87.8587C86.0956 87.7198 86.1166 87.5721 86.1071 87.4248Z" fill="#2955CF"/>
<path d="M90.8244 87.4246C90.8364 87.6409 90.8028 87.8572 90.7256 88.0598C90.6484 88.2623 90.5295 88.4466 90.3764 88.6008C90.2232 88.755 90.0394 88.8757 89.8365 88.9551C89.6337 89.0345 89.4164 89.0709 89.1985 89.0619C88.9833 89.0685 88.7695 89.0246 88.5745 88.9339C88.3795 88.8432 88.2087 88.7082 88.076 88.5397V90.1947H87.4924V85.8272H88.0493V86.3361C88.1828 86.1607 88.357 86.02 88.5571 85.926C88.7573 85.8319 88.9773 85.7874 89.1985 85.7962C89.4156 85.7874 89.6321 85.8235 89.8343 85.9024C90.0365 85.9813 90.2199 86.1011 90.3729 86.2543C90.5259 86.4076 90.645 86.5907 90.7228 86.7922C90.8005 86.9937 90.8352 87.2091 90.8244 87.4246ZM90.2364 87.4246C90.226 87.2147 90.1538 87.0125 90.0289 86.8429C89.904 86.6732 89.7318 86.5437 89.5336 86.4703C89.3353 86.3968 89.1198 86.3827 88.9136 86.4296C88.7073 86.4766 88.5195 86.5825 88.3732 86.7344C88.2269 86.8862 88.1287 87.0773 88.0906 87.284C88.0524 87.4908 88.0761 87.704 88.1587 87.8975C88.2413 88.091 88.3792 88.2562 88.5553 88.3727C88.7314 88.4892 88.938 88.5519 89.1495 88.553C89.2981 88.5577 89.4461 88.5314 89.5839 88.4758C89.7216 88.4202 89.8461 88.3365 89.9494 88.2302C90.0526 88.1239 90.1323 87.9973 90.1832 87.8586C90.2342 87.7198 90.2554 87.572 90.2454 87.4246H90.2364Z" fill="#2955CF"/>
<path d="M91.2341 88.6862L91.4747 88.2437C91.8128 88.4575 92.2053 88.5711 92.6061 88.5711C93.1451 88.5711 93.3679 88.4118 93.3679 88.1286C93.3679 87.4117 91.3366 88.0357 91.3366 86.7613C91.3366 86.1904 91.8533 85.8011 92.673 85.8011C93.0825 85.7948 93.4865 85.8955 93.8445 86.0931L93.595 86.5356C93.3176 86.3634 92.9955 86.2758 92.6685 86.2834C92.1562 86.2834 91.9068 86.4692 91.9068 86.7259C91.9068 87.4781 93.947 86.8631 93.947 88.1065C93.947 88.6817 93.4124 89.0534 92.5571 89.0534C92.0888 89.0675 91.6273 88.9394 91.2341 88.6862Z" fill="#2955CF"/>
<path d="M94.5483 88.6731C94.5483 88.6214 94.5588 88.5702 94.5791 88.5226C94.5994 88.4751 94.6291 88.432 94.6665 88.3961C94.7039 88.3602 94.7483 88.3321 94.7968 88.3135C94.8454 88.295 94.8972 88.2864 94.9492 88.2881C95.0005 88.2869 95.0514 88.2961 95.099 88.315C95.1466 88.3339 95.1898 88.3622 95.226 88.3982C95.2622 88.4342 95.2907 88.4771 95.3098 88.5244C95.3288 88.5716 95.338 88.6222 95.3368 88.6731C95.3374 88.724 95.3278 88.7746 95.3086 88.8218C95.2894 88.869 95.2609 88.912 95.2249 88.9482C95.1888 88.9844 95.1459 89.0132 95.0986 89.0328C95.0513 89.0524 95.0005 89.0625 94.9492 89.0625C94.897 89.0637 94.8451 89.0545 94.7965 89.0355C94.7479 89.0164 94.7036 88.9879 94.6663 88.9516C94.6289 88.9154 94.5993 88.872 94.579 88.8242C94.5588 88.7764 94.5483 88.725 94.5483 88.6731ZM94.6018 84.8057H95.2789L95.1631 87.6908H94.7176L94.6018 84.8057Z" fill="#2955CF"/>
<path d="M180.806 24.3423C180.806 25.7848 172.863 27.0238 161.486 27.5681L160.573 27.6123L159.344 27.661C157.638 27.7274 155.865 27.7761 154.038 27.8159H153.219H152.773C151.37 27.838 149.936 27.8469 148.479 27.8469C145.842 27.8469 143.281 27.8115 140.826 27.7495L139.044 27.692C134.568 27.546 130.505 27.2938 127.084 26.9663C120.371 26.3203 116.135 25.3777 116.135 24.3113C116.135 22.7227 125.757 21.3864 138.991 20.9439L140.029 20.9085C140.953 20.8819 141.889 20.8598 142.84 20.8421C143.985 20.82 145.152 20.8067 146.332 20.7979H148.484C151.816 20.7979 155.032 20.851 158.056 20.9572L159.491 21.0058L161.357 21.0855L161.843 21.112L163.086 21.174C173.567 21.7846 180.806 22.9661 180.806 24.3423Z" fill="#353533"/>
<path opacity="0.4" d="M180.806 24.3419C180.806 25.7844 172.863 27.0234 161.486 27.5677L160.573 27.6119L159.344 27.6606C157.638 27.727 155.865 27.7757 154.038 27.8155H153.219H152.773C151.37 27.8376 149.936 27.8465 148.479 27.8465C145.842 27.8465 143.281 27.8111 140.826 27.7491L139.044 27.6916C134.568 27.5456 130.505 27.2934 127.084 26.9659C120.371 26.3199 116.135 25.3773 116.135 24.3109C116.135 23.8418 116.977 23.3905 118.505 22.9834C121.327 23.6402 124.195 24.084 127.084 24.3109C130.505 24.6383 134.568 24.8906 139.044 25.0366L140.826 25.0941C143.281 25.1561 145.842 25.1915 148.479 25.1915C149.936 25.1915 151.37 25.1915 152.773 25.1605H153.219H154.038C155.865 25.1207 157.638 25.072 159.344 25.0056L160.573 24.9569L161.486 24.9127C169.162 24.5454 175.269 23.864 178.436 23.0144C179.942 23.4259 180.806 23.8684 180.806 24.3419Z" fill="white"/>
<path d="M141.677 137.281H145.798L132.398 32.0986H128.278L141.677 137.281Z" fill="#353533"/>
<path opacity="0.4" d="M141.677 137.281H145.798L132.398 32.0986H128.278L141.677 137.281Z" fill="white"/>
<path d="M133.062 47.6887H146.163C146.326 47.6799 146.483 47.6254 146.617 47.5314C146.75 47.4374 146.853 47.3079 146.916 47.1577L147.749 45.3877H131.476L132.309 47.1577C132.371 47.3079 132.475 47.4374 132.608 47.5314C132.741 47.6254 132.899 47.6799 133.062 47.6887Z" fill="#353533"/>
<path opacity="0.4" d="M133.062 47.6887H146.163C146.326 47.6799 146.483 47.6254 146.617 47.5314C146.75 47.4374 146.853 47.3079 146.916 47.1577L147.749 45.3877H131.476L132.309 47.1577C132.371 47.3079 132.475 47.4374 132.608 47.5314C132.741 47.6254 132.899 47.6799 133.062 47.6887Z" fill="white"/>
<path d="M131.694 46.2373H147.526C147.996 46.2373 148.376 45.8589 148.376 45.3921V45.2019C148.376 44.7351 147.996 44.3567 147.526 44.3567H131.694C131.224 44.3567 130.843 44.7351 130.843 45.2019V45.3921C130.843 45.8589 131.224 46.2373 131.694 46.2373Z" fill="#353533"/>
<path opacity="0.1" d="M131.694 46.2373H147.526C147.996 46.2373 148.376 45.8589 148.376 45.3921V45.2019C148.376 44.7351 147.996 44.3567 147.526 44.3567H131.694C131.224 44.3567 130.843 44.7351 130.843 45.2019V45.3921C130.843 45.8589 131.224 46.2373 131.694 46.2373Z" fill="white"/>
<path d="M135.453 62.7247H148.55C148.714 62.7167 148.872 62.6619 149.005 62.5669C149.139 62.472 149.242 62.3409 149.303 62.1893L150.136 60.4414H133.868L134.696 62.1893C134.758 62.3412 134.861 62.4725 134.996 62.5674C135.13 62.6623 135.289 62.7169 135.453 62.7247Z" fill="#353533"/>
<path opacity="0.4" d="M135.453 62.7247H148.55C148.714 62.7167 148.872 62.6619 149.005 62.5669C149.139 62.472 149.242 62.3409 149.303 62.1893L150.136 60.4414H133.868L134.696 62.1893C134.758 62.3412 134.861 62.4725 134.996 62.5674C135.13 62.6623 135.289 62.7169 135.453 62.7247Z" fill="white"/>
<path d="M134.087 61.2734H149.918C150.388 61.2734 150.769 60.895 150.769 60.4283V60.238C150.769 59.7712 150.388 59.3928 149.918 59.3928H134.087C133.617 59.3928 133.236 59.7712 133.236 60.238V60.4283C133.236 60.895 133.617 61.2734 134.087 61.2734Z" fill="#353533"/>
<path opacity="0.1" d="M134.087 61.2734H149.918C150.388 61.2734 150.769 60.895 150.769 60.4283V60.238C150.769 59.7712 150.388 59.3928 149.918 59.3928H134.087C133.617 59.3928 133.236 59.7712 133.236 60.238V60.4283C133.236 60.895 133.617 61.2734 134.087 61.2734Z" fill="white"/>
<path d="M137.842 82.6233H150.96C151.124 82.6164 151.283 82.5627 151.418 82.4685C151.552 82.3743 151.656 82.2437 151.718 82.0923L152.546 80.3223H136.26L137.093 82.0923C137.154 82.2427 137.256 82.3727 137.389 82.4669C137.522 82.561 137.679 82.6153 137.842 82.6233Z" fill="#353533"/>
<path opacity="0.4" d="M137.842 82.6233H150.96C151.124 82.6164 151.283 82.5627 151.418 82.4685C151.552 82.3743 151.656 82.2437 151.718 82.0923L152.546 80.3223H136.26L137.093 82.0923C137.154 82.2427 137.256 82.3727 137.389 82.4669C137.522 82.561 137.679 82.6153 137.842 82.6233Z" fill="white"/>
<path d="M136.474 81.1768H152.305C152.775 81.1768 153.156 80.7984 153.156 80.3316V80.1413C153.156 79.6745 152.775 79.2961 152.305 79.2961H136.474C136.004 79.2961 135.623 79.6745 135.623 80.1413V80.3316C135.623 80.7984 136.004 81.1768 136.474 81.1768Z" fill="#353533"/>
<path opacity="0.1" d="M136.474 81.1768H152.305C152.775 81.1768 153.156 80.7984 153.156 80.3316V80.1413C153.156 79.6745 152.775 79.2961 152.305 79.2961H136.474C136.004 79.2961 135.623 79.6745 135.623 80.1413V80.3316C135.623 80.7984 136.004 81.1768 136.474 81.1768Z" fill="white"/>
<path d="M140.229 102.528H153.33C153.494 102.52 153.651 102.466 153.785 102.372C153.918 102.278 154.022 102.147 154.083 101.997L154.916 100.227H138.644L139.477 101.997C139.538 102.147 139.641 102.278 139.775 102.372C139.908 102.466 140.066 102.52 140.229 102.528Z" fill="#353533"/>
<path opacity="0.4" d="M140.229 102.528H153.33C153.494 102.52 153.651 102.466 153.785 102.372C153.918 102.278 154.022 102.147 154.083 101.997L154.916 100.227H138.644L139.477 101.997C139.538 102.147 139.641 102.278 139.775 102.372C139.908 102.466 140.066 102.52 140.229 102.528Z" fill="white"/>
<path d="M138.861 101.08H154.693C155.163 101.08 155.543 100.702 155.543 100.235V100.045C155.543 99.5779 155.163 99.1995 154.693 99.1995H138.861C138.391 99.1995 138.01 99.5779 138.01 100.045V100.235C138.01 100.702 138.391 101.08 138.861 101.08Z" fill="#353533"/>
<path opacity="0.1" d="M138.861 101.08H154.693C155.163 101.08 155.543 100.702 155.543 100.235V100.045C155.543 99.5779 155.163 99.1995 154.693 99.1995H138.861C138.391 99.1995 138.01 99.5779 138.01 100.045V100.235C138.01 100.702 138.391 101.08 138.861 101.08Z" fill="white"/>
<path d="M142.621 122.431H155.717C155.881 122.424 156.039 122.37 156.173 122.276C156.306 122.181 156.409 122.051 156.47 121.9L157.303 120.13H141.031L141.864 121.9C141.925 122.051 142.029 122.182 142.164 122.276C142.298 122.37 142.457 122.424 142.621 122.431Z" fill="#353533"/>
<path opacity="0.4" d="M142.621 122.431H155.717C155.881 122.424 156.039 122.37 156.173 122.276C156.306 122.181 156.409 122.051 156.47 121.9L157.303 120.13H141.031L141.864 121.9C141.925 122.051 142.029 122.182 142.164 122.276C142.298 122.37 142.457 122.424 142.621 122.431Z" fill="white"/>
<path d="M141.25 120.984H157.081C157.551 120.984 157.932 120.606 157.932 120.139V119.949C157.932 119.482 157.551 119.104 157.081 119.104H141.25C140.78 119.104 140.399 119.482 140.399 119.949V120.139C140.399 120.606 140.78 120.984 141.25 120.984Z" fill="#353533"/>
<path opacity="0.1" d="M141.25 120.984H157.081C157.551 120.984 157.932 120.606 157.932 120.139V119.949C157.932 119.482 157.551 119.104 157.081 119.104H141.25C140.78 119.104 140.399 119.482 140.399 119.949V120.139C140.399 120.606 140.78 120.984 141.25 120.984Z" fill="white"/>
<path d="M157.584 137.281H161.704L148.305 32.0986H144.185L157.584 137.281Z" fill="#353533"/>
<path opacity="0.7" d="M157.584 137.281H161.704L148.305 32.0986H144.185L157.584 137.281Z" fill="white"/>
<path d="M114.326 137.281H110.206L123.6 32.0986H127.721L114.326 137.281Z" fill="#353533"/>
<path opacity="0.4" d="M114.326 137.281H110.206L123.6 32.0986H127.721L114.326 137.281Z" fill="white"/>
<path d="M138.844 47.6887H125.747C125.583 47.6808 125.425 47.6266 125.291 47.5326C125.157 47.4385 125.053 47.3085 124.99 47.1577L124.162 45.3877H140.43L139.597 47.1577C139.535 47.3085 139.432 47.4387 139.299 47.5328C139.165 47.6269 139.007 47.681 138.844 47.6887Z" fill="#353533"/>
<path opacity="0.5" d="M138.844 47.6887H125.747C125.583 47.6808 125.425 47.6266 125.291 47.5326C125.157 47.4385 125.053 47.3085 124.99 47.1577L124.162 45.3877H140.43L139.597 47.1577C139.535 47.3085 139.432 47.4387 139.299 47.5328C139.165 47.6269 139.007 47.681 138.844 47.6887Z" fill="white"/>
<path d="M140.212 44.3604H124.38C123.91 44.3604 123.529 44.7387 123.529 45.2055V45.3958C123.529 45.8626 123.91 46.241 124.38 46.241H140.212C140.681 46.241 141.062 45.8626 141.062 45.3958V45.2055C141.062 44.7387 140.681 44.3604 140.212 44.3604Z" fill="#353533"/>
<path d="M136.456 62.7247H123.342C123.178 62.7161 123.02 62.6611 122.887 62.5663C122.754 62.4714 122.65 62.3406 122.589 62.1893L121.756 60.4414H138.042L137.209 62.1893C137.148 62.3406 137.045 62.4714 136.912 62.5663C136.778 62.6611 136.62 62.7161 136.456 62.7247Z" fill="#353533"/>
<path opacity="0.5" d="M136.456 62.7247H123.342C123.178 62.7161 123.02 62.6611 122.887 62.5663C122.754 62.4714 122.65 62.3406 122.589 62.1893L121.756 60.4414H138.042L137.209 62.1893C137.148 62.3406 137.045 62.4714 136.912 62.5663C136.778 62.6611 136.62 62.7161 136.456 62.7247Z" fill="white"/>
<path d="M137.824 59.3926H121.993C121.523 59.3926 121.142 59.771 121.142 60.2377V60.428C121.142 60.8948 121.523 61.2732 121.993 61.2732H137.824C138.294 61.2732 138.675 60.8948 138.675 60.428V60.2377C138.675 59.771 138.294 59.3926 137.824 59.3926Z" fill="#353533"/>
<path opacity="0.2" d="M137.824 59.3926H121.993C121.523 59.3926 121.142 59.771 121.142 60.2377V60.428C121.142 60.8948 121.523 61.2732 121.993 61.2732H137.824C138.294 61.2732 138.675 60.8948 138.675 60.428V60.2377C138.675 59.771 138.294 59.3926 137.824 59.3926Z" fill="white"/>
<path d="M134.064 82.6233H120.968C120.804 82.6161 120.646 82.5622 120.512 82.468C120.379 82.3738 120.276 82.2434 120.215 82.0923L119.382 80.3223H135.65L134.821 82.0923C134.76 82.2437 134.656 82.3743 134.521 82.4685C134.387 82.5627 134.228 82.6164 134.064 82.6233Z" fill="#353533"/>
<path opacity="0.5" d="M134.064 82.6233H120.968C120.804 82.6161 120.646 82.5622 120.512 82.468C120.379 82.3738 120.276 82.2434 120.215 82.0923L119.382 80.3223H135.65L134.821 82.0923C134.76 82.2437 134.656 82.3743 134.521 82.4685C134.387 82.5627 134.228 82.6164 134.064 82.6233Z" fill="white"/>
<path d="M135.432 79.2959H119.6C119.13 79.2959 118.75 79.6743 118.75 80.1411V80.3313C118.75 80.7981 119.13 81.1765 119.6 81.1765H135.432C135.902 81.1765 136.283 80.7981 136.283 80.3313V80.1411C136.283 79.6743 135.902 79.2959 135.432 79.2959Z" fill="#353533"/>
<path opacity="0.2" d="M135.432 79.2959H119.6C119.13 79.2959 118.75 79.6743 118.75 80.1411V80.3313C118.75 80.7981 119.13 81.1765 119.6 81.1765H135.432C135.902 81.1765 136.283 80.7981 136.283 80.3313V80.1411C136.283 79.6743 135.902 79.2959 135.432 79.2959Z" fill="white"/>
<path d="M131.677 102.528H118.58C118.416 102.52 118.258 102.466 118.124 102.372C117.989 102.278 117.885 102.148 117.823 101.997L116.995 100.227H133.263L132.43 101.997C132.369 102.148 132.266 102.278 132.132 102.372C131.998 102.467 131.84 102.52 131.677 102.528Z" fill="#353533"/>
<path opacity="0.5" d="M131.677 102.528H118.58C118.416 102.52 118.258 102.466 118.124 102.372C117.989 102.278 117.885 102.148 117.823 101.997L116.995 100.227H133.263L132.43 101.997C132.369 102.148 132.266 102.278 132.132 102.372C131.998 102.467 131.84 102.52 131.677 102.528Z" fill="white"/>
<path d="M133.044 99.1992H117.213C116.743 99.1992 116.362 99.5776 116.362 100.044V100.235C116.362 100.701 116.743 101.08 117.213 101.08H133.044C133.514 101.08 133.895 100.701 133.895 100.235V100.044C133.895 99.5776 133.514 99.1992 133.044 99.1992Z" fill="#353533"/>
<path opacity="0.2" d="M133.044 99.1992H117.213C116.743 99.1992 116.362 99.5776 116.362 100.044V100.235C116.362 100.701 116.743 101.08 117.213 101.08H133.044C133.514 101.08 133.895 100.701 133.895 100.235V100.044C133.895 99.5776 133.514 99.1992 133.044 99.1992Z" fill="white"/>
<path d="M129.289 122.431H116.188C116.024 122.423 115.867 122.369 115.733 122.275C115.6 122.181 115.496 122.051 115.435 121.9L114.602 120.13H130.875L130.042 121.9C129.981 122.051 129.877 122.181 129.744 122.276C129.61 122.37 129.452 122.424 129.289 122.431Z" fill="#353533"/>
<path opacity="0.5" d="M129.289 122.431H116.188C116.024 122.423 115.867 122.369 115.733 122.275C115.6 122.181 115.496 122.051 115.435 121.9L114.602 120.13H130.875L130.042 121.9C129.981 122.051 129.877 122.181 129.744 122.276C129.61 122.37 129.452 122.424 129.289 122.431Z" fill="white"/>
<path d="M130.657 119.104H114.825C114.356 119.104 113.975 119.482 113.975 119.949V120.139C113.975 120.606 114.356 120.984 114.825 120.984H130.657C131.127 120.984 131.508 120.606 131.508 120.139V119.949C131.508 119.482 131.127 119.104 130.657 119.104Z" fill="#353533"/>
<path opacity="0.2" d="M130.657 119.104H114.825C114.356 119.104 113.975 119.482 113.975 119.949V120.139C113.975 120.606 114.356 120.984 114.825 120.984H130.657C131.127 120.984 131.508 120.606 131.508 120.139V119.949C131.508 119.482 131.127 119.104 130.657 119.104Z" fill="white"/>
<path d="M130.228 137.281H126.108L139.507 32.0986H143.628L130.228 137.281Z" fill="#353533"/>
<path opacity="0.7" d="M130.228 137.281H126.108L139.507 32.0986H143.628L130.228 137.281Z" fill="white"/>
<path d="M148.964 32.634H122.852C122.689 32.6253 122.531 32.5707 122.398 32.4767C122.265 32.3828 122.161 32.2532 122.099 32.103L121.266 30.333H150.55L149.722 32.103C149.657 32.252 149.552 32.3804 149.418 32.474C149.285 32.5677 149.128 32.623 148.964 32.634Z" fill="#353533"/>
<path opacity="0.5" d="M148.964 32.634H122.852C122.689 32.6253 122.531 32.5707 122.398 32.4767C122.265 32.3828 122.161 32.2532 122.099 32.103L121.266 30.333H150.55L149.722 32.103C149.657 32.252 149.552 32.3804 149.418 32.474C149.285 32.5677 149.128 32.623 148.964 32.634Z" fill="white"/>
<path d="M150.332 29.3066H121.489C121.019 29.3066 120.638 29.685 120.638 30.1518V30.3421C120.638 30.8089 121.019 31.1873 121.489 31.1873H150.332C150.802 31.1873 151.183 30.8089 151.183 30.3421V30.1518C151.183 29.685 150.802 29.3066 150.332 29.3066Z" fill="#353533"/>
<path opacity="0.2" d="M150.332 29.3066H121.489C121.019 29.3066 120.638 29.685 120.638 30.1518V30.3421C120.638 30.8089 121.019 31.1873 121.489 31.1873H150.332C150.802 31.1873 151.183 30.8089 151.183 30.3421V30.1518C151.183 29.685 150.802 29.3066 150.332 29.3066Z" fill="white"/>
<path opacity="0.2" d="M140.212 44.3604H124.38C123.91 44.3604 123.529 44.7387 123.529 45.2055V45.3958C123.529 45.8626 123.91 46.241 124.38 46.241H140.212C140.681 46.241 141.062 45.8626 141.062 45.3958V45.2055C141.062 44.7387 140.681 44.3604 140.212 44.3604Z" fill="white"/>
<path d="M99.4391 137.206C99.4413 137.231 99.4413 137.256 99.4391 137.281C99.4411 137.293 99.4411 137.305 99.4391 137.317C99.4337 137.339 99.4262 137.362 99.4168 137.383C99.4039 137.413 99.3875 137.441 99.3678 137.467C99.3485 137.499 99.3261 137.528 99.301 137.556C99.0906 137.759 98.8425 137.92 98.5705 138.029L98.3522 138.122C98.1384 138.21 97.9067 138.295 97.6261 138.379C97.4568 138.432 97.2786 138.48 97.0871 138.533C93.9689 139.37 87.9776 140.042 80.4449 140.414L79.554 140.458L78.0929 140.52L76.5917 140.573L75.5538 140.609C74.7297 140.631 73.8967 140.653 73.0504 140.666H72.743H72.1684H71.6116C70.832 140.666 70.0436 140.666 69.2507 140.693H67.0991C64.4977 140.693 61.963 140.662 59.5264 140.596L58.4484 140.56C58.1366 140.56 57.8247 140.56 57.5174 140.534L56.083 140.485L54.2166 140.405L53.731 140.379L52.4882 140.317C50.4436 140.202 48.5236 140.069 46.7596 139.91C42.5367 139.538 39.1869 139.056 37.1156 138.498L36.9374 138.449L36.7414 138.392C36.4073 138.295 36.1177 138.193 35.8505 138.095C35.7569 138.056 35.6678 138.02 35.5876 137.98C35.4545 137.918 35.3251 137.849 35.2001 137.772C35.1576 137.748 35.1173 137.72 35.0798 137.688L34.9818 137.613L34.8883 137.52C34.8633 137.494 34.8409 137.466 34.8215 137.436C34.7886 137.389 34.7645 137.337 34.7502 137.281V137.233C34.748 137.212 34.748 137.191 34.7502 137.171C34.7502 135.728 42.6926 134.489 54.0696 133.945L54.9827 133.9L56.2122 133.852L58.1009 133.785L59.121 133.754L61.5176 133.697H61.6467H62.3372H62.8049C63.5087 133.697 64.217 133.697 64.9342 133.675H65.148C65.7939 133.675 66.4443 133.675 67.0991 133.675C69.7362 133.675 72.2976 133.71 74.752 133.772L76.5338 133.83L77.2911 133.856H77.3668L78.1954 133.887L78.7388 133.909L80.1465 133.971L81.4828 134.038C84.0308 134.175 86.3828 134.347 88.5032 134.551C95.2028 135.21 99.4391 136.153 99.4391 137.206Z" fill="#3D3F4D"/>
<path opacity="0.4" d="M34.7412 137.206C34.7412 135.763 42.6837 134.524 54.0606 133.98L54.9738 133.936L56.2032 133.887C57.9093 133.821 59.6822 133.772 61.5086 133.732H62.3282H62.7959C64.1991 133.71 65.6335 133.701 67.0901 133.701C69.7272 133.701 72.2886 133.737 74.743 133.799L76.5248 133.856C81.0017 134.002 85.0642 134.254 88.4853 134.582C95.1983 135.228 99.4346 136.17 99.4346 137.237C99.4346 137.706 98.5927 138.157 97.0648 138.564C94.2427 137.907 91.3747 137.464 88.4853 137.237C85.0642 136.909 81.0017 136.657 76.5248 136.511L74.743 136.454C72.2886 136.392 69.7272 136.356 67.0901 136.356C65.6335 136.356 64.1991 136.356 62.7959 136.387H62.3148H61.4952C59.6688 136.427 57.8959 136.476 56.1898 136.542L54.9604 136.591L54.0472 136.635C46.372 137.002 40.2648 137.684 37.1199 138.533C35.5876 138.122 34.7412 137.679 34.7412 137.206Z" fill="white"/>
<path opacity="0.1" d="M78.6943 138.184C78.4805 138.936 78.28 139.702 78.0929 140.471C78.0908 140.488 78.0908 140.504 78.0929 140.52L76.5918 140.573L75.5538 140.609C74.7298 140.631 73.8968 140.653 73.0504 140.666H72.743H72.1684H71.6116C72.1518 139.657 72.9129 138.782 73.8388 138.104C74.0036 137.98 74.1762 137.866 74.3556 137.763C74.7262 137.561 75.1282 137.422 75.5449 137.352C76.6638 137.21 77.7941 137.509 78.6943 138.184Z" fill="#000927"/>
<path d="M149.365 25.0098L149.479 47.5763" stroke="#000927" stroke-width="5" stroke-linecap="round"/>
<path d="M149.479 48.541L152.531 76.5806" stroke="#000927" stroke-width="5" stroke-linecap="round"/>
<path fill-rule="evenodd" clip-rule="evenodd" d="M150.404 24.2233C150.404 25.1018 149.684 25.8206 148.803 25.8206H141.59C140.71 25.8206 139.989 25.1018 139.989 24.2233C139.989 23.3448 140.71 22.626 141.59 22.626H148.803C149.684 22.626 150.404 23.3448 150.404 24.2233ZM148.91 45.2376L148.926 45.2377H150.037L150.052 45.2376L150.068 45.2377H150.112V45.2386C151.291 45.2789 152.237 46.5106 152.237 48.0242C152.237 49.5378 151.291 50.7695 150.112 50.8097V50.8108L148.91 50.8107C147.704 50.8107 146.725 49.5632 146.725 48.0242C146.725 46.4852 147.704 45.2376 148.91 45.2376ZM145.799 78.6152H154.858L153.427 74.9579L145.799 78.6152ZM133.636 78.6152H128.687L133.859 76.1097L133.636 78.6152Z" fill="#6CA1FF"/>
<path opacity="0.403041" fill-rule="evenodd" clip-rule="evenodd" d="M150.124 50.8055C151.303 50.7652 152.249 49.5336 152.249 48.02C152.249 46.5064 151.303 45.2747 150.124 45.2344V45.2335H150.08C150.075 45.2334 150.069 45.2334 150.064 45.2334C150.059 45.2334 150.054 45.2334 150.049 45.2335H148.938C148.933 45.2334 148.928 45.2334 148.922 45.2334C147.716 45.2334 146.738 46.481 146.738 48.02C146.738 49.559 147.716 50.8064 148.922 50.8065L150.124 50.8066V50.8055Z" fill="#000927"/>
<path opacity="0.403041" fill-rule="evenodd" clip-rule="evenodd" d="M151.496 48.02C151.496 48.9209 151.007 49.6513 150.404 49.6513C149.8 49.6513 149.311 48.9209 149.311 48.02C149.311 47.1191 149.8 46.3887 150.404 46.3887C151.007 46.3887 151.496 47.1191 151.496 48.02Z" fill="#000927"/>
<path opacity="0.602888" fill-rule="evenodd" clip-rule="evenodd" d="M151.494 48.0308C151.494 48.9317 151.005 49.6621 150.401 49.6621C149.798 49.6621 149.309 48.9317 149.309 48.0308C149.309 47.1298 149.798 46.3994 150.401 46.3994C151.005 46.3994 151.494 47.1298 151.494 48.0308Z" fill="#000927"/>
<path opacity="0.39588" fill-rule="evenodd" clip-rule="evenodd" d="M145.799 78.6398H154.858L153.427 74.9824L145.799 78.6398Z" fill="#000927"/>
<path opacity="0.39588" fill-rule="evenodd" clip-rule="evenodd" d="M128.687 78.6405H133.636L133.859 76.1104L128.687 78.6405Z" fill="#000927"/>
<path d="M148.733 23.1119V20.8994H140.715V23.1119H148.733Z" fill="#6CA1FF"/>
<path opacity="0.394764" fill-rule="evenodd" clip-rule="evenodd" d="M148.801 23.1119V20.8994H140.783V23.1119H148.801Z" fill="#000927"/>
<path fill-rule="evenodd" clip-rule="evenodd" d="M31.2876 95.5254C31.2876 95.5254 23.4642 112.695 22.53 131.364C22.53 131.364 26.9087 112.446 31.2876 95.5254Z" fill="#C9DAF4"/>
<path fill-rule="evenodd" clip-rule="evenodd" d="M17.2896 108.72C17.2896 108.72 22.9205 108.865 23.7778 127.534C23.7778 127.534 21.3748 113.444 17.2896 108.72Z" fill="#C9DAF4"/>
<path fill-rule="evenodd" clip-rule="evenodd" d="M23.0398 89.9297C23.0398 89.9297 26.327 109.681 23.0914 129.779C23.0914 129.779 23.2837 108.788 23.0398 89.9297Z" fill="#C9DAF4"/>
<path fill-rule="evenodd" clip-rule="evenodd" d="M27.4738 135.065H19.344C19.283 135.065 19.2221 135.064 19.1615 135.062C15.4545 134.924 13.3921 130.262 15.4915 126.898L17.354 123.914H29.4638L31.3261 126.898C33.4257 130.262 31.3633 134.924 27.6562 135.062C27.5956 135.064 27.5349 135.065 27.4738 135.065Z" fill="#EAF4FC"/>
<path d="M14.6514 130.776H32.1663" stroke="#0E84E5" stroke-width="2"/>
<path d="M15.0586 127.893H31.8169" stroke="#0E84E5" stroke-width="2"/>
<path d="M75.2634 139.153L72.606 119.768" stroke="#000927" stroke-width="5" stroke-linecap="round"/>
<path fill-rule="evenodd" clip-rule="evenodd" d="M50.5189 136.761H67.0903L69.6172 134.055H47.9919L50.5189 136.761Z" fill="#000927"/>
<path d="M40.6636 138.509L43.465 119.144" stroke="#000927" stroke-width="5" stroke-linecap="round"/>
<path fill-rule="evenodd" clip-rule="evenodd" d="M73.9871 130.176V124.711C74.118 124.685 74.2488 124.654 74.3794 124.617C76.7952 123.93 78.1936 121.424 77.5028 119.02C76.8121 116.616 74.2936 115.225 71.8777 115.912C71.7776 115.941 71.6793 115.972 71.5827 116.007C70.9472 115.668 70.2223 115.475 69.4544 115.475H48.1549C47.4632 115.475 46.8064 115.632 46.2184 115.91C45.5242 115.484 44.706 115.237 43.8301 115.237C41.3174 115.237 39.2804 117.264 39.2804 119.764C39.2804 122.195 41.2059 124.178 43.6221 124.286V130.176C43.6221 132.657 45.6618 134.687 48.1549 134.687H69.4544C71.9474 134.687 73.9871 132.657 73.9871 130.176ZM94.4691 121.295C93.5706 121.869 92.962 122.722 92.6844 123.666C90.7915 122.763 88.4681 122.874 86.6369 124.157L76.5501 131.223C73.8634 133.105 73.213 136.825 75.1045 139.49C76.9961 142.154 80.7418 142.794 83.4285 140.912L93.5153 133.846C95.1553 132.697 96.0366 130.863 96.044 129.003C97.0112 129.168 98.0377 129.008 98.9335 128.479C99.0687 128.399 99.1978 128.313 99.3208 128.222C99.8777 127.807 99.5819 126.935 98.8863 126.938C98.0931 126.942 97.4138 126.66 97.0504 126.099C96.3532 125.022 97.084 123.321 98.6828 122.299L98.6931 122.293C99.1703 121.989 99.1402 121.29 98.6308 121.045C97.3408 120.425 95.7647 120.468 94.4691 121.295ZM39.4893 161.268C37.4071 160.464 35.8556 158.524 35.6791 156.17L34.7622 143.944C34.518 140.687 36.9962 137.824 40.2691 137.581C43.542 137.338 46.4197 139.803 46.664 143.06L47.5808 155.287C47.7341 157.332 46.8144 159.221 45.2986 160.405C46.3472 161.145 47.0504 162.345 47.0988 163.699C47.1044 163.855 47.1014 164.01 47.0904 164.162C47.0406 164.852 46.1419 165.076 45.7685 164.493C45.3426 163.828 44.7368 163.413 44.065 163.413C42.7758 163.413 41.7308 164.944 41.7308 166.832V166.844C41.7321 167.407 41.1236 167.76 40.6406 167.467C39.4179 166.724 38.6017 165.384 38.6017 163.854C38.6017 162.88 38.9329 161.983 39.4893 161.268ZM54.9025 136.747V139.36H62.7067V136.747H54.9025Z" fill="#6CA1FF"/>
<path opacity="0.394764" fill-rule="evenodd" clip-rule="evenodd" d="M47.0988 163.699C47.1044 163.855 47.1014 164.01 47.0904 164.162C47.0407 164.852 46.1419 165.076 45.7685 164.493C45.3426 163.828 44.7368 163.413 44.065 163.413C42.7758 163.413 41.7308 164.944 41.7308 166.832V166.844C41.7321 167.407 41.1236 167.76 40.6406 167.467C39.4179 166.724 38.6017 165.384 38.6017 163.854C38.6017 161.476 40.5754 159.556 42.9831 159.628C45.2013 159.694 47.02 161.493 47.0988 163.699ZM67.9579 124.75C67.9579 127.648 65.8383 130.052 63.0577 130.513C63.0176 130.507 62.9788 130.5 62.9389 130.492C60.2164 129.985 58.1563 127.607 58.1563 124.75C58.1563 121.894 60.2164 119.515 62.9389 119.009C62.9788 119.001 63.0176 118.994 63.0577 118.987C65.8383 119.448 67.9579 121.853 67.9579 124.75ZM58.6575 124.758C58.6575 126.627 60.1804 128.143 62.0592 128.143C63.938 128.143 65.4609 126.627 65.4609 124.758C65.4609 122.889 63.938 121.373 62.0592 121.373C60.1804 121.373 58.6575 122.889 58.6575 124.758ZM39.2565 119.764C39.2565 117.264 41.2934 115.237 43.8061 115.237C46.3188 115.237 48.3558 117.264 48.3558 119.764C48.3558 122.264 46.3188 124.291 43.8061 124.291C41.2934 124.291 39.2565 122.264 39.2565 119.764ZM40.3542 118.925C40.3542 120.138 41.3423 121.121 42.5613 121.121C43.7802 121.121 44.7684 120.138 44.7684 118.925C44.7684 117.712 43.7802 116.729 42.5613 116.729C41.3423 116.729 40.3542 117.712 40.3542 118.925ZM71.5746 116.019C71.6711 115.984 71.7695 115.953 71.8696 115.924C74.2855 115.237 76.804 116.628 77.4947 119.032C78.1855 121.436 76.7871 123.942 74.3712 124.629C74.2407 124.666 74.1098 124.697 73.979 124.723V119.998C73.979 118.281 73.0023 116.78 71.5746 116.019ZM55.0397 129.438C55.0397 128.796 55.5628 128.275 56.2081 128.275C56.8534 128.275 57.3764 128.796 57.3764 129.438C57.3764 130.08 56.8534 130.6 56.2081 130.6C55.5628 130.6 55.0397 130.08 55.0397 129.438ZM51.6628 129.438C51.6628 128.796 52.186 128.275 52.8311 128.275C53.4764 128.275 53.9995 128.796 53.9995 129.438C53.9995 130.08 53.4764 130.6 52.8311 130.6C52.186 130.6 51.6628 130.08 51.6628 129.438ZM36.2684 144.852C36.2185 144.212 36.6997 143.653 37.3431 143.603C37.9864 143.553 38.5484 144.032 38.5982 144.672C38.6481 145.312 38.1669 145.871 37.5236 145.921C36.8802 145.971 36.3184 145.492 36.2684 144.852ZM36.5183 148.059C36.4684 147.419 36.9495 146.859 37.5928 146.81C38.2361 146.76 38.7981 147.239 38.8479 147.879C38.8978 148.519 38.4167 149.078 37.7733 149.128C37.1299 149.177 36.5682 148.699 36.5183 148.059ZM36.774 151.343C36.7241 150.703 37.2052 150.144 37.8486 150.094C38.492 150.045 39.0538 150.523 39.1036 151.164C39.1535 151.804 38.6724 152.363 38.0291 152.412C37.3857 152.462 36.8239 151.983 36.774 151.343ZM54.8445 139.326V136.713H62.7242V139.326H54.8445Z" fill="#000927"/>
<path fill-rule="evenodd" clip-rule="evenodd" d="M63.0303 130.521C65.8109 130.06 67.9305 127.655 67.9305 124.758C67.9305 121.86 65.8109 119.456 63.0303 118.995C63.3455 118.942 63.6697 118.915 63.9998 118.915C67.2429 118.915 69.8719 121.531 69.8719 124.758C69.8719 127.985 67.2429 130.6 63.9998 130.6C63.6697 130.6 63.3455 130.573 63.0303 130.521Z" fill="#000927"/>
<path d="M65.427 107.312H61.948" stroke="#000927" stroke-width="5" stroke-linecap="round"/>
<path d="M54.8072 102.591C54.1458 102.591 53.6045 103.129 53.6045 103.788" stroke="white" stroke-width="5" stroke-linecap="round"/>
<path d="M49.6509 107.312H53.93" stroke="#000927" stroke-width="5" stroke-linecap="round"/>
<path fill-rule="evenodd" clip-rule="evenodd" d="M65.2669 113.704C65.8986 113.749 66.3972 114.273 66.3972 114.913V115.458H50.1529V114.913C50.1529 114.273 50.6514 113.749 51.2832 113.704V113.488C51.2832 112.751 51.8249 112.133 52.532 112.009V103.112C52.532 102.282 53.2147 101.603 54.0489 101.603H62.5013C63.3356 101.603 64.0182 102.282 64.0182 103.112V112.009C64.7253 112.133 65.2669 112.751 65.2669 113.488V113.704ZM67.8455 107.312C67.8455 108.122 67.1858 108.778 66.3719 108.778C65.558 108.778 64.8981 108.122 64.8981 107.312C64.8981 106.502 65.558 105.846 66.3719 105.846C67.1858 105.846 67.8455 106.502 67.8455 107.312ZM49.6944 105.846C48.8805 105.846 48.2207 106.502 48.2207 107.312C48.2207 108.122 48.8805 108.778 49.6944 108.778C50.5083 108.778 51.1682 108.122 51.1682 107.312C51.1682 106.502 50.5083 105.846 49.6944 105.846Z" fill="#6CA1FF"/>
<path opacity="0.395926" fill-rule="evenodd" clip-rule="evenodd" d="M51.2832 113.704V113.33C51.3494 112.651 51.9625 111.986 52.7927 111.986H63.7574C64.5877 111.986 65.175 112.6 65.2669 113.281V113.704C65.8986 113.749 66.3972 114.273 66.3972 114.913V115.458H50.1529V114.913C50.1529 114.273 50.6514 113.749 51.2832 113.704ZM67.8455 107.312C67.8455 108.122 67.1858 108.778 66.3719 108.778C65.558 108.778 64.8981 108.122 64.8981 107.312C64.8981 106.502 65.558 105.846 66.3719 105.846C67.1858 105.846 67.8455 106.502 67.8455 107.312ZM48.2207 107.312C48.2207 106.502 48.8805 105.846 49.6944 105.846C50.5083 105.846 51.1682 106.502 51.1682 107.312C51.1682 108.122 50.5083 108.778 49.6944 108.778C48.8805 108.778 48.2207 108.122 48.2207 107.312Z" fill="#000927"/>
<path d="M51.3794 113.74H65.2327" stroke="#000927" stroke-width="5"/>
<path d="M54.8965 109.703H64.0182" stroke="#000927" stroke-width="3"/>
<path fill-rule="evenodd" clip-rule="evenodd" d="M57.2805 105.389C56.6376 105.915 56.5454 106.861 57.0746 107.501C57.6038 108.14 58.5541 108.232 59.197 107.705C59.84 107.179 59.9321 106.233 59.4029 105.594C58.8737 104.954 57.9235 104.862 57.2805 105.389Z" fill="white"/>
<path fill-rule="evenodd" clip-rule="evenodd" d="M58.0862 106.031C57.7909 106.273 57.7485 106.707 57.9916 107.001C58.2348 107.295 58.6712 107.337 58.9665 107.095C59.262 106.853 59.3043 106.419 59.0612 106.125C58.8181 105.831 58.3815 105.789 58.0862 106.031Z" fill="#000927"/>
<path fill-rule="evenodd" clip-rule="evenodd" d="M61.2466 105.389C60.6037 105.915 60.5115 106.861 61.0407 107.501C61.5699 108.14 62.5201 108.232 63.1631 107.705C63.806 107.179 63.8982 106.233 63.369 105.594C62.8398 104.954 61.8895 104.862 61.2466 105.389Z" fill="white"/>
<path fill-rule="evenodd" clip-rule="evenodd" d="M62.0523 106.031C61.7569 106.273 61.7146 106.707 61.9577 107.001C62.2008 107.295 62.6373 107.337 62.9326 107.095C63.228 106.853 63.2704 106.419 63.0273 106.125C62.7842 105.831 62.3476 105.789 62.0523 106.031Z" fill="#000927"/>
<path opacity="0.394764" fill-rule="evenodd" clip-rule="evenodd" d="M92.7558 123.889C93.0333 122.945 93.642 122.092 94.5405 121.518C95.8361 120.69 97.4122 120.648 98.7022 121.268C99.2116 121.513 99.2417 122.212 98.7645 122.515C98.7611 122.517 98.7577 122.52 98.7542 122.522C97.1554 123.543 96.4246 125.244 97.1218 126.322C97.4852 126.883 98.1645 127.165 98.9576 127.161C99.6533 127.157 99.9491 128.03 99.3921 128.445C99.2692 128.536 99.14 128.622 99.0048 128.702C98.1091 129.23 97.0826 129.391 96.1154 129.225C96.108 131.086 95.2267 132.92 93.5867 134.068L83.4998 141.135C80.8132 143.017 77.0675 142.377 75.1759 139.712C73.2844 137.048 73.9348 133.328 76.6215 131.446L86.7083 124.38C88.5395 123.097 90.8629 122.986 92.7558 123.889L92.7558 123.889Z" fill="#000927"/>
</svg>
