<svg width="252" height="228" viewBox="0 0 252 228" fill="none" xmlns="http://www.w3.org/2000/svg">
<path d="M87.7338 11.6057C89.3352 13.1781 91.0219 14.6575 92.8965 15.8926C102.457 22.193 130.893 37.332 175.875 30.9295C232.079 22.9299 224.044 79.4396 216.01 94.5229C207.976 109.606 178.322 137.313 175.875 151.148C173.428 164.982 184.268 202.703 159.164 191.467C134.06 180.231 119.482 153.747 86.5996 156.957C53.7175 160.167 30.4181 145.695 44.8798 119.625C59.3415 93.5563 76.6858 76.702 54.3556 47.8098C32.6452 19.7197 68.9331 -6.85271 87.7338 11.6057Z" fill="#EBECF4"/>
<path d="M172.972 64.2012L174.068 97.7027" stroke="#000927" stroke-width="4.75379" stroke-linecap="round"/>
<path d="M182.376 33.3164L172.145 60.7339" stroke="#000927" stroke-width="4.75379" stroke-linecap="round"/>
<path d="M125.937 183.422C187.023 183.422 236.543 180.534 236.543 176.97C236.543 173.406 187.023 170.518 125.937 170.518C64.8515 170.518 15.3318 173.406 15.3318 176.97C15.3318 180.534 64.8515 183.422 125.937 183.422Z" fill="#D8D9DB"/>
<path d="M99.5657 103.107H123.947C124.61 103.107 125.266 103.238 125.878 103.492C126.49 103.745 127.046 104.117 127.515 104.585C127.983 105.054 128.354 105.61 128.608 106.222C128.861 106.834 128.991 107.49 128.99 108.152V116.702C128.991 117.364 128.861 118.02 128.608 118.632C128.354 119.244 127.983 119.8 127.515 120.269C127.046 120.737 126.49 121.109 125.878 121.362C125.266 121.616 124.61 121.746 123.947 121.746H107.746L100.33 129.669L104.323 121.746H99.5429C98.204 121.746 96.9198 121.215 95.9731 120.269C95.0263 119.323 94.4944 118.04 94.4944 116.702V108.152C94.4944 107.488 94.6257 106.83 94.8808 106.216C95.136 105.603 95.5099 105.046 95.9811 104.577C96.4523 104.108 97.0116 103.737 97.6267 103.485C98.2419 103.233 98.9008 103.104 99.5657 103.107V103.107Z" fill="#2955CF"/>
<path opacity="0.7" d="M99.5657 103.107H123.947C124.61 103.107 125.266 103.238 125.878 103.492C126.49 103.745 127.046 104.117 127.515 104.585C127.983 105.054 128.354 105.61 128.608 106.222C128.861 106.834 128.991 107.49 128.99 108.152V116.702C128.991 117.364 128.861 118.02 128.608 118.632C128.354 119.244 127.983 119.8 127.515 120.269C127.046 120.737 126.49 121.109 125.878 121.362C125.266 121.616 124.61 121.746 123.947 121.746H107.746L100.33 129.669L104.323 121.746H99.5429C98.204 121.746 96.9198 121.215 95.9731 120.269C95.0263 119.323 94.4944 118.04 94.4944 116.702V108.152C94.4944 107.488 94.6257 106.83 94.8808 106.216C95.136 105.603 95.5099 105.046 95.9811 104.577C96.4523 104.108 97.0116 103.737 97.6267 103.485C98.2419 103.233 98.9008 103.104 99.5657 103.107V103.107Z" fill="white"/>
<path d="M100.758 111.953C100.737 111.378 100.887 110.809 101.192 110.32C101.496 109.831 101.939 109.444 102.465 109.208C102.991 108.972 103.575 108.899 104.143 108.998C104.711 109.096 105.236 109.362 105.652 109.761C106.068 110.16 106.354 110.674 106.476 111.237C106.597 111.8 106.547 112.386 106.333 112.92C106.118 113.455 105.749 113.913 105.272 114.236C104.795 114.56 104.232 114.733 103.656 114.735C103.28 114.754 102.904 114.695 102.552 114.564C102.199 114.432 101.878 114.229 101.606 113.969C101.335 113.708 101.12 113.395 100.974 113.049C100.828 112.702 100.755 112.329 100.758 111.953V111.953ZM105.761 111.953C105.766 111.534 105.645 111.122 105.415 110.771C105.184 110.42 104.855 110.145 104.468 109.982C104.081 109.819 103.654 109.775 103.242 109.855C102.829 109.934 102.45 110.135 102.152 110.431C101.855 110.727 101.652 111.105 101.569 111.516C101.487 111.928 101.529 112.355 101.691 112.742C101.852 113.13 102.125 113.461 102.475 113.693C102.825 113.925 103.236 114.047 103.656 114.045C103.934 114.054 104.21 114.006 104.469 113.904C104.728 113.802 104.963 113.648 105.16 113.452C105.357 113.257 105.512 113.023 105.615 112.765C105.718 112.507 105.768 112.231 105.761 111.953V111.953Z" fill="#2955CF"/>
<path d="M107.239 112.614C107.227 112.189 107.343 111.769 107.571 111.41C107.799 111.05 108.13 110.766 108.52 110.595C108.91 110.424 109.342 110.373 109.762 110.448C110.181 110.523 110.569 110.721 110.875 111.018C111.181 111.314 111.392 111.694 111.481 112.111C111.569 112.527 111.532 112.961 111.373 113.356C111.214 113.751 110.941 114.09 110.589 114.329C110.237 114.569 109.821 114.698 109.395 114.7C109.114 114.715 108.833 114.671 108.569 114.572C108.306 114.473 108.066 114.321 107.863 114.125C107.661 113.93 107.501 113.695 107.394 113.435C107.286 113.175 107.234 112.895 107.239 112.614V112.614ZM110.77 112.614C110.782 112.424 110.755 112.234 110.691 112.055C110.626 111.876 110.526 111.712 110.396 111.574C110.266 111.435 110.108 111.325 109.934 111.249C109.759 111.173 109.571 111.134 109.381 111.134C109.19 111.134 109.002 111.173 108.827 111.249C108.653 111.325 108.496 111.435 108.365 111.574C108.235 111.712 108.135 111.876 108.071 112.055C108.006 112.234 107.979 112.424 107.992 112.614C107.979 112.804 108.006 112.994 108.071 113.173C108.135 113.352 108.235 113.516 108.365 113.655C108.496 113.793 108.653 113.904 108.827 113.979C109.002 114.055 109.19 114.094 109.381 114.094C109.571 114.094 109.759 114.055 109.934 113.979C110.108 113.904 110.266 113.793 110.396 113.655C110.526 113.516 110.626 113.352 110.691 113.173C110.755 112.994 110.782 112.804 110.77 112.614V112.614Z" fill="#2955CF"/>
<path d="M116.81 112.617C116.826 112.895 116.783 113.174 116.684 113.435C116.585 113.696 116.433 113.933 116.237 114.132C116.041 114.331 115.805 114.486 115.545 114.588C115.286 114.691 115.007 114.737 114.728 114.726C114.453 114.734 114.179 114.678 113.929 114.561C113.679 114.444 113.461 114.27 113.291 114.053V116.185H112.543V110.559H113.257V111.215C113.428 110.989 113.651 110.807 113.907 110.686C114.163 110.565 114.445 110.508 114.728 110.519C115.006 110.508 115.284 110.554 115.542 110.656C115.801 110.758 116.036 110.912 116.232 111.109C116.428 111.307 116.581 111.543 116.68 111.802C116.78 112.062 116.824 112.339 116.81 112.617ZM116.057 112.617C116.044 112.346 115.952 112.086 115.792 111.867C115.632 111.649 115.411 111.482 115.157 111.388C114.903 111.293 114.627 111.275 114.363 111.335C114.099 111.396 113.859 111.532 113.671 111.728C113.484 111.923 113.358 112.169 113.309 112.436C113.261 112.702 113.291 112.977 113.397 113.226C113.503 113.475 113.679 113.688 113.905 113.838C114.13 113.988 114.395 114.069 114.666 114.07C114.856 114.076 115.045 114.042 115.222 113.971C115.398 113.899 115.558 113.792 115.69 113.655C115.822 113.518 115.924 113.355 115.989 113.176C116.055 112.997 116.082 112.807 116.069 112.617H116.057Z" fill="#2955CF"/>
<path d="M117.335 114.238L117.643 113.668C118.076 113.944 118.579 114.09 119.092 114.09C119.782 114.09 120.068 113.885 120.068 113.52C120.068 112.597 117.466 113.4 117.466 111.759C117.466 111.023 118.128 110.522 119.178 110.522C119.702 110.514 120.22 110.644 120.678 110.898L120.359 111.468C120.003 111.246 119.591 111.133 119.172 111.143C118.516 111.143 118.197 111.383 118.197 111.713C118.197 112.682 120.809 111.89 120.809 113.492C120.809 114.233 120.125 114.711 119.029 114.711C118.43 114.73 117.839 114.564 117.335 114.238V114.238Z" fill="#2955CF"/>
<path d="M121.58 114.222C121.58 114.155 121.593 114.09 121.619 114.028C121.645 113.967 121.683 113.911 121.731 113.865C121.779 113.819 121.836 113.783 121.898 113.759C121.96 113.735 122.026 113.724 122.093 113.726C122.159 113.725 122.224 113.736 122.285 113.761C122.346 113.785 122.401 113.822 122.447 113.868C122.494 113.914 122.53 113.97 122.555 114.03C122.579 114.091 122.591 114.156 122.589 114.222C122.59 114.288 122.578 114.353 122.553 114.414C122.529 114.474 122.492 114.53 122.446 114.576C122.4 114.623 122.345 114.66 122.284 114.685C122.224 114.711 122.159 114.724 122.093 114.724C122.026 114.725 121.96 114.713 121.897 114.689C121.835 114.664 121.778 114.628 121.731 114.581C121.683 114.534 121.645 114.478 121.619 114.417C121.593 114.355 121.58 114.289 121.58 114.222V114.222ZM121.648 109.24H122.515L122.367 112.957H121.796L121.648 109.24Z" fill="#2955CF"/>
<path d="M232.042 31.3567C232.042 33.2149 221.871 34.8109 207.302 35.512L206.132 35.569L204.558 35.6317C202.373 35.7172 200.102 35.7799 197.764 35.8312H196.714H196.144C194.347 35.8597 192.51 35.8711 190.644 35.8711C187.267 35.8711 183.987 35.8255 180.844 35.7457L178.562 35.6716C172.829 35.4835 167.626 35.1586 163.245 34.7368C154.649 33.9046 149.224 32.6905 149.224 31.3168C149.224 29.2705 161.545 27.5491 178.494 26.9791L179.823 26.9335C181.006 26.8993 182.205 26.8708 183.422 26.848C184.888 26.8195 186.383 26.8024 187.895 26.791H190.65C194.917 26.791 199.036 26.8594 202.909 26.9962L204.746 27.0589L207.136 27.1615L207.758 27.1957L209.35 27.2755C222.772 28.0621 232.042 29.584 232.042 31.3567Z" fill="#353533"/>
<path opacity="0.4" d="M232.042 31.3554C232.042 33.2136 221.871 34.8096 207.302 35.5107L206.132 35.5677L204.558 35.6304C202.373 35.7159 200.102 35.7786 197.764 35.8299H196.714H196.144C194.347 35.8584 192.51 35.8698 190.644 35.8698C187.267 35.8698 183.987 35.8242 180.844 35.7444L178.562 35.6703C172.829 35.4822 167.626 35.1573 163.245 34.7355C154.649 33.9033 149.224 32.6892 149.224 31.3155C149.224 30.7113 150.302 30.1299 152.258 29.6055C155.872 30.4515 159.545 31.0232 163.245 31.3155C167.626 31.7373 172.829 32.0622 178.562 32.2503L180.844 32.3244C183.987 32.4042 187.267 32.4498 190.644 32.4498C192.51 32.4498 194.347 32.4498 196.144 32.4099H196.714H197.764C200.102 32.3586 202.373 32.2959 204.558 32.2104L206.132 32.1477L207.302 32.0907C217.131 31.6176 224.951 30.7398 229.007 29.6454C230.936 30.1755 232.042 30.7455 232.042 31.3554Z" fill="white"/>
<path d="M181.933 176.839H187.21L170.051 41.3496H164.774L181.933 176.839Z" fill="#353533"/>
<path opacity="0.4" d="M181.933 176.839H187.21L170.051 41.3496H164.774L181.933 176.839Z" fill="white"/>
<path d="M170.901 61.4288H187.678C187.887 61.4176 188.088 61.3473 188.259 61.2263C188.43 61.1052 188.562 60.9383 188.642 60.7448L189.709 58.4648H168.87L169.937 60.7448C170.016 60.9383 170.149 61.1052 170.32 61.2263C170.49 61.3473 170.692 61.4176 170.901 61.4288V61.4288Z" fill="#353533"/>
<path opacity="0.4" d="M170.901 61.4288H187.678C187.887 61.4176 188.088 61.3473 188.259 61.2263C188.43 61.1052 188.562 60.9383 188.642 60.7448L189.709 58.4648H168.87L169.937 60.7448C170.016 60.9383 170.149 61.1052 170.32 61.2263C170.49 61.3473 170.692 61.4176 170.901 61.4288V61.4288Z" fill="white"/>
<path d="M169.149 59.5605H189.423C190.025 59.5605 190.513 59.0731 190.513 58.4719V58.2267C190.513 57.6255 190.025 57.138 189.423 57.138H169.149C168.547 57.138 168.06 57.6255 168.06 58.2267V58.4719C168.06 59.0731 168.547 59.5605 169.149 59.5605Z" fill="#353533"/>
<path opacity="0.1" d="M169.149 59.5605H189.423C190.025 59.5605 190.513 59.0731 190.513 58.4719V58.2267C190.513 57.6255 190.025 57.138 189.423 57.138H169.149C168.547 57.138 168.06 57.6255 168.06 58.2267V58.4719C168.06 59.0731 168.547 59.5605 169.149 59.5605Z" fill="white"/>
<path d="M173.964 80.7967H190.735C190.945 80.7863 191.148 80.7157 191.319 80.5934C191.489 80.4711 191.622 80.3023 191.699 80.107L192.766 77.8555H171.933L172.994 80.107C173.072 80.3027 173.206 80.4718 173.377 80.5941C173.549 80.7163 173.753 80.7867 173.964 80.7967V80.7967Z" fill="#353533"/>
<path opacity="0.4" d="M173.964 80.7967H190.735C190.945 80.7863 191.148 80.7157 191.319 80.5934C191.489 80.4711 191.622 80.3023 191.699 80.107L192.766 77.8555H171.933L172.994 80.107C173.072 80.3027 173.206 80.4718 173.377 80.5941C173.549 80.7163 173.753 80.7867 173.964 80.7967V80.7967Z" fill="white"/>
<path d="M172.213 78.9277H192.487C193.089 78.9277 193.577 78.4403 193.577 77.839V77.5939C193.577 76.9927 193.089 76.5052 192.487 76.5052H172.213C171.611 76.5052 171.124 76.9927 171.124 77.5939V77.839C171.124 78.4403 171.611 78.9277 172.213 78.9277Z" fill="#353533"/>
<path opacity="0.1" d="M172.213 78.9277H192.487C193.089 78.9277 193.577 78.4403 193.577 77.839V77.5939C193.577 76.9927 193.089 76.5052 192.487 76.5052H172.213C171.611 76.5052 171.124 76.9927 171.124 77.5939V77.839C171.124 78.4403 171.611 78.9277 172.213 78.9277Z" fill="white"/>
<path d="M177.022 106.431H193.822C194.032 106.422 194.236 106.353 194.407 106.231C194.579 106.11 194.713 105.942 194.792 105.747L195.853 103.467H174.997L176.064 105.747C176.141 105.941 176.272 106.108 176.442 106.229C176.612 106.351 176.813 106.421 177.022 106.431V106.431Z" fill="#353533"/>
<path opacity="0.4" d="M177.022 106.431H193.822C194.032 106.422 194.236 106.353 194.407 106.231C194.579 106.11 194.713 105.942 194.792 105.747L195.853 103.467H174.997L176.064 105.747C176.141 105.941 176.272 106.108 176.442 106.229C176.612 106.351 176.813 106.421 177.022 106.431V106.431Z" fill="white"/>
<path d="M175.27 104.566H195.544C196.146 104.566 196.634 104.079 196.634 103.478V103.233C196.634 102.631 196.146 102.144 195.544 102.144H175.27C174.669 102.144 174.181 102.631 174.181 103.233V103.478C174.181 104.079 174.669 104.566 175.27 104.566Z" fill="#353533"/>
<path opacity="0.1" d="M175.27 104.566H195.544C196.146 104.566 196.634 104.079 196.634 103.478V103.233C196.634 102.631 196.146 102.144 195.544 102.144H175.27C174.669 102.144 174.181 102.631 174.181 103.233V103.478C174.181 104.079 174.669 104.566 175.27 104.566Z" fill="white"/>
<path d="M180.079 132.068H196.856C197.066 132.058 197.268 131.988 197.439 131.867C197.609 131.745 197.742 131.578 197.82 131.384L198.887 129.104H178.048L179.115 131.384C179.193 131.578 179.326 131.745 179.497 131.867C179.668 131.988 179.87 132.058 180.079 132.068V132.068Z" fill="#353533"/>
<path opacity="0.4" d="M180.079 132.068H196.856C197.066 132.058 197.268 131.988 197.439 131.867C197.609 131.745 197.742 131.578 197.82 131.384L198.887 129.104H178.048L179.115 131.384C179.193 131.578 179.326 131.745 179.497 131.867C179.668 131.988 179.87 132.058 180.079 132.068V132.068Z" fill="white"/>
<path d="M178.328 130.205H198.602C199.203 130.205 199.691 129.718 199.691 129.116V128.871C199.691 128.27 199.203 127.783 198.602 127.783H178.328C177.726 127.783 177.238 128.27 177.238 128.871V129.116C177.238 129.718 177.726 130.205 178.328 130.205Z" fill="#353533"/>
<path opacity="0.1" d="M178.328 130.205H198.602C199.203 130.205 199.691 129.718 199.691 129.116V128.871C199.691 128.27 199.203 127.783 198.602 127.783H178.328C177.726 127.783 177.238 128.27 177.238 128.871V129.116C177.238 129.718 177.726 130.205 178.328 130.205Z" fill="white"/>
<path d="M183.142 157.708H199.914C200.123 157.699 200.326 157.63 200.497 157.508C200.668 157.387 200.8 157.219 200.878 157.024L201.944 154.744H181.106L182.172 157.024C182.251 157.219 182.385 157.387 182.557 157.509C182.729 157.63 182.932 157.699 183.142 157.708V157.708Z" fill="#353533"/>
<path opacity="0.4" d="M183.142 157.708H199.914C200.123 157.699 200.326 157.63 200.497 157.508C200.668 157.387 200.8 157.219 200.878 157.024L201.944 154.744H181.106L182.172 157.024C182.251 157.219 182.385 157.387 182.557 157.509C182.729 157.63 182.932 157.699 183.142 157.708V157.708Z" fill="white"/>
<path d="M181.386 155.844H201.66C202.262 155.844 202.75 155.356 202.75 154.755V154.51C202.75 153.909 202.262 153.421 201.66 153.421H181.386C180.784 153.421 180.296 153.909 180.296 154.51V154.755C180.296 155.356 180.784 155.844 181.386 155.844Z" fill="#353533"/>
<path opacity="0.1" d="M181.386 155.844H201.66C202.262 155.844 202.75 155.356 202.75 154.755V154.51C202.75 153.909 202.262 153.421 201.66 153.421H181.386C180.784 153.421 180.296 153.909 180.296 154.51V154.755C180.296 155.356 180.784 155.844 181.386 155.844Z" fill="white"/>
<path d="M202.304 176.839H207.58L190.421 41.3496H185.145L202.304 176.839Z" fill="#353533"/>
<path opacity="0.7" d="M202.304 176.839H207.58L190.421 41.3496H185.145L202.304 176.839Z" fill="white"/>
<path d="M146.907 176.839H141.631L158.784 41.3496H164.061L146.907 176.839Z" fill="#353533"/>
<path opacity="0.4" d="M146.907 176.839H141.631L158.784 41.3496H164.061L146.907 176.839Z" fill="white"/>
<path d="M178.305 61.4288H161.534C161.324 61.4186 161.121 61.3489 160.95 61.2278C160.778 61.1066 160.644 60.9391 160.564 60.7448L159.503 58.4648H180.336L179.269 60.7448C179.191 60.9391 179.059 61.1068 178.888 61.228C178.717 61.3492 178.515 61.4189 178.305 61.4288V61.4288Z" fill="#353533"/>
<path opacity="0.5" d="M178.305 61.4288H161.534C161.324 61.4186 161.121 61.3489 160.95 61.2278C160.778 61.1066 160.644 60.9391 160.564 60.7448L159.503 58.4648H180.336L179.269 60.7448C179.191 60.9391 179.059 61.1068 178.888 61.228C178.717 61.3492 178.515 61.4189 178.305 61.4288V61.4288Z" fill="white"/>
<path d="M180.056 57.1426H159.782C159.181 57.1426 158.693 57.63 158.693 58.2313V58.4764C158.693 59.0777 159.181 59.5651 159.782 59.5651H180.056C180.658 59.5651 181.146 59.0777 181.146 58.4764V58.2313C181.146 57.63 180.658 57.1426 180.056 57.1426Z" fill="#353533"/>
<path d="M175.247 80.7967H158.453C158.243 80.7856 158.041 80.7148 157.87 80.5926C157.699 80.4704 157.567 80.3019 157.489 80.107L156.422 77.8555H177.278L176.211 80.107C176.133 80.3019 176.001 80.4704 175.83 80.5926C175.659 80.7148 175.457 80.7856 175.247 80.7967V80.7967Z" fill="#353533"/>
<path opacity="0.5" d="M175.247 80.7967H158.453C158.243 80.7856 158.041 80.7148 157.87 80.5926C157.699 80.4704 157.567 80.3019 157.489 80.107L156.422 77.8555H177.278L176.211 80.107C176.133 80.3019 176.001 80.4704 175.83 80.5926C175.659 80.7148 175.457 80.7856 175.247 80.7967V80.7967Z" fill="white"/>
<path d="M176.999 76.5059H156.725C156.124 76.5059 155.636 76.9933 155.636 77.5946V77.8397C155.636 78.4409 156.124 78.9284 156.725 78.9284H176.999C177.601 78.9284 178.089 78.4409 178.089 77.8397V77.5946C178.089 76.9933 177.601 76.5059 176.999 76.5059Z" fill="#353533"/>
<path opacity="0.2" d="M176.999 76.5059H156.725C156.124 76.5059 155.636 76.9933 155.636 77.5946V77.8397C155.636 78.4409 156.124 78.9284 156.725 78.9284H176.999C177.601 78.9284 178.089 78.4409 178.089 77.8397V77.5946C178.089 76.9933 177.601 76.5059 176.999 76.5059Z" fill="white"/>
<path d="M172.184 106.431H155.413C155.203 106.422 155.001 106.352 154.83 106.231C154.659 106.11 154.526 105.941 154.449 105.747L153.382 103.467H174.215L173.154 105.747C173.075 105.942 172.942 106.11 172.77 106.231C172.598 106.353 172.394 106.422 172.184 106.431V106.431Z" fill="#353533"/>
<path opacity="0.5" d="M172.184 106.431H155.413C155.203 106.422 155.001 106.352 154.83 106.231C154.659 106.11 154.526 105.941 154.449 105.747L153.382 103.467H174.215L173.154 105.747C173.075 105.942 172.942 106.11 172.77 106.231C172.598 106.353 172.394 106.422 172.184 106.431V106.431Z" fill="white"/>
<path d="M173.935 102.143H153.661C153.06 102.143 152.572 102.63 152.572 103.231V103.476C152.572 104.078 153.06 104.565 153.661 104.565H173.935C174.537 104.565 175.025 104.078 175.025 103.476V103.231C175.025 102.63 174.537 102.143 173.935 102.143Z" fill="#353533"/>
<path opacity="0.2" d="M173.935 102.143H153.661C153.06 102.143 152.572 102.63 152.572 103.231V103.476C152.572 104.078 153.06 104.565 153.661 104.565H173.935C174.537 104.565 175.025 104.078 175.025 103.476V103.231C175.025 102.63 174.537 102.143 173.935 102.143Z" fill="white"/>
<path d="M169.127 132.068H152.356C152.145 132.058 151.942 131.989 151.77 131.867C151.599 131.746 151.465 131.578 151.386 131.384L150.325 129.104H171.158L170.091 131.384C170.013 131.578 169.881 131.746 169.71 131.868C169.539 131.989 169.336 132.058 169.127 132.068V132.068Z" fill="#353533"/>
<path opacity="0.5" d="M169.127 132.068H152.356C152.145 132.058 151.942 131.989 151.77 131.867C151.599 131.746 151.465 131.578 151.386 131.384L150.325 129.104H171.158L170.091 131.384C170.013 131.578 169.881 131.746 169.71 131.868C169.539 131.989 169.336 132.058 169.127 132.068V132.068Z" fill="white"/>
<path d="M170.878 127.781H150.604C150.002 127.781 149.515 128.269 149.515 128.87V129.115C149.515 129.716 150.002 130.204 150.604 130.204H170.878C171.48 130.204 171.968 129.716 171.968 129.115V128.87C171.968 128.269 171.48 127.781 170.878 127.781Z" fill="#353533"/>
<path opacity="0.2" d="M170.878 127.781H150.604C150.002 127.781 149.515 128.269 149.515 128.87V129.115C149.515 129.716 150.002 130.204 150.604 130.204H170.878C171.48 130.204 171.968 129.716 171.968 129.115V128.87C171.968 128.269 171.48 127.781 170.878 127.781Z" fill="white"/>
<path d="M166.069 157.708H149.292C149.082 157.698 148.88 157.629 148.709 157.507C148.538 157.386 148.406 157.218 148.327 157.024L147.261 154.744H168.099L167.033 157.024C166.955 157.219 166.823 157.387 166.652 157.508C166.481 157.63 166.278 157.699 166.069 157.708Z" fill="#353533"/>
<path opacity="0.5" d="M166.069 157.708H149.292C149.082 157.698 148.88 157.629 148.709 157.507C148.538 157.386 148.406 157.218 148.327 157.024L147.261 154.744H168.099L167.033 157.024C166.955 157.219 166.823 157.387 166.652 157.508C166.481 157.63 166.278 157.699 166.069 157.708Z" fill="white"/>
<path d="M167.821 153.422H147.547C146.945 153.422 146.457 153.909 146.457 154.511V154.756C146.457 155.357 146.945 155.844 147.547 155.844H167.821C168.423 155.844 168.91 155.357 168.91 154.756V154.511C168.91 153.909 168.423 153.422 167.821 153.422Z" fill="#353533"/>
<path opacity="0.2" d="M167.821 153.422H147.547C146.945 153.422 146.457 153.909 146.457 154.511V154.756C146.457 155.357 146.945 155.844 147.547 155.844H167.821C168.423 155.844 168.91 155.357 168.91 154.756V154.511C168.91 153.909 168.423 153.422 167.821 153.422Z" fill="white"/>
<path d="M167.272 176.839H161.996L179.155 41.3496H184.432L167.272 176.839Z" fill="#353533"/>
<path opacity="0.7" d="M167.272 176.839H161.996L179.155 41.3496H184.432L167.272 176.839Z" fill="white"/>
<path d="M191.266 42.0382H157.826C157.617 42.027 157.416 41.9567 157.245 41.8356C157.074 41.7146 156.941 41.5476 156.862 41.3542L155.795 39.0742H193.297L192.236 41.3542C192.153 41.5462 192.018 41.7115 191.847 41.8322C191.676 41.9528 191.475 42.0241 191.266 42.0382Z" fill="#353533"/>
<path opacity="0.5" d="M191.266 42.0382H157.826C157.617 42.027 157.416 41.9567 157.245 41.8356C157.074 41.7146 156.941 41.5476 156.862 41.3542L155.795 39.0742H193.297L192.236 41.3542C192.153 41.5462 192.018 41.7115 191.847 41.8322C191.676 41.9528 191.475 42.0241 191.266 42.0382Z" fill="white"/>
<path d="M193.017 37.752H156.08C155.479 37.752 154.991 38.2394 154.991 38.8407V39.0858C154.991 39.687 155.479 40.1745 156.08 40.1745H193.017C193.619 40.1745 194.107 39.687 194.107 39.0858V38.8407C194.107 38.2394 193.619 37.752 193.017 37.752Z" fill="#353533"/>
<path opacity="0.2" d="M193.017 37.752H156.08C155.479 37.752 154.991 38.2394 154.991 38.8407V39.0858C154.991 39.687 155.479 40.1745 156.08 40.1745H193.017C193.619 40.1745 194.107 39.687 194.107 39.0858V38.8407C194.107 38.2394 193.619 37.752 193.017 37.752Z" fill="white"/>
<path opacity="0.2" d="M180.056 57.1426H159.782C159.181 57.1426 158.693 57.63 158.693 58.2313V58.4764C158.693 59.0777 159.181 59.5651 159.782 59.5651H180.056C180.658 59.5651 181.146 59.0777 181.146 58.4764V58.2313C181.146 57.63 180.658 57.1426 180.056 57.1426Z" fill="white"/>
<path d="M127.843 176.74C127.845 176.772 127.845 176.805 127.843 176.837C127.845 176.852 127.845 176.867 127.843 176.883C127.836 176.912 127.826 176.94 127.814 176.968C127.797 177.006 127.776 177.043 127.751 177.076C127.726 177.117 127.698 177.155 127.666 177.19C127.396 177.452 127.079 177.659 126.73 177.8L126.451 177.92C126.177 178.034 125.88 178.142 125.521 178.251C125.304 178.319 125.076 178.382 124.831 178.45C120.837 179.527 113.165 180.394 103.518 180.873L102.377 180.93L100.506 181.009L98.5839 181.078L97.2548 181.123C96.1994 181.152 95.1327 181.18 94.0488 181.197H93.6552H92.9193H92.2063C91.208 181.197 90.1983 181.197 89.1829 181.232H86.4276C83.0961 181.232 79.8502 181.192 76.7298 181.106L75.3493 181.061C74.95 181.061 74.5507 181.061 74.1571 181.026L72.3202 180.964L69.93 180.861L69.3082 180.827L67.7166 180.747C65.0983 180.599 62.6396 180.428 60.3806 180.223C54.9727 179.744 50.6829 179.123 48.0303 178.404L47.8021 178.342L47.5511 178.268C47.1232 178.142 46.7524 178.011 46.4102 177.886C46.2904 177.834 46.1763 177.789 46.0736 177.738C45.9031 177.658 45.7374 177.568 45.5773 177.47C45.5228 177.438 45.4713 177.402 45.4233 177.361L45.2978 177.264L45.178 177.145C45.146 177.111 45.1174 177.075 45.0924 177.036C45.0504 176.976 45.0195 176.908 45.0011 176.837V176.774C44.9983 176.748 44.9983 176.721 45.0011 176.694C45.0011 174.836 55.1724 173.24 69.7418 172.539L70.9112 172.482L72.4857 172.419L74.9044 172.334L76.2107 172.294L79.2798 172.22H79.4452H80.3294H80.9284C81.8297 172.22 82.7367 172.22 83.6552 172.191H83.929C84.7561 172.191 85.589 172.191 86.4276 172.191C89.8047 172.191 93.0848 172.237 96.228 172.317L98.5098 172.391L99.4796 172.425H99.5765L100.638 172.465L101.334 172.494L103.136 172.573L104.848 172.659C108.111 172.836 111.123 173.058 113.838 173.32C122.418 174.169 127.843 175.383 127.843 176.74Z" fill="#3D3F4D"/>
<path opacity="0.4" d="M44.9897 176.739C44.9897 174.881 55.161 173.285 69.7304 172.584L70.8998 172.527L72.4742 172.464C74.6591 172.378 76.9295 172.316 79.2684 172.264H80.318H80.917C82.7139 172.236 84.5508 172.225 86.4162 172.225C89.7932 172.225 93.0734 172.27 96.2166 172.35L98.4984 172.424C104.231 172.612 109.434 172.937 113.815 173.359C122.412 174.191 127.837 175.405 127.837 176.779C127.837 177.383 126.759 177.965 124.802 178.489C121.188 177.643 117.515 177.071 113.815 176.779C109.434 176.357 104.231 176.032 98.4984 175.844L96.2166 175.77C93.0734 175.69 89.7932 175.645 86.4162 175.645C84.5508 175.645 82.7139 175.645 80.917 175.684H80.3009H79.2512C76.9124 175.736 74.642 175.799 72.4571 175.884L70.8827 175.947L69.7132 176.004C59.8843 176.477 52.0634 177.355 48.036 178.449C46.0736 177.919 44.9897 177.349 44.9897 176.739Z" fill="white"/>
<path opacity="0.1" d="M101.277 178.001C101.003 178.97 100.746 179.956 100.506 180.948C100.504 180.968 100.504 180.99 100.506 181.01L98.584 181.079L97.2548 181.124C96.1995 181.153 95.1327 181.181 94.0489 181.198H93.6553H92.9194H92.2063C92.8982 179.899 93.8729 178.771 95.0586 177.898C95.2696 177.738 95.4906 177.591 95.7203 177.459C96.1949 177.199 96.7097 177.02 97.2434 176.929C98.6762 176.747 100.124 177.131 101.277 178.001V178.001Z" fill="#000927"/>
<path d="M191.779 32.2168L191.924 61.2855" stroke="#000927" stroke-width="4.75379" stroke-linecap="round"/>
<path d="M191.925 62.5273L195.833 98.6461" stroke="#000927" stroke-width="4.75379" stroke-linecap="round"/>
<path fill-rule="evenodd" clip-rule="evenodd" d="M193.11 31.2021C193.11 32.3338 192.187 33.2596 191.06 33.2596H181.822C180.695 33.2596 179.772 32.3338 179.772 31.2021C179.772 30.0705 180.695 29.1445 181.822 29.1445H191.06C192.187 29.1445 193.11 30.0705 193.11 31.2021ZM191.197 58.2708L191.217 58.2709H192.639L192.659 58.2708L192.679 58.2709H192.735V58.2721C194.245 58.3239 195.457 59.9106 195.457 61.8603C195.457 63.81 194.245 65.3965 192.735 65.4484V65.4498L191.197 65.4497C189.651 65.4496 188.399 63.8427 188.399 61.8603C188.399 59.8779 189.651 58.2708 191.197 58.2708ZM187.212 101.267H198.813L196.98 96.5555L187.212 101.267ZM171.636 101.267H165.299L171.922 98.0392L171.636 101.267Z" fill="#6CA1FF"/>
<path opacity="0.403041" fill-rule="evenodd" clip-rule="evenodd" d="M192.75 65.4432C194.26 65.3914 195.472 63.8049 195.472 61.8552C195.472 59.9054 194.26 58.3188 192.75 58.2669V58.2657H192.694C192.687 58.2657 192.68 58.2656 192.674 58.2656C192.667 58.2656 192.661 58.2657 192.654 58.2657H191.231C191.225 58.2657 191.218 58.2656 191.212 58.2656C189.666 58.2656 188.414 59.8727 188.414 61.8552C188.414 63.8375 189.666 65.4444 191.212 65.4445L192.75 65.4446V65.4432V65.4432Z" fill="#000927"/>
<path opacity="0.403041" fill-rule="evenodd" clip-rule="evenodd" d="M194.508 61.8553C194.508 63.0158 193.881 63.9566 193.109 63.9566C192.336 63.9566 191.71 63.0158 191.71 61.8553C191.71 60.6947 192.336 59.7539 193.109 59.7539C193.881 59.7539 194.508 60.6947 194.508 61.8553Z" fill="#000927"/>
<path opacity="0.602888" fill-rule="evenodd" clip-rule="evenodd" d="M194.505 61.869C194.505 63.0294 193.878 63.9703 193.106 63.9703C192.333 63.9703 191.707 63.0294 191.707 61.869C191.707 60.7084 192.333 59.7676 193.106 59.7676C193.878 59.7676 194.505 60.7084 194.505 61.869" fill="#000927"/>
<path opacity="0.39588" fill-rule="evenodd" clip-rule="evenodd" d="M187.212 101.299H198.813L196.98 96.5879L187.212 101.299Z" fill="#000927"/>
<path opacity="0.39588" fill-rule="evenodd" clip-rule="evenodd" d="M165.299 101.298H171.636L171.922 98.0391L165.299 101.298Z" fill="#000927"/>
<path d="M190.969 29.7699V26.9199H180.701V29.7699H190.969Z" fill="#6CA1FF"/>
<path opacity="0.394764" fill-rule="evenodd" clip-rule="evenodd" d="M191.056 29.7699V26.9199H180.788V29.7699H191.056Z" fill="#000927"/>
<path fill-rule="evenodd" clip-rule="evenodd" d="M40.5671 123.049C40.5671 123.049 30.5483 145.166 29.3521 169.214C29.3521 169.214 34.9595 144.844 40.5671 123.049" fill="#C9DAF4"/>
<path fill-rule="evenodd" clip-rule="evenodd" d="M22.6411 140.047C22.6411 140.047 29.8522 140.235 30.9501 164.282C30.9501 164.282 27.8728 146.132 22.6411 140.047" fill="#C9DAF4"/>
<path fill-rule="evenodd" clip-rule="evenodd" d="M30.0051 115.842C30.0051 115.842 34.2147 141.284 30.0712 167.174C30.0712 167.174 30.3174 140.134 30.0051 115.842" fill="#C9DAF4"/>
<path fill-rule="evenodd" clip-rule="evenodd" d="M35.6833 173.981H25.2721C25.194 173.981 25.1161 173.98 25.0385 173.977C20.2912 173.799 17.65 167.794 20.3386 163.461L22.7237 159.617H38.2317L40.6166 163.461C43.3053 167.794 40.6641 173.799 35.9169 173.977C35.8393 173.98 35.7615 173.981 35.6833 173.981" fill="#EAF4FC"/>
<path d="M19.2627 168.458H41.6926" stroke="#0E84E5" stroke-width="1.90152"/>
<path d="M19.7839 164.743H41.2448" stroke="#0E84E5" stroke-width="1.90152"/>
<path d="M96.8826 179.249L93.4795 154.277" stroke="#000927" stroke-width="4.75379" stroke-linecap="round"/>
<path fill-rule="evenodd" clip-rule="evenodd" d="M65.1948 176.166H86.4163L89.6524 172.68H61.9587L65.1948 176.166Z" fill="#000927"/>
<path d="M52.5737 178.417L56.1612 153.471" stroke="#000927" stroke-width="4.75379" stroke-linecap="round"/>
<path fill-rule="evenodd" clip-rule="evenodd" d="M95.2483 167.683V160.642C95.4159 160.61 95.5835 160.57 95.7506 160.522C98.8444 159.637 100.635 156.409 99.7506 153.312C98.8661 150.216 95.6408 148.423 92.547 149.309C92.4188 149.346 92.2929 149.386 92.1692 149.431C91.3554 148.994 90.427 148.746 89.4436 148.746H62.1672C61.2815 148.746 60.4404 148.948 59.6873 149.307C58.7984 148.757 57.7506 148.439 56.6288 148.439C53.411 148.439 50.8025 151.05 50.8025 154.271C50.8025 157.402 53.2683 159.957 56.3625 160.096V167.683C56.3625 170.878 58.9746 173.493 62.1672 173.493H89.4436C92.6363 173.493 95.2483 170.878 95.2483 167.683ZM121.478 156.242C120.327 156.982 119.548 158.08 119.192 159.296C116.768 158.133 113.793 158.276 111.448 159.928L98.5305 169.031C95.09 171.455 94.257 176.247 96.6793 179.679C99.1016 183.111 103.898 183.935 107.339 181.511L120.256 172.409C122.357 170.929 123.485 168.567 123.495 166.17C124.733 166.384 126.048 166.177 127.195 165.496C127.368 165.393 127.533 165.282 127.691 165.164C128.404 164.63 128.025 163.506 127.134 163.511C126.119 163.516 125.249 163.153 124.783 162.43C123.891 161.042 124.827 158.851 126.874 157.535L126.887 157.527C127.498 157.136 127.46 156.235 126.807 155.92C125.155 155.121 123.137 155.176 121.478 156.242ZM51.07 207.733C48.4035 206.698 46.4165 204.199 46.1906 201.167L45.0164 185.417C44.7036 181.222 47.8772 177.534 52.0686 177.221C56.2599 176.908 59.9451 180.084 60.2579 184.279L61.432 200.029C61.6284 202.663 60.4506 205.097 58.5094 206.621C59.8522 207.576 60.7528 209.122 60.8147 210.865C60.8219 211.067 60.8181 211.265 60.804 211.461C60.7403 212.35 59.5893 212.639 59.1111 211.888C58.5658 211.032 57.79 210.497 56.9296 210.497C55.2787 210.497 53.9404 212.468 53.9404 214.901V214.916C53.9421 215.641 53.1628 216.096 52.5443 215.719C50.9785 214.762 49.9333 213.036 49.9333 211.065C49.9333 209.81 50.3574 208.654 51.07 207.733ZM70.8083 176.147V179.513H80.8025V176.147H70.8083Z" fill="#6CA1FF"/>
<path opacity="0.394764" fill-rule="evenodd" clip-rule="evenodd" d="M60.815 210.866C60.8222 211.067 60.8184 211.266 60.8044 211.462C60.7406 212.35 59.5897 212.639 59.1114 211.888C58.5661 211.032 57.7903 210.497 56.9299 210.497C55.279 210.497 53.9407 212.468 53.9407 214.901V214.917C53.9425 215.642 53.1631 216.097 52.5447 215.719C50.9788 214.762 49.9336 213.036 49.9336 211.065C49.9336 208.001 52.4612 205.528 55.5444 205.621C58.3851 205.706 60.7141 208.023 60.815 210.866ZM87.5274 160.693C87.5274 164.426 84.8129 167.523 81.2521 168.117C81.2007 168.108 81.151 168.099 81.1 168.089C77.6135 167.436 74.9753 164.373 74.9753 160.693C74.9753 157.013 77.6135 153.95 81.1 153.297C81.151 153.287 81.2007 153.278 81.2521 153.269C84.8129 153.864 87.5274 156.961 87.5274 160.693ZM75.6171 160.703C75.6171 163.111 77.5674 165.063 79.9734 165.063C82.3794 165.063 84.3297 163.111 84.3297 160.703C84.3297 158.295 82.3794 156.343 79.9734 156.343C77.5674 156.343 75.6171 158.295 75.6171 160.703ZM50.772 154.271C50.772 151.05 53.3806 148.439 56.5984 148.439C59.8162 148.439 62.4247 151.05 62.4247 154.271C62.4247 157.491 59.8162 160.102 56.5984 160.102C53.3806 160.102 50.772 157.491 50.772 154.271ZM52.1777 153.19C52.1777 154.753 53.4432 156.019 55.0042 156.019C56.5652 156.019 57.8307 154.753 57.8307 153.19C57.8307 151.628 56.5652 150.361 55.0042 150.361C53.4432 150.361 52.1777 151.628 52.1777 153.19ZM92.159 149.447C92.2826 149.402 92.4086 149.362 92.5368 149.325C95.6306 148.439 98.8559 150.232 99.7403 153.328C100.625 156.425 98.8342 159.653 95.7404 160.538C95.5732 160.586 95.4057 160.626 95.2381 160.658V154.572C95.2381 152.361 93.9874 150.428 92.159 149.447ZM70.9842 166.731C70.9842 165.904 71.6542 165.234 72.4804 165.234C73.3069 165.234 73.9767 165.904 73.9767 166.731C73.9767 167.558 73.3069 168.229 72.4804 168.229C71.6542 168.229 70.9842 167.558 70.9842 166.731ZM66.6596 166.731C66.6596 165.904 67.3296 165.234 68.1557 165.234C68.9821 165.234 69.6521 165.904 69.6521 166.731C69.6521 167.558 68.9821 168.229 68.1557 168.229C67.3296 168.229 66.6596 167.558 66.6596 166.731ZM46.9455 186.586C46.8816 185.762 47.4977 185.042 48.3216 184.978C49.1456 184.914 49.8652 185.53 49.929 186.355C49.9929 187.18 49.3766 187.9 48.5528 187.964C47.7289 188.027 47.0094 187.411 46.9455 186.586ZM47.2653 190.718C47.2014 189.893 47.8175 189.173 48.6413 189.109C49.4653 189.045 50.1849 189.662 50.2487 190.487C50.3126 191.311 49.6965 192.031 48.8726 192.095C48.0486 192.159 47.3292 191.543 47.2653 190.718ZM47.5929 194.948C47.5289 194.124 48.1451 193.403 48.969 193.339C49.7929 193.276 50.5125 193.892 50.5762 194.717C50.6401 195.541 50.024 196.262 49.2002 196.325C48.3763 196.389 47.6568 195.773 47.5929 194.948ZM70.7342 179.469V176.102H80.825V179.469H70.7342Z" fill="#000927"/>
<path fill-rule="evenodd" clip-rule="evenodd" d="M81.217 168.128C84.7779 167.533 87.4924 164.436 87.4924 160.704C87.4924 156.972 84.7779 153.874 81.217 153.28C81.6207 153.213 82.0359 153.178 82.4587 153.178C86.6118 153.178 89.9785 156.547 89.9785 160.704C89.9785 164.861 86.6118 168.23 82.4587 168.23C82.0359 168.23 81.6207 168.195 81.217 168.128V168.128Z" fill="#000927"/>
<path d="M84.2866 138.233H79.8313" stroke="#000927" stroke-width="4.75379" stroke-linecap="round"/>
<path d="M70.6865 132.152C69.8394 132.152 69.1462 132.846 69.1462 133.694" stroke="white" stroke-width="4.75379" stroke-linecap="round"/>
<path d="M64.0835 138.233H69.5634" stroke="#000927" stroke-width="4.75379" stroke-linecap="round"/>
<path fill-rule="evenodd" clip-rule="evenodd" d="M84.0812 146.469C84.8902 146.527 85.5287 147.202 85.5287 148.027V148.728H64.7261V148.027C64.7261 147.202 65.3644 146.527 66.1735 146.469V146.191C66.1735 145.241 66.8672 144.445 67.7727 144.286V132.825C67.7727 131.756 68.647 130.881 69.7153 130.881H80.5395C81.608 130.881 82.4821 131.756 82.4821 132.825V144.286C83.3876 144.445 84.0812 145.241 84.0812 146.191V146.469ZM87.3834 138.235C87.3834 139.278 86.5385 140.123 85.4962 140.123C84.4539 140.123 83.6089 139.278 83.6089 138.235C83.6089 137.191 84.4539 136.346 85.4962 136.346C86.5385 136.346 87.3834 137.191 87.3834 138.235ZM64.139 136.346C63.0967 136.346 62.2517 137.191 62.2517 138.235C62.2517 139.278 63.0967 140.123 64.139 140.123C65.1813 140.123 66.0263 139.278 66.0263 138.235C66.0263 137.191 65.1813 136.346 64.139 136.346Z" fill="#6CA1FF"/>
<path opacity="0.395926" fill-rule="evenodd" clip-rule="evenodd" d="M66.1735 146.469V145.987C66.2583 145.112 67.0434 144.256 68.1066 144.256H82.1482C83.2114 144.256 83.9635 145.047 84.0812 145.924V146.469C84.8902 146.527 85.5287 147.202 85.5287 148.026V148.728H64.7261V148.026C64.7261 147.202 65.3644 146.527 66.1735 146.469V146.469ZM87.3834 138.234C87.3834 139.278 86.5385 140.123 85.4962 140.123C84.4539 140.123 83.6089 139.278 83.6089 138.234C83.6089 137.191 84.4539 136.346 85.4962 136.346C86.5385 136.346 87.3834 137.191 87.3834 138.234ZM62.2517 138.234C62.2517 137.191 63.0967 136.346 64.139 136.346C65.1813 136.346 66.0263 137.191 66.0263 138.234C66.0263 139.278 65.1813 140.123 64.139 140.123C63.0967 140.123 62.2517 139.278 62.2517 138.234Z" fill="#000927"/>
<path d="M66.2969 146.515H84.0376" stroke="#000927" stroke-width="4.75379"/>
<path d="M70.8008 141.313H82.4821" stroke="#000927" stroke-width="2.85227"/>
<path fill-rule="evenodd" clip-rule="evenodd" d="M73.854 135.757C73.0306 136.435 72.9126 137.653 73.5903 138.477C74.268 139.301 75.4849 139.419 76.3082 138.741C77.1316 138.063 77.2496 136.845 76.5719 136.021C75.8942 135.197 74.6773 135.079 73.854 135.757" fill="white"/>
<path fill-rule="evenodd" clip-rule="evenodd" d="M74.8855 136.583C74.5074 136.895 74.4531 137.454 74.7645 137.833C75.0758 138.211 75.6348 138.266 76.0129 137.954C76.3913 137.642 76.4455 137.083 76.1342 136.704C75.8228 136.326 75.2637 136.272 74.8855 136.583" fill="#000927"/>
<path fill-rule="evenodd" clip-rule="evenodd" d="M78.9331 135.757C78.1097 136.435 77.9917 137.653 78.6694 138.477C79.3471 139.301 80.564 139.419 81.3873 138.741C82.2107 138.063 82.3287 136.845 81.651 136.021C80.9733 135.197 79.7564 135.079 78.9331 135.757" fill="white"/>
<path fill-rule="evenodd" clip-rule="evenodd" d="M79.9646 136.583C79.5865 136.895 79.5322 137.454 79.8436 137.833C80.1549 138.211 80.7139 138.266 81.092 137.954C81.4704 137.642 81.5246 137.083 81.2133 136.704C80.9019 136.326 80.3428 136.272 79.9646 136.583" fill="#000927"/>
<path opacity="0.394764" fill-rule="evenodd" clip-rule="evenodd" d="M119.284 159.585C119.64 158.369 120.419 157.27 121.57 156.531C123.229 155.465 125.247 155.409 126.899 156.208C127.552 156.523 127.59 157.424 126.979 157.815C126.975 157.818 126.97 157.821 126.966 157.824C124.918 159.139 123.982 161.331 124.875 162.718C125.341 163.441 126.211 163.804 127.226 163.799C128.117 163.795 128.496 164.919 127.783 165.453C127.625 165.571 127.46 165.681 127.287 165.784C126.14 166.465 124.825 166.672 123.587 166.459C123.577 168.855 122.448 171.217 120.348 172.697L107.431 181.799C103.99 184.224 99.1935 183.399 96.7712 179.967C94.3489 176.535 95.1818 171.743 98.6223 169.319L111.54 160.217C113.885 158.564 116.86 158.421 119.284 159.585L119.284 159.585Z" fill="#000927"/>
</svg>
