<svg width="264" height="265" viewBox="0 0 264 265" fill="none" xmlns="http://www.w3.org/2000/svg">
<g clip-path="url(#clip0_1357_45444)">
<path d="M262.225 108.953C262.225 108.953 276.985 167.869 221.323 199.001C208.158 206.356 179.193 190.896 155.606 192.431C110.977 195.337 77.1552 212.796 55.1749 202.481C30.5839 190.937 21.5047 179.739 17.7747 171.882C16.7992 169.832 15.4639 167.681 14.4445 165.722C8.08384 153.535 -11.9775 108.309 10.5825 78.6392C29.8043 53.3552 67.6283 53.4793 86.5103 55.3549C93.2585 56.0391 99.8339 58.1804 105.892 61.6667C117.75 68.4521 139.406 80.4781 148.545 83.1398C165.78 88.1644 168.419 87.2772 200.518 71.4907C232.617 55.7043 255.836 56.4352 262.225 108.953Z" fill="#3F51B5" fill-opacity="0.08"/>
<path d="M31.3313 152.694C31.3313 152.694 55.3186 99.2485 82.9039 98.2417C110.489 97.2349 110.09 133.515 117.961 139.059C125.833 144.603 134.177 143.091 140.313 130.996C146.45 118.901 153.419 96.412 166.564 97.4372C179.709 98.4624 194.657 145.629 202.545 145.629C210.432 145.629 224.933 109.647 237.91 110.19C251.347 110.75 260.566 152.791 260.566 152.791L239.797 152.681L31.3313 152.694Z" fill="#A2BDFF"/>
<path d="M77.415 130.385C85.9157 130.385 92.8069 128.224 92.8069 125.558C92.8069 122.893 85.9157 120.731 77.415 120.731C68.9144 120.731 62.0232 122.893 62.0232 125.558C62.0232 128.224 68.9144 130.385 77.415 130.385Z" fill="white"/>
<path d="M141.177 116.309C144.679 116.309 147.517 113.044 147.517 109.018C147.517 104.991 144.679 101.727 141.177 101.727C137.675 101.727 134.836 104.991 134.836 109.018C134.836 113.044 137.675 116.309 141.177 116.309Z" fill="white"/>
<path d="M134.385 115.389C137.182 115.389 139.45 112.782 139.45 109.565C139.45 106.348 137.182 103.74 134.385 103.74C131.587 103.74 129.32 106.348 129.32 109.565C129.32 112.782 131.587 115.389 134.385 115.389Z" fill="white"/>
<path d="M216.853 101.005C220.925 101.005 224.225 97.2096 224.225 92.5278C224.225 87.8461 220.925 84.0508 216.853 84.0508C212.782 84.0508 209.481 87.8461 209.481 92.5278C209.481 97.2096 212.782 101.005 216.853 101.005Z" fill="white"/>
<path d="M224.712 98.5913C227.19 98.5913 229.198 96.282 229.198 93.4333C229.198 90.5847 227.19 88.2754 224.712 88.2754C222.235 88.2754 220.227 90.5847 220.227 93.4333C220.227 96.282 222.235 98.5913 224.712 98.5913Z" fill="white"/>
<path d="M209.229 99.4604C211.706 99.4604 213.714 97.1511 213.714 94.3025C213.714 91.4538 211.706 89.1445 209.229 89.1445C206.751 89.1445 204.743 91.4538 204.743 94.3025C204.743 97.1511 206.751 99.4604 209.229 99.4604Z" fill="white"/>
<path d="M8.54299 157.484L259.986 157.705C259.986 157.705 251.346 188.119 245.309 193.972C239.273 199.824 250.882 227.921 206.298 209.776C161.714 191.632 137.095 210.351 124.082 212.7C111.069 215.049 76.7109 234.357 62.7782 224.993C48.8456 215.629 55.3542 204.508 29.332 203.915C3.30977 203.322 4.71702 173.478 4.71702 173.478L8.54299 157.484Z" fill="#EEEEEE"/>
<path d="M259.982 157.687L8.53965 157.485L6.62866 152.653L261.042 152.704L259.982 157.687Z" fill="white"/>
<path fill-rule="evenodd" clip-rule="evenodd" d="M201.382 141.051C199.484 142.271 195.973 143.731 193.075 140.467C190.087 137.117 187.95 137.186 186.949 137.512C186.65 137.444 186.322 137.598 186.157 137.925L179.867 151.067C179.374 152.098 178.418 152.751 177.387 152.751H156.904C156.5 152.751 156.172 153.129 156.172 153.593C156.172 154.057 156.5 154.434 156.904 154.434H177.387C178.956 154.434 180.39 153.455 181.152 151.875L184.828 144.178C186.202 144.384 188.07 145.089 189.818 147.064C193.194 150.844 197.153 148.714 198.603 147.7C198.961 147.459 199.245 147.099 199.454 146.686L201.919 141.687C202.144 141.275 201.74 140.811 201.382 141.051Z" fill="#577ED9"/>
<path fill-rule="evenodd" clip-rule="evenodd" d="M184.917 113.685L130.833 114.097C129.966 114.097 129.189 114.612 128.831 115.403L111.38 151.91L67.0366 151.944C67.0366 151.944 66.2747 157.064 72.6543 157.373L168.273 157.236L186.949 116.949C187.666 115.42 186.561 113.668 184.917 113.685Z" fill="#577ED9"/>
<path fill-rule="evenodd" clip-rule="evenodd" d="M116.938 151.755L162.611 151.532L176.745 119.87C177.298 118.65 176.566 117.172 175.43 117.19L133.925 117.774L116.938 151.755Z" fill="white"/>
<path fill-rule="evenodd" clip-rule="evenodd" d="M180.446 113.719C182.403 113.699 183.737 115.8 182.917 117.685L182.892 117.742L164.395 157.479C164.278 157.73 164.007 157.824 163.789 157.69C163.578 157.561 163.494 157.266 163.593 157.021L163.605 156.992L182.1 117.258C182.636 116.092 181.788 114.736 180.454 114.75C180.206 114.752 180.004 114.524 180.001 114.239C179.999 113.954 180.198 113.721 180.446 113.719Z" fill="white"/>
<path fill-rule="evenodd" clip-rule="evenodd" d="M119.374 129.885L124.379 140.468C124.633 140.966 125.29 140.76 125.29 140.193L124.961 135.382C124.961 135.382 127.89 146.962 131.909 147.254C135.928 147.546 139.782 135.056 139.782 135.056L138.721 140.296C138.721 140.88 139.379 141.069 139.633 140.571L144.982 129.885" fill="#577ED9"/>
<path fill-rule="evenodd" clip-rule="evenodd" d="M113.113 88.9625C113.113 88.9625 101.175 107.551 102.714 124.181H129.054V88.5674L113.113 88.9625Z" fill="#577ED9"/>
<path fill-rule="evenodd" clip-rule="evenodd" d="M150.644 88.9625C150.644 88.9625 162.581 107.551 161.042 124.181H134.702V88.5674L150.644 88.9625Z" fill="#577ED9"/>
<path fill-rule="evenodd" clip-rule="evenodd" d="M142.62 124.181C152.735 103.274 151.63 86.6778 148.686 75.3047C145.728 63.9317 138.796 51.2529 132.207 51.2529C125.618 51.2529 118.686 63.9317 115.728 75.3047C112.769 86.6778 111.529 103.274 121.644 124.181L118.82 131.191H145.489L142.62 124.181Z" fill="white"/>
<path fill-rule="evenodd" clip-rule="evenodd" d="M132.207 50.7373C128.927 50.7373 125.469 53.6494 122.244 58.709C119.357 63.239 116.831 69.2641 115.298 75.1568C113.549 81.8786 112.807 88.791 113.336 96.2095L113.356 96.4807C114.019 105.256 116.46 114.362 120.973 123.85L121.141 124.202L118.413 130.974C118.276 131.316 118.493 131.706 118.82 131.706H145.489L145.514 131.705C145.828 131.685 146.03 131.304 145.894 130.971L143.123 124.2L143.294 123.844C147.857 114.251 150.326 105.055 150.996 96.212C151.56 88.771 150.844 81.8367 149.116 75.1575C147.583 69.2641 145.057 63.239 142.169 58.709C138.944 53.6494 135.486 50.7373 132.207 50.7373ZM132.206 51.7681C135.131 51.7681 138.372 54.4973 141.445 59.3184C144.27 63.7497 146.751 69.6685 148.256 75.4522C149.953 82.0116 150.656 88.817 150.102 96.1226C149.43 104.999 146.91 114.251 142.227 123.931L142.213 123.962C142.157 124.1 142.157 124.261 142.214 124.401L144.781 130.675H119.52L122.049 124.398C122.11 124.248 122.104 124.075 122.034 123.931C117.356 114.261 114.864 105.014 114.229 96.1251C113.709 88.8417 114.438 82.0565 116.156 75.4522C117.66 69.6685 120.142 63.7497 122.966 59.3184C126.039 54.4973 129.28 51.7681 132.206 51.7681Z" fill="#577ED9"/>
<path fill-rule="evenodd" clip-rule="evenodd" d="M132.207 94.2711C136.365 94.2711 139.737 89.6561 139.737 83.9632C139.737 78.2703 136.365 73.6553 132.207 73.6553C128.048 73.6553 124.677 78.2703 124.677 83.9632C124.677 89.6561 128.048 94.2711 132.207 94.2711Z" fill="#577ED9"/>
<path fill-rule="evenodd" clip-rule="evenodd" d="M132.207 98.9096C132.9 98.9096 133.462 98.1404 133.462 97.1916C133.462 96.2428 132.9 95.4736 132.207 95.4736C131.514 95.4736 130.952 96.2428 130.952 97.1916C130.952 98.1404 131.514 98.9096 132.207 98.9096Z" fill="#577ED9"/>
<path fill-rule="evenodd" clip-rule="evenodd" d="M137.047 98.9096C137.741 98.9096 138.302 98.1404 138.302 97.1916C138.302 96.2428 137.741 95.4736 137.047 95.4736C136.354 95.4736 135.792 96.2428 135.792 97.1916C135.792 98.1404 136.354 98.9096 137.047 98.9096Z" fill="#577ED9"/>
<path fill-rule="evenodd" clip-rule="evenodd" d="M126.993 98.9096C127.686 98.9096 128.248 98.1404 128.248 97.1916C128.248 96.2428 127.686 95.4736 126.993 95.4736C126.3 95.4736 125.738 96.2428 125.738 97.1916C125.738 98.1404 126.3 98.9096 126.993 98.9096Z" fill="#577ED9"/>
<path fill-rule="evenodd" clip-rule="evenodd" d="M132.206 90.7319C135.35 90.7319 137.899 87.2476 137.899 82.9495C137.899 78.6513 135.35 75.167 132.206 75.167C129.062 75.167 126.514 78.6513 126.514 82.9495C126.514 87.2476 129.062 90.7319 132.206 90.7319Z" fill="white"/>
<path fill-rule="evenodd" clip-rule="evenodd" d="M132.205 74.6514C128.795 74.6514 126.065 78.3843 126.065 82.9492C126.065 87.5142 128.795 91.2471 132.205 91.2471C135.616 91.2471 138.346 87.5142 138.346 82.9492C138.346 78.3843 135.616 74.6514 132.205 74.6514ZM132.205 75.6822C135.082 75.6822 137.449 78.9179 137.449 82.9492C137.449 86.9806 135.082 90.2163 132.205 90.2163C129.327 90.2163 126.96 86.9806 126.96 82.9492C126.96 78.9179 129.327 75.6822 132.205 75.6822Z" fill="#577ED9"/>
<path fill-rule="evenodd" clip-rule="evenodd" d="M133.536 50.9606V38.7801C133.536 38.7457 133.536 38.7113 133.536 38.6598C133.73 38.3506 133.849 37.9554 133.849 37.5431C133.849 36.4951 133.117 35.6533 132.206 35.6533C131.295 35.6533 130.562 36.4951 130.562 37.5431C130.562 37.9554 130.682 38.3506 130.876 38.6598C130.876 38.6942 130.876 38.7285 130.876 38.7801V50.9434C128.112 51.5962 125.348 54.2591 122.823 57.8325C125.677 57.0766 129.009 56.6643 132.833 56.9048C136.255 57.1281 139.303 57.6779 141.977 58.4166C139.362 54.5683 136.434 51.6821 133.536 50.9606Z" fill="#577ED9"/>
<path fill-rule="evenodd" clip-rule="evenodd" d="M144.473 64.7384C141.171 63.4671 137.376 62.3504 132.282 62.127C127.082 61.9037 123.138 63.2437 119.896 64.704C118.476 67.7277 117.356 70.717 116.445 73.9296C120.329 71.7477 125.095 69.4456 132.401 69.6003C139.348 69.7377 144.129 71.5072 147.76 73.3626C146.878 70.3562 145.803 67.5902 144.473 64.7384Z" fill="#577ED9"/>
<path fill-rule="evenodd" clip-rule="evenodd" d="M142.232 124.096C142.71 123.099 143.173 122.12 143.606 121.141C141.32 120.075 138.033 119.182 132.192 119.251C126.29 119.199 122.988 120.11 120.702 121.192C121.136 122.154 121.584 123.133 122.047 124.113C122.047 124.113 127.231 122.944 132.177 122.996C137.047 122.944 142.232 124.096 142.232 124.096Z" fill="#577ED9"/>
<path fill-rule="evenodd" clip-rule="evenodd" d="M169.782 151.531H146.296C146.296 151.531 142.919 148.043 144.473 145.192C146.027 142.34 150.106 141.653 151.436 144.539C151.436 144.539 152.018 139.024 156.934 139.454C161.864 139.883 161.476 145.776 161.476 145.776C161.476 145.776 167.706 140.708 167.541 148.628C167.526 148.61 167.915 151.531 169.782 151.531Z" fill="white"/>
<path fill-rule="evenodd" clip-rule="evenodd" d="M146.296 152.047H169.783L169.813 152.046C170.37 152.012 170.37 151.05 169.813 151.017L169.783 151.016C169.159 151.016 168.695 150.591 168.354 149.836C168.226 149.552 168.127 149.244 168.056 148.94C168.035 148.851 168.018 148.767 168.005 148.694L167.993 148.623L167.99 148.606L167.99 148.64C168.069 144.825 166.681 143.293 164.435 143.735C163.803 143.86 163.14 144.135 162.471 144.515L162.351 144.584C162.233 144.654 162.117 144.725 162.005 144.797L161.91 144.858L161.91 144.85C161.901 144.73 161.891 144.606 161.877 144.478C161.801 143.766 161.65 143.063 161.405 142.4C160.678 140.441 159.262 139.167 157.047 138.947L156.968 138.94C154.574 138.731 152.904 139.808 151.878 141.713L151.818 141.826C151.583 142.282 151.398 142.758 151.257 143.238L151.223 143.355L151.183 143.31C149.325 141.282 145.657 142.049 144.094 144.918C143.826 145.41 143.673 145.939 143.63 146.495C143.53 147.773 143.995 149.09 144.819 150.384C145.075 150.786 145.349 151.157 145.623 151.488L145.691 151.571C145.824 151.729 145.93 151.845 145.997 151.915C146.079 152 146.186 152.047 146.296 152.047ZM156.9 139.968C158.813 140.134 159.972 141.163 160.58 142.805C160.79 143.371 160.921 143.981 160.987 144.603C161.029 144.997 161.04 145.345 161.033 145.619L161.031 145.695L161.029 145.737C161.001 146.162 161.407 146.436 161.714 146.213L161.794 146.15L161.898 146.072C161.943 146.038 161.992 146.002 162.045 145.965C162.297 145.786 162.574 145.606 162.868 145.439C163.466 145.1 164.051 144.857 164.586 144.751C165.337 144.604 165.923 144.738 166.331 145.188L166.359 145.22C166.839 145.777 167.109 146.819 167.096 148.427L167.094 148.585L167.093 148.602L167.094 148.663L167.097 148.702L167.1 148.729C167.103 148.752 167.107 148.78 167.112 148.811L167.117 148.843C167.134 148.95 167.159 149.075 167.19 149.208C167.277 149.579 167.398 149.956 167.559 150.311L167.586 150.369C167.681 150.573 167.786 150.763 167.9 150.934L167.956 151.016H146.475L146.437 150.973C146.386 150.914 146.331 150.849 146.273 150.779C146.024 150.477 145.774 150.139 145.542 149.775C144.835 148.664 144.446 147.564 144.523 146.587C144.554 146.192 144.661 145.819 144.854 145.465C146.282 142.843 149.86 142.385 151.006 144.709L151.04 144.78C151.241 145.217 151.804 145.107 151.877 144.631L151.886 144.561C151.89 144.527 151.898 144.479 151.908 144.417C151.935 144.257 151.972 144.077 152.02 143.883C152.159 143.327 152.362 142.771 152.64 142.256C153.497 140.665 154.855 139.789 156.9 139.968Z" fill="#577ED9"/>
<path fill-rule="evenodd" clip-rule="evenodd" d="M95.0051 151.583H118.492C118.492 151.583 121.868 148.095 120.314 145.243C118.761 142.392 114.682 141.704 113.352 144.591C113.352 144.591 112.769 139.076 107.854 139.505C102.924 139.935 103.312 145.827 103.312 145.827C103.312 145.827 97.0819 140.759 97.2462 148.679C97.2611 148.662 96.8727 151.566 95.0051 151.583Z" fill="white"/>
<path fill-rule="evenodd" clip-rule="evenodd" d="M95.0041 152.098H118.491C118.601 152.098 118.708 152.051 118.79 151.966L118.827 151.928C118.906 151.843 119.022 151.712 119.164 151.54C119.438 151.208 119.712 150.838 119.968 150.436C120.792 149.142 121.257 147.825 121.157 146.547C121.114 145.991 120.961 145.462 120.693 144.97L120.639 144.873C119.047 142.083 115.441 141.357 113.604 143.362L113.564 143.407L113.53 143.289C113.377 142.769 113.173 142.254 112.909 141.765C111.895 139.882 110.251 138.807 107.901 138.985L107.819 138.992C105.559 139.188 104.118 140.469 103.382 142.452C103.137 143.115 102.986 143.818 102.91 144.53L102.9 144.625C102.894 144.688 102.889 144.75 102.884 144.811L102.877 144.91L102.782 144.849C102.632 144.753 102.477 144.658 102.316 144.567C101.647 144.187 100.984 143.911 100.352 143.787L100.285 143.774C98.1002 143.38 96.7463 144.884 96.7952 148.578L96.7964 148.657L96.7894 148.703C96.7761 148.783 96.7564 148.882 96.7313 148.989C96.6603 149.291 96.561 149.598 96.4331 149.88L96.4072 149.936C96.0767 150.638 95.6341 151.041 95.0472 151.066L95.0005 151.068C94.4053 151.073 94.4089 152.098 95.0041 152.098ZM112.147 142.308C112.425 142.823 112.628 143.379 112.767 143.935C112.815 144.129 112.852 144.309 112.879 144.469L112.899 144.595L112.906 144.653C112.958 145.144 113.518 145.273 113.734 144.859L113.747 144.832C114.855 142.427 118.49 142.868 119.933 145.517C120.126 145.87 120.233 146.243 120.264 146.639C120.341 147.616 119.952 148.716 119.245 149.827C119.013 150.191 118.763 150.529 118.514 150.831L118.471 150.882L118.389 150.979C118.362 151.01 118.336 151.039 118.312 151.067L96.8252 151.067L96.8288 151.063C96.9772 150.853 97.1102 150.617 97.228 150.356C97.3883 150.002 97.5097 149.627 97.5965 149.258C97.6276 149.125 97.6524 149.001 97.67 148.895L97.6796 148.833C97.6824 148.814 97.6848 148.797 97.6867 148.781L97.6897 148.754L97.6928 148.715L97.6934 148.656L97.6925 148.636L97.6904 148.479C97.6777 146.84 97.9581 145.789 98.4558 145.24C98.864 144.789 99.45 144.655 100.201 144.803C100.736 144.908 101.321 145.151 101.919 145.491C102.213 145.658 102.49 145.837 102.742 146.016L102.842 146.089C102.858 146.101 102.874 146.112 102.889 146.123L102.993 146.202L103.052 146.248C103.355 146.495 103.768 146.236 103.759 145.817L103.755 145.728C103.745 145.446 103.755 145.077 103.8 144.655C103.866 144.033 103.997 143.423 104.207 142.856C104.807 141.238 105.942 140.214 107.809 140.027L107.887 140.019C109.932 139.841 111.29 140.717 112.147 142.308Z" fill="#577ED9"/>
</g>
<defs>
<clipPath id="clip0_1357_45444">
<rect width="264" height="264" fill="white" transform="translate(0 0.5)"/>
</clipPath>
</defs>
</svg>
