<svg width="310" height="310" viewBox="0 0 310 310" fill="none" xmlns="http://www.w3.org/2000/svg">
<path d="M307.916 127.35C307.916 127.35 325.248 196.532 259.887 233.088C244.428 241.725 210.416 223.571 182.719 225.374C130.314 228.786 90.599 249.288 64.7888 237.174C35.913 223.62 25.2519 210.47 20.8719 201.244C19.7265 198.837 18.1585 196.311 16.9614 194.011C9.49249 179.701 -14.0644 126.594 12.4265 91.7545C34.9976 62.0649 79.4121 62.2107 101.584 64.4131C109.508 65.2165 117.229 67.7309 124.343 71.8247C138.267 79.7923 163.697 93.9138 174.428 97.0393C194.666 102.939 197.765 101.898 235.457 83.3605C273.149 64.8234 300.414 65.6817 307.916 127.35Z" fill="#3F51B5" fill-opacity="0.08"/>
<path d="M36.7906 178.713C36.7906 178.713 64.9575 115.955 97.3494 114.773C129.741 113.59 129.272 156.192 138.515 162.702C147.759 169.213 157.556 167.437 164.762 153.234C171.968 139.032 180.151 112.624 195.586 113.828C211.022 115.032 228.574 170.416 237.836 170.416C247.099 170.416 264.126 128.165 279.364 128.802C295.142 129.461 305.967 178.827 305.967 178.827L281.58 178.697L36.7906 178.713Z" fill="#A2BDFF"/>
<path d="M90.904 152.516C100.886 152.516 108.978 149.978 108.978 146.848C108.978 143.717 100.886 141.18 90.904 141.18C80.9221 141.18 72.8302 143.717 72.8302 146.848C72.8302 149.978 80.9221 152.516 90.904 152.516Z" fill="white"/>
<path d="M165.776 135.987C169.888 135.987 173.221 132.154 173.221 127.426C173.221 122.697 169.888 118.864 165.776 118.864C161.664 118.864 158.33 122.697 158.33 127.426C158.33 132.154 161.664 135.987 165.776 135.987Z" fill="white"/>
<path d="M157.8 134.907C161.085 134.907 163.748 131.845 163.748 128.068C163.748 124.291 161.085 121.229 157.8 121.229C154.515 121.229 151.852 124.291 151.852 128.068C151.852 131.845 154.515 134.907 157.8 134.907Z" fill="white"/>
<path d="M254.638 118.017C259.419 118.017 263.295 113.56 263.295 108.063C263.295 102.565 259.419 98.1084 254.638 98.1084C249.857 98.1084 245.981 102.565 245.981 108.063C245.981 113.56 249.857 118.017 254.638 118.017Z" fill="white"/>
<path d="M263.867 115.182C266.776 115.182 269.134 112.47 269.134 109.125C269.134 105.78 266.776 103.068 263.867 103.068C260.958 103.068 258.6 105.78 258.6 109.125C258.6 112.47 260.958 115.182 263.867 115.182Z" fill="white"/>
<path d="M245.685 116.202C248.594 116.202 250.952 113.491 250.952 110.146C250.952 106.801 248.594 104.089 245.685 104.089C242.776 104.089 240.418 106.801 240.418 110.146C240.418 113.491 242.776 116.202 245.685 116.202Z" fill="white"/>
<path d="M10.0315 184.338L305.286 184.597C305.286 184.597 295.141 220.311 288.053 227.183C280.964 234.054 294.597 267.048 242.244 245.741C189.891 224.435 160.982 246.416 145.702 249.175C130.421 251.933 90.0771 274.605 73.7168 263.609C57.3566 252.613 64.9992 239.555 34.4428 238.859C3.88642 238.162 5.53887 203.118 5.53887 203.118L10.0315 184.338Z" fill="#EEEEEE"/>
<path d="M305.282 184.575L10.0275 184.337L7.78357 178.664L306.526 178.723L305.282 184.575Z" fill="white"/>
<path fill-rule="evenodd" clip-rule="evenodd" d="M236.471 165.043C234.243 166.476 230.12 168.19 226.717 164.357C223.208 160.424 220.699 160.504 219.524 160.888C219.173 160.807 218.787 160.988 218.594 161.372L211.208 176.804C210.629 178.015 209.506 178.781 208.296 178.781H184.243C183.769 178.781 183.383 179.225 183.383 179.77C183.383 180.314 183.769 180.758 184.243 180.758H208.296C210.138 180.758 211.822 179.608 212.717 177.752L217.032 168.715C218.646 168.957 220.839 169.784 222.892 172.104C226.857 176.542 231.506 174.041 233.208 172.85C233.629 172.568 233.962 172.144 234.208 171.66L237.102 165.79C237.366 165.306 236.892 164.761 236.471 165.043Z" fill="#577ED9"/>
<path fill-rule="evenodd" clip-rule="evenodd" d="M217.138 132.907L153.629 133.392C152.612 133.392 151.699 133.997 151.278 134.925L130.787 177.793L78.7173 177.833C78.7173 177.833 77.8226 183.845 85.3138 184.208L197.594 184.047L219.524 136.74C220.366 134.945 219.068 132.887 217.138 132.907Z" fill="#577ED9"/>
<path fill-rule="evenodd" clip-rule="evenodd" d="M137.314 177.611L190.945 177.349L207.541 140.17C208.19 138.737 207.331 137.002 205.997 137.023L157.261 137.709L137.314 177.611Z" fill="white"/>
<path fill-rule="evenodd" clip-rule="evenodd" d="M211.887 132.947C214.186 132.924 215.752 135.391 214.789 137.604L214.759 137.671L193.04 184.332C192.903 184.627 192.584 184.738 192.328 184.58C192.081 184.428 191.982 184.083 192.098 183.794L192.112 183.761L213.83 137.103C214.459 135.734 213.463 134.142 211.896 134.158C211.606 134.161 211.368 133.892 211.365 133.558C211.363 133.224 211.596 132.95 211.887 132.947Z" fill="white"/>
<path fill-rule="evenodd" clip-rule="evenodd" d="M140.174 151.931L146.051 164.357C146.349 164.942 147.121 164.7 147.121 164.035L146.735 158.386C146.735 158.386 150.174 171.983 154.893 172.326C159.612 172.669 164.138 158.003 164.138 158.003L162.893 164.156C162.893 164.842 163.665 165.064 163.963 164.478L170.244 151.931" fill="#577ED9"/>
<path fill-rule="evenodd" clip-rule="evenodd" d="M132.822 103.878C132.822 103.878 118.804 125.706 120.611 145.233H151.541V103.414L132.822 103.878Z" fill="#577ED9"/>
<path fill-rule="evenodd" clip-rule="evenodd" d="M176.892 103.878C176.892 103.878 190.91 125.706 189.103 145.233H158.173V103.414L176.892 103.878Z" fill="#577ED9"/>
<path fill-rule="evenodd" clip-rule="evenodd" d="M167.471 145.233C179.348 120.682 178.05 101.195 174.594 87.8403C171.12 74.4856 162.98 59.5977 155.243 59.5977C147.506 59.5977 139.366 74.4856 135.892 87.8403C132.419 101.195 130.963 120.682 142.84 145.233L139.524 153.464H170.84L167.471 145.233V145.233Z" fill="white"/>
<path fill-rule="evenodd" clip-rule="evenodd" d="M155.243 58.9922C151.392 58.9922 147.331 62.4118 143.544 68.3529C140.154 73.6722 137.188 80.7471 135.388 87.6666C133.335 95.5596 132.462 103.676 133.085 112.388L133.108 112.706C133.886 123.01 136.752 133.702 142.052 144.845L142.249 145.257L139.046 153.209C138.884 153.611 139.139 154.069 139.524 154.069H170.839L170.869 154.068C171.238 154.045 171.475 153.597 171.315 153.206L168.061 145.255L168.262 144.837C173.62 133.573 176.52 122.774 177.306 112.391C177.968 103.653 177.128 95.5104 175.098 87.6674C173.298 80.7471 170.332 73.6722 166.941 68.3529C163.154 62.4118 159.093 58.9922 155.243 58.9922ZM155.242 60.2025C158.677 60.2025 162.483 63.4072 166.091 69.0683C169.408 74.2717 172.322 81.2218 174.088 88.0133C176.081 95.7156 176.907 103.707 176.257 112.285C175.467 122.708 172.509 133.572 167.01 144.939L166.993 144.976C166.927 145.138 166.926 145.327 166.993 145.491L170.009 152.859H140.346L143.316 145.487C143.387 145.312 143.38 145.108 143.298 144.939C137.805 133.584 134.878 122.726 134.133 112.288C133.522 103.736 134.378 95.7684 136.395 88.0133C138.162 81.2218 141.075 74.2717 144.392 69.0683C148 63.4072 151.806 60.2025 155.242 60.2025Z" fill="#577ED9"/>
<path fill-rule="evenodd" clip-rule="evenodd" d="M155.243 110.111C160.126 110.111 164.085 104.692 164.085 98.0073C164.085 91.3225 160.126 85.9033 155.243 85.9033C150.359 85.9033 146.401 91.3225 146.401 98.0073C146.401 104.692 150.359 110.111 155.243 110.111Z" fill="#577ED9"/>
<path fill-rule="evenodd" clip-rule="evenodd" d="M155.243 115.558C156.057 115.558 156.717 114.655 156.717 113.541C156.717 112.427 156.057 111.523 155.243 111.523C154.429 111.523 153.769 112.427 153.769 113.541C153.769 114.655 154.429 115.558 155.243 115.558Z" fill="#577ED9"/>
<path fill-rule="evenodd" clip-rule="evenodd" d="M160.927 115.558C161.741 115.558 162.401 114.655 162.401 113.541C162.401 112.427 161.741 111.523 160.927 111.523C160.113 111.523 159.453 112.427 159.453 113.541C159.453 114.655 160.113 115.558 160.927 115.558Z" fill="#577ED9"/>
<path fill-rule="evenodd" clip-rule="evenodd" d="M149.12 115.558C149.934 115.558 150.594 114.655 150.594 113.541C150.594 112.427 149.934 111.523 149.12 111.523C148.306 111.523 147.647 112.427 147.647 113.541C147.647 114.655 148.306 115.558 149.12 115.558Z" fill="#577ED9"/>
<path fill-rule="evenodd" clip-rule="evenodd" d="M155.242 105.956C158.934 105.956 161.927 101.864 161.927 96.8172C161.927 91.7702 158.934 87.6787 155.242 87.6787C151.551 87.6787 148.558 91.7702 148.558 96.8172C148.558 101.864 151.551 105.956 155.242 105.956Z" fill="white"/>
<path fill-rule="evenodd" clip-rule="evenodd" d="M155.241 87.0742C151.237 87.0742 148.031 91.4576 148.031 96.8179C148.031 102.178 151.237 106.562 155.241 106.562C159.246 106.562 162.452 102.178 162.452 96.8179C162.452 91.4576 159.246 87.0742 155.241 87.0742ZM155.24 88.2843C158.619 88.2843 161.398 92.0838 161.398 96.8176C161.398 101.551 158.619 105.351 155.24 105.351C151.862 105.351 149.083 101.551 149.083 96.8176C149.083 92.0838 151.862 88.2843 155.24 88.2843Z" fill="#577ED9"/>
<path fill-rule="evenodd" clip-rule="evenodd" d="M156.803 59.2547V44.9518C156.803 44.9115 156.803 44.8711 156.803 44.8106C157.031 44.4475 157.172 43.9835 157.172 43.4993C157.172 42.2688 156.312 41.2803 155.242 41.2803C154.172 41.2803 153.312 42.2688 153.312 43.4993C153.312 43.9835 153.452 44.4475 153.68 44.8106C153.68 44.851 153.68 44.8913 153.68 44.9518V59.2345C150.435 60.0011 147.189 63.128 144.224 67.324C147.575 66.4364 151.487 65.9522 155.979 66.2347C159.996 66.4969 163.575 67.1425 166.715 68.0099C163.645 63.4911 160.207 60.102 156.803 59.2547Z" fill="#577ED9"/>
<path fill-rule="evenodd" clip-rule="evenodd" d="M169.646 75.434C165.769 73.9411 161.313 72.6299 155.331 72.3676C149.226 72.1054 144.594 73.6789 140.787 75.3936C139.12 78.9441 137.805 82.4543 136.734 86.2267C141.296 83.6647 146.892 80.9614 155.471 81.143C163.629 81.3044 169.243 83.3822 173.506 85.561C172.471 82.0306 171.208 78.7827 169.646 75.434Z" fill="#577ED9"/>
<path fill-rule="evenodd" clip-rule="evenodd" d="M167.014 145.133C167.576 143.963 168.12 142.813 168.628 141.663C165.944 140.412 162.085 139.363 155.225 139.444C148.295 139.383 144.418 140.452 141.734 141.723C142.243 142.853 142.769 144.003 143.313 145.153C143.313 145.153 149.401 143.781 155.207 143.842C160.927 143.781 167.014 145.133 167.014 145.133Z" fill="#577ED9"/>
<path fill-rule="evenodd" clip-rule="evenodd" d="M199.366 177.348H171.787C171.787 177.348 167.822 173.252 169.647 169.904C171.471 166.555 176.261 165.748 177.822 169.137C177.822 169.137 178.506 162.661 184.278 163.166C190.068 163.67 189.612 170.589 189.612 170.589C189.612 170.589 196.927 164.638 196.734 173.938C196.717 173.918 197.173 177.348 199.366 177.348Z" fill="white"/>
<path fill-rule="evenodd" clip-rule="evenodd" d="M171.788 177.953H199.366L199.402 177.952C200.056 177.912 200.056 176.783 199.402 176.744L199.366 176.743C198.634 176.743 198.09 176.244 197.689 175.357C197.539 175.024 197.422 174.662 197.339 174.305C197.314 174.2 197.294 174.102 197.279 174.016L197.265 173.932L197.262 173.912L197.261 173.953C197.354 169.473 195.725 167.674 193.087 168.193C192.344 168.339 191.566 168.663 190.78 169.109L190.64 169.19C190.501 169.272 190.365 169.356 190.233 169.44L190.122 169.512L190.121 169.503C190.112 169.362 190.099 169.216 190.083 169.065C189.994 168.23 189.817 167.404 189.528 166.626C188.675 164.325 187.012 162.829 184.412 162.571L184.319 162.562C181.508 162.317 179.546 163.582 178.341 165.819L178.271 165.952C177.996 166.487 177.778 167.046 177.612 167.609L177.573 167.747L177.525 167.694C175.344 165.313 171.037 166.213 169.201 169.583C168.886 170.16 168.707 170.782 168.656 171.434C168.539 172.935 169.085 174.482 170.053 176.001C170.354 176.473 170.675 176.908 170.996 177.298L171.077 177.394C171.233 177.58 171.357 177.717 171.436 177.798C171.533 177.898 171.658 177.953 171.788 177.953ZM184.239 163.769C186.486 163.965 187.846 165.173 188.56 167.1C188.807 167.765 188.961 168.482 189.038 169.212C189.087 169.675 189.101 170.083 189.093 170.405L189.09 170.494L189.087 170.544C189.054 171.043 189.531 171.365 189.892 171.102L189.985 171.029L190.108 170.937C190.161 170.897 190.219 170.855 190.28 170.811C190.576 170.601 190.902 170.39 191.247 170.194C191.949 169.795 192.636 169.51 193.264 169.386C194.146 169.213 194.834 169.37 195.313 169.899L195.346 169.936C195.91 170.591 196.227 171.814 196.212 173.703L196.209 173.888L196.208 173.908L196.209 173.98L196.213 174.025L196.216 174.057C196.22 174.085 196.224 174.118 196.23 174.154L196.236 174.191C196.257 174.317 196.286 174.463 196.322 174.62C196.424 175.055 196.566 175.497 196.755 175.914L196.786 175.983C196.898 176.223 197.021 176.445 197.156 176.647L197.221 176.742H171.998L171.953 176.692C171.893 176.623 171.828 176.547 171.76 176.464C171.468 176.11 171.175 175.713 170.902 175.285C170.071 173.981 169.615 172.689 169.705 171.542C169.741 171.078 169.867 170.64 170.093 170.225C171.771 167.146 175.972 166.607 177.318 169.337L177.358 169.42C177.594 169.933 178.255 169.804 178.341 169.245L178.351 169.163C178.356 169.123 178.365 169.066 178.377 168.994C178.408 168.806 178.452 168.595 178.509 168.367C178.672 167.714 178.911 167.061 179.236 166.456C180.242 164.588 181.838 163.559 184.239 163.769Z" fill="#577ED9"/>
<path fill-rule="evenodd" clip-rule="evenodd" d="M111.559 177.408H139.138C139.138 177.408 143.103 173.313 141.278 169.964C139.454 166.615 134.664 165.808 133.103 169.198C133.103 169.198 132.419 162.722 126.647 163.226C120.858 163.731 121.314 170.65 121.314 170.65C121.314 170.65 113.998 164.699 114.191 173.999C114.208 173.979 113.752 177.388 111.559 177.408Z" fill="white"/>
<path fill-rule="evenodd" clip-rule="evenodd" d="M111.558 178.014H139.137C139.267 178.014 139.392 177.958 139.489 177.859L139.532 177.813C139.625 177.714 139.761 177.56 139.928 177.358C140.25 176.968 140.571 176.533 140.872 176.061C141.84 174.542 142.386 172.996 142.268 171.494C142.217 170.842 142.038 170.221 141.723 169.643L141.66 169.529C139.79 166.254 135.556 165.4 133.399 167.755L133.352 167.808L133.312 167.67C133.132 167.059 132.892 166.454 132.583 165.879C131.392 163.668 129.461 162.407 126.703 162.615L126.606 162.623C123.952 162.854 122.259 164.358 121.396 166.687C121.108 167.465 120.93 168.29 120.842 169.126L120.83 169.238C120.823 169.312 120.817 169.385 120.811 169.457L120.802 169.572L120.692 169.501C120.516 169.388 120.333 169.277 120.144 169.17C119.358 168.723 118.58 168.4 117.838 168.254L117.759 168.239C115.194 167.776 113.604 169.542 113.661 173.88L113.663 173.973L113.654 174.026C113.639 174.121 113.616 174.237 113.586 174.362C113.503 174.717 113.386 175.077 113.236 175.409L113.206 175.475C112.818 176.298 112.298 176.772 111.609 176.802L111.554 176.803C110.855 176.81 110.859 178.014 111.558 178.014ZM131.688 166.517C132.014 167.122 132.252 167.774 132.416 168.427C132.473 168.655 132.516 168.866 132.547 169.054L132.57 169.202L132.579 169.271C132.64 169.847 133.298 169.998 133.551 169.512L133.567 169.481C134.868 166.657 139.136 167.175 140.831 170.285C141.057 170.7 141.183 171.138 141.22 171.603C141.31 172.75 140.853 174.042 140.022 175.346C139.75 175.773 139.457 176.17 139.164 176.525L139.114 176.585L139.017 176.699C138.986 176.735 138.956 176.77 138.927 176.803L113.696 176.803L113.701 176.797C113.875 176.551 114.031 176.273 114.169 175.968C114.358 175.552 114.5 175.111 114.602 174.678C114.639 174.522 114.668 174.377 114.688 174.252L114.7 174.179C114.703 174.157 114.706 174.136 114.708 174.118L114.712 174.086L114.715 174.041L114.716 173.972L114.715 173.947L114.712 173.763C114.698 171.838 115.027 170.605 115.611 169.96C116.091 169.431 116.779 169.273 117.66 169.447C118.289 169.57 118.976 169.856 119.678 170.255C120.023 170.451 120.349 170.661 120.644 170.872L120.762 170.957C120.781 170.971 120.799 170.984 120.817 170.997L120.939 171.09L121.008 171.144C121.364 171.433 121.849 171.129 121.838 170.638L121.834 170.534C121.822 170.202 121.834 169.768 121.886 169.273C121.964 168.543 122.118 167.826 122.364 167.161C123.069 165.26 124.402 164.059 126.594 163.838L126.685 163.83C129.086 163.62 130.682 164.649 131.688 166.517Z" fill="#577ED9"/>
</svg>
