<svg width="266" height="165" viewBox="0 0 266 165" fill="none" xmlns="http://www.w3.org/2000/svg">
<path d="M257.803 66.0142C257.803 66.0142 271.764 110.491 219.114 133.993C206.662 139.545 187.18 129.644 164.87 130.804C122.657 132.997 82.7504 144.408 61.9598 136.62C36.7095 131.683 30.1121 119.452 26.584 113.521C25.6613 111.973 24.3983 110.349 23.434 108.87C17.4177 99.6703 -1.55782 65.5283 19.7811 43.1302C37.9625 24.0429 73.7391 24.1366 91.5991 25.5525C97.982 26.069 104.202 27.6855 109.932 30.3174C121.148 35.4397 141.632 44.5184 150.276 46.5277C166.578 50.3209 169.074 49.6511 199.436 37.7337C229.797 25.8163 251.76 26.368 257.803 66.0142Z" fill="#EBECF4"/>
<path d="M108.815 82.8293H2.997C2.997 82.8293 -1.64123 75.5517 2.99693 70.9928C7.87468 66.1983 23.6261 67.611 23.6261 67.611C23.6261 67.611 25.6115 61.0597 28.6988 58.4801C33.5897 54.3934 44.5608 57.8037 44.5608 57.8037C44.5608 57.8037 46.8984 48.6729 57.4441 48.6729C65.2222 48.6728 68.2335 56.7892 68.2335 56.7892C68.2335 56.7892 78.1722 53.4184 83.484 55.7748C89.4043 58.4012 93.9676 68.6257 93.9676 68.6257C93.9676 68.6257 100.004 68.6037 103.437 69.9782C109.308 72.329 108.815 82.8293 108.815 82.8293Z" fill="white"/>
<path d="M157.185 106.502H263.003C263.003 106.502 267.641 99.2246 263.003 94.6656C258.125 89.8712 242.374 91.2838 242.374 91.2838C242.374 91.2838 240.389 84.7326 237.301 82.1529C232.41 78.0662 221.439 81.4766 221.439 81.4766C221.439 81.4766 219.102 72.3458 208.556 72.3457C200.778 72.3456 197.767 80.462 197.767 80.462C197.767 80.462 187.828 77.0913 182.516 79.4477C176.596 82.074 172.032 92.2985 172.032 92.2985C172.032 92.2985 165.996 92.2765 162.563 93.6511C156.692 96.0019 157.185 106.502 157.185 106.502Z" fill="white"/>
<path fill-rule="evenodd" clip-rule="evenodd" d="M194.947 85.4393V104.667C194.947 110.754 193.699 110.754 184.23 110.754H90.6667C88.5566 110.754 86.834 109.029 86.834 106.916V47.1C86.834 44.9868 88.5566 43.2617 90.6667 43.2617H191.114C193.224 43.2617 194.947 44.9868 194.947 47.1V85.4393ZM192.882 49.5995C192.664 49.3172 192.258 49.2657 191.976 49.4846L142.646 87.7808L142.588 87.8247C141.643 88.5264 140.409 88.5118 139.478 87.7825L119.58 72.3356C119.552 72.3088 119.521 72.285 119.489 72.2644L90.1456 49.4846L90.1125 49.4605C89.8327 49.27 89.4495 49.328 89.2393 49.5995C89.0207 49.8819 89.0721 50.2882 89.354 50.5071L118.156 72.8666L87.7059 102.513L87.6764 102.543C87.45 102.794 87.4543 103.182 87.693 103.428C87.9417 103.684 88.3507 103.69 88.6065 103.44L119.187 73.6672L138.684 88.8034L138.752 88.8553C140.161 89.9117 142.044 89.8943 143.44 88.8017L163.075 73.5585L193.767 103.441C194.022 103.69 194.431 103.684 194.68 103.428C194.919 103.182 194.923 102.794 194.697 102.544L194.667 102.513L164.106 72.758L192.768 50.5071L192.799 50.4811C193.053 50.2572 193.092 49.871 192.882 49.5995Z" fill="#A2BDFF"/>
<path d="M55.7309 124.764H161.549C161.549 124.764 166.187 117.486 161.549 112.927C156.671 108.133 140.92 109.546 140.92 109.546C140.92 109.546 138.934 102.994 135.847 100.415C130.956 96.328 119.985 99.7383 119.985 99.7383C119.985 99.7383 117.647 90.6075 107.102 90.6074C99.3237 90.6074 96.3124 98.7238 96.3124 98.7238C96.3124 98.7238 86.3737 95.353 81.0619 97.7094C75.1416 100.336 70.5783 110.56 70.5783 110.56C70.5783 110.56 64.5422 110.538 61.1093 111.913C55.2383 114.264 55.7309 124.764 55.7309 124.764Z" fill="white"/>
<circle cx="184.568" cy="105.825" r="17.2472" fill="#EEEEEE"/>
<path fill-rule="evenodd" clip-rule="evenodd" d="M182.854 125.626C194.047 126.536 203.859 118.199 204.769 107.005C205.678 95.812 197.342 86.0004 186.148 85.0906C174.955 84.1809 165.143 92.5174 164.234 103.711C163.324 114.904 171.66 124.716 182.854 125.626ZM180.207 120.816C188.776 123.093 197.6 117.966 199.88 109.385C200.774 106.022 200.527 102.611 199.364 99.5852L185.459 112.668C184.967 113.115 184.288 113.308 183.63 113.167L183.551 113.146C182.933 112.982 182.443 112.529 182.194 111.936L177.794 101.053C177.377 100.008 177.88 98.8175 178.923 98.3987C179.967 97.9799 181.157 98.4827 181.574 99.5276L184.858 107.652L197.389 95.8508C195.298 92.9346 192.215 90.6889 188.477 89.6955C179.908 87.4184 171.085 92.5456 168.804 101.127C166.524 109.708 171.638 118.539 180.207 120.816Z" fill="#577ED9"/>
<path d="M209.993 90.3858C207.219 92.743 199.493 98.8293 199.493 98.8293L197.948 95.6047C197.948 95.6047 204.925 89.1991 207.144 87.3135C209.363 85.4279 212.767 88.0286 209.993 90.3858Z" fill="#577ED9"/>
</svg>
