<svg width="350" height="151" viewBox="0 0 350 151" fill="none" xmlns="http://www.w3.org/2000/svg">
<path d="M339.905 54.1808C339.905 54.1808 358.352 112.936 288.785 143.982C272.331 151.318 246.59 138.238 217.11 139.769C161.333 142.667 108.604 157.741 81.1327 147.453C47.7688 140.931 39.0516 124.773 34.3898 116.938C33.1706 114.894 31.5018 112.748 30.2276 110.795C22.2781 98.6415 -2.79469 53.539 25.4009 23.9505C49.4244 -1.2644 96.697 -1.14062 120.296 0.729865C128.73 1.41214 136.948 3.54765 144.519 7.02442C159.339 13.7912 186.405 25.7843 197.827 28.4387C219.368 33.4496 222.665 32.5648 262.783 16.8215C302.9 1.07829 331.92 1.80722 339.905 54.1808Z" fill="#EBECF4"/>
<path d="M143.044 76.394H3.22385C3.22385 76.394 -2.90476 66.7802 3.22376 60.7577C9.66885 54.4241 30.4816 56.2902 30.4816 56.2902C30.4816 56.2902 33.1049 47.6359 37.1842 44.2281C43.6467 38.8295 58.1432 43.3346 58.1432 43.3346C58.1432 43.3346 61.2319 31.2726 75.1661 31.2725C85.4436 31.2724 89.4224 41.9944 89.4224 41.9944C89.4224 41.9944 102.555 37.5415 109.573 40.6543C117.396 44.1238 123.425 57.6307 123.425 57.6307C123.425 57.6307 131.401 57.6016 135.937 59.4174C143.695 62.5229 143.044 76.394 143.044 76.394Z" fill="white"/>
<path d="M206.956 107.665H346.776C346.776 107.665 352.905 98.0517 346.776 92.0292C340.331 85.6956 319.518 87.5617 319.518 87.5617C319.518 87.5617 316.895 78.9074 312.816 75.4996C306.353 70.1009 291.857 74.6061 291.857 74.6061C291.857 74.6061 288.768 62.544 274.834 62.5439C264.556 62.5439 260.578 73.2658 260.578 73.2658C260.578 73.2658 247.445 68.813 240.427 71.9258C232.604 75.3953 226.575 88.9021 226.575 88.9021C226.575 88.9021 218.599 88.8731 214.063 90.6889C206.305 93.7944 206.956 107.665 206.956 107.665Z" fill="white"/>
<path fill-rule="evenodd" clip-rule="evenodd" d="M256.851 79.8418V105.242C256.851 113.284 255.202 113.284 242.69 113.284H119.063C116.275 113.284 113.999 111.005 113.999 108.213V29.1944C113.999 26.4029 116.275 24.124 119.063 24.124H251.786C254.575 24.124 256.851 26.4029 256.851 29.1944V79.8418ZM254.123 32.4976C253.834 32.1246 253.298 32.0566 252.925 32.3458L187.744 82.9361L187.668 82.9941C186.419 83.921 184.789 83.9017 183.558 82.9383L157.269 62.5337C157.23 62.4975 157.189 62.4657 157.145 62.4381L118.374 32.3458L118.331 32.314C117.961 32.0623 117.454 32.1389 117.177 32.4976C116.888 32.8706 116.956 33.4074 117.328 33.6966L155.385 63.2344L115.151 102.398L115.112 102.438C114.813 102.77 114.819 103.281 115.134 103.606C115.463 103.945 116.003 103.952 116.341 103.623L156.748 64.2919L182.509 84.2869L182.599 84.3556C184.461 85.7511 186.949 85.7281 188.793 84.2848L214.737 64.1481L255.291 103.623C255.629 103.952 256.17 103.945 256.498 103.606C256.814 103.281 256.819 102.77 256.52 102.438L256.481 102.398L216.1 63.0906L253.971 33.6966L254.013 33.6621C254.348 33.3664 254.401 32.8563 254.123 32.4976Z" fill="#A2BDFF"/>
<path d="M72.9025 131.79H212.722C212.722 131.79 218.851 122.177 212.723 116.154C206.277 109.821 185.465 111.687 185.465 111.687C185.465 111.687 182.841 103.032 178.762 99.6246C172.3 94.2259 157.803 98.7311 157.803 98.7311C157.803 98.7311 154.714 86.669 140.78 86.6689C130.503 86.6689 126.524 97.3908 126.524 97.3908C126.524 97.3908 113.392 92.938 106.373 96.0508C98.5504 99.5203 92.5208 113.027 92.5208 113.027C92.5208 113.027 84.5451 112.998 80.0091 114.814C72.2517 117.919 72.9025 131.79 72.9025 131.79Z" fill="white"/>
<ellipse cx="243.138" cy="106.772" rx="22.7892" ry="22.784" fill="#EEEEEE"/>
<path fill-rule="evenodd" clip-rule="evenodd" d="M240.877 132.933C255.667 134.136 268.63 123.124 269.831 108.337C271.032 93.5496 260.016 80.5872 245.226 79.3842C230.436 78.1813 217.472 89.1932 216.271 103.98C215.07 118.767 226.087 131.73 240.877 132.933ZM237.376 126.577C248.698 129.585 260.357 122.812 263.37 111.476C264.551 107.034 264.225 102.528 262.688 98.5301L244.315 115.813C243.665 116.403 242.768 116.658 241.899 116.472L241.794 116.444C240.978 116.227 240.331 115.629 240.001 114.846L234.188 100.47C233.636 99.0892 234.3 97.516 235.68 96.9627C237.059 96.4094 238.63 97.0736 239.182 98.454L243.522 109.186L260.079 93.5968C257.316 89.7445 253.242 86.7778 248.303 85.4655C236.981 82.4574 225.322 89.2305 222.309 100.566C219.296 111.902 226.054 123.569 237.376 126.577Z" fill="#577ED9"/>
<path d="M276.733 86.3767C273.067 89.4906 262.859 97.5308 262.859 97.5308L260.817 93.271C260.817 93.271 270.035 84.809 272.968 82.3181C275.9 79.8272 280.398 83.2627 276.733 86.3767Z" fill="#577ED9"/>
</svg>
