<svg width="194" height="194" viewBox="0 0 194 194" fill="none" xmlns="http://www.w3.org/2000/svg">
<path d="M124.104 31.7486C124.104 31.7486 103.353 58.0321 70.1521 42.3539C36.9511 26.6757 3.75055 69.0988 32.3398 94.9212C60.9291 120.743 32.9524 134.933 52.3754 150.758C74.4509 168.745 93.6697 132.271 111.192 140.571C149.866 158.89 178.516 151.638 172.061 130.427C160.729 93.1934 146.238 90.7716 157.305 71.4044C168.372 52.0372 143.947 11.7693 124.104 31.7486Z" fill="#EFEFEF"/>
<path fill-rule="evenodd" clip-rule="evenodd" d="M145.634 163.209H51.2715C51.7074 151.974 58.584 147.173 69.0712 146.908C75.9937 128.082 91.1616 147.289 92.2534 132.398C93.5362 114.886 93.9051 94.246 93.9051 94.246L102.848 94.3946C102.848 94.3946 103.594 105.445 105.144 127.957C106.242 143.903 117.436 129.114 132.139 138.778C139.561 143.656 139.23 155.458 139.23 155.458C139.23 155.458 145.634 155.779 145.634 163.209" fill="#B5B8BC"/>
<path fill-rule="evenodd" clip-rule="evenodd" d="M83.6933 163.209H60.5479C61.5547 158.227 65.8532 154.592 70.9164 154.094C71.8874 154.002 72.8852 154.021 73.8943 154.168C74.475 154.254 75.0401 154.377 75.5872 154.539C77.0874 154.981 78.4462 155.697 79.6077 156.62C81.7043 158.279 83.1663 160.608 83.6933 163.209" fill="#D7DADD"/>
<path fill-rule="evenodd" clip-rule="evenodd" d="M135.135 163.209H122.609C123.123 160.916 124.758 159.059 126.908 158.354C127.415 158.188 127.951 158.084 128.509 158.056C128.83 158.039 129.148 158.048 129.457 158.08C132.186 158.358 134.467 160.433 135.135 163.209" fill="#D7DADD"/>
<path fill-rule="evenodd" clip-rule="evenodd" d="M114.77 163.209H78.9774C78.8295 161.79 78.8631 160.332 79.0963 158.859C79.2174 158.093 79.39 157.345 79.6075 156.62C82.0831 148.411 90.5614 143.036 99.5845 144.356C101.717 144.668 103.704 145.329 105.493 146.269C111.698 149.521 115.525 156.13 114.77 163.209" fill="#D7DADD"/>
<path fill-rule="evenodd" clip-rule="evenodd" d="M86.3507 130.562C86.0572 132.417 84.2555 133.692 82.3266 133.41C80.3976 133.128 79.0719 131.395 79.3654 129.539C79.6589 127.684 81.4604 126.408 83.3895 126.691C85.3184 126.973 86.6442 128.706 86.3507 130.562" fill="#D7DADD"/>
<path fill-rule="evenodd" clip-rule="evenodd" d="M112.002 131.206C111.881 131.972 111.137 132.498 110.341 132.382C109.545 132.265 108.998 131.55 109.119 130.784C109.24 130.018 109.984 129.492 110.78 129.608C111.576 129.725 112.123 130.44 112.002 131.206" fill="#D7DADD"/>
<path fill-rule="evenodd" clip-rule="evenodd" d="M153.944 154.525C153.664 156.292 151.948 157.506 150.111 157.237C148.274 156.968 147.011 155.318 147.291 153.551C147.57 151.784 149.286 150.569 151.123 150.838C152.96 151.107 154.223 152.757 153.944 154.525" fill="#D7DADD"/>
<path fill-rule="evenodd" clip-rule="evenodd" d="M88.0436 87.6017H109.409C110.648 87.6017 111.651 86.6358 111.651 85.4447C111.651 84.2534 110.648 83.2878 109.409 83.2878H88.0436C86.8052 83.2878 85.8013 84.2534 85.8013 85.4447C85.8013 86.6358 86.8052 87.6017 88.0436 87.6017ZM92.7929 96.6949H104.66L109.145 87.6017H88.3082L92.7929 96.6949Z" fill="#6CA1FF"/>
<path opacity="0.402158" fill-rule="evenodd" clip-rule="evenodd" d="M104.622 96.6948H92.7547L88.27 87.6016H109.106L104.622 96.6948Z" fill="black"/>
<path d="M79.8994 111.767C81.6396 112.694 82.9189 114.429 83.1763 116.503C83.2048 116.732 83.2205 116.96 83.2243 117.185C83.2411 118.205 81.9594 118.652 81.3394 117.843C80.6319 116.92 79.6949 116.388 78.715 116.475C76.8348 116.642 75.5095 119.028 75.7544 121.804C75.7548 121.81 75.7553 121.816 75.756 121.822C75.8309 122.649 74.9891 123.247 74.2471 122.879C72.3676 121.945 71.0033 120.081 70.8049 117.831C70.5674 115.14 72.07 112.697 74.3798 111.62V67.7273C72.4253 66.6726 71.0968 64.6017 71.0968 62.2196C71.0968 59.6291 72.6679 57.4067 74.9065 56.4589C75.7172 54.8665 77.3704 53.7697 79.2664 53.7697H118.026C119.754 53.7697 121.279 54.6797 122.15 56.0454C125.002 55.594 127.876 57.1888 128.941 60.004C130.09 63.0419 128.723 66.4181 125.875 67.8251V112.117C127.935 113.328 129.199 115.679 128.911 118.211C128.655 120.455 127.244 122.284 125.341 123.169C124.589 123.518 123.764 122.899 123.859 122.074C123.86 122.068 123.861 122.062 123.862 122.056C124.177 119.287 122.913 116.868 121.038 116.653C120.061 116.541 119.11 117.049 118.379 117.953C117.739 118.745 116.469 118.266 116.512 117.246C116.521 117.021 116.543 116.794 116.577 116.566C116.909 114.353 118.403 112.559 120.356 111.741V71.0295C119.662 71.4092 118.868 71.6254 118.026 71.6254H79.8994V111.767V111.767Z" fill="#699CFF"/>
<path fill-rule="evenodd" clip-rule="evenodd" d="M99.2885 66.8122C97.8085 66.8122 96.5977 65.5976 96.5977 64.1131V60.6384C96.5977 59.1539 97.8085 57.9393 99.2885 57.9393H114.173C115.653 57.9393 116.864 59.1539 116.864 60.6384V64.1131C116.864 65.5976 115.653 66.8122 114.173 66.8122H99.2885ZM98.7424 62.3757C98.7424 64.0757 100.116 65.4538 101.811 65.4538C103.506 65.4538 104.879 64.0757 104.879 62.3757C104.879 60.6757 103.506 59.2978 101.811 59.2978C100.116 59.2978 98.7424 60.6757 98.7424 62.3757ZM107.164 62.3757C107.164 64.0757 108.538 65.4538 110.232 65.4538C111.927 65.4538 113.301 64.0757 113.301 62.3757C113.301 60.6757 111.927 59.2978 110.232 59.2978C108.538 59.2978 107.164 60.6757 107.164 62.3757Z" fill="white"/>
<path opacity="0.401228" fill-rule="evenodd" clip-rule="evenodd" d="M120.356 111.647V71.0436C121.012 70.4262 121.451 69.9788 121.672 69.7012C122.012 69.2751 122.304 68.8629 122.48 68.6458C122.526 68.5886 122.58 68.4931 122.591 68.4729C122.601 68.4528 122.599 68.4514 122.618 68.4529C122.814 68.4682 122.95 68.4729 123.115 68.4729C123.498 68.4729 123.964 68.43 124.483 68.3198C124.655 68.2834 124.897 68.2137 125.192 68.1144C125.331 68.0678 125.558 67.9718 125.875 67.8264V111.647H120.356ZM122.15 56.0453C125.002 55.594 127.876 57.1888 128.941 60.0039C130.161 63.2312 128.543 66.8401 125.325 68.0646C124.427 68.4066 123.499 68.5265 122.601 68.4514C122.805 67.9121 122.918 67.328 122.918 66.719V58.6761C122.918 57.71 122.635 56.8068 122.15 56.0453V56.0453ZM75.8296 68.2878C75.8743 68.2978 75.9199 68.3072 75.9667 68.316C76.1406 68.3484 76.3424 68.3909 76.5717 68.424C76.8195 68.4541 77.0717 68.4696 77.3276 68.4696C80.7689 68.4696 83.5584 65.6713 83.5584 62.2196C83.5584 58.7679 80.7689 55.9696 77.3276 55.9696C76.4689 55.9696 75.6509 56.1438 74.9066 56.4589C75.7173 54.8665 77.3704 53.7697 79.2665 53.7697H85.404C88.0941 53.7697 90.2952 55.9775 90.2952 58.6762V66.7191C90.2952 69.4175 88.0941 71.6254 85.404 71.6254H79.8994V111.647H74.3799V67.7299C74.4184 67.7501 74.4561 67.7696 74.4931 67.7884L74.4927 67.7867C74.9129 68.0024 75.3608 68.1717 75.8296 68.2878V68.2878Z" fill="#A5C4FF"/>
<path d="M125.875 104.043H128.375V101.543H125.875V104.043ZM120.355 104.043V101.543H117.855V104.043H120.355ZM125.875 109.043V111.543H128.375V109.043H125.875ZM120.355 109.043H117.855V111.543H120.355V109.043ZM125.875 99.3197H128.375V96.8197H125.875V99.3197ZM120.355 99.3197V96.8197H117.855V99.3197H120.355ZM125.875 104.32V106.82H128.375V104.32H125.875ZM120.355 104.32H117.855V106.82H120.355V104.32ZM125.875 94.5963H128.375V92.0963H125.875V94.5963ZM120.355 94.5963V92.0963H117.855V94.5963H120.355ZM125.875 99.5963V102.096H128.375V99.5963H125.875ZM120.355 99.5963H117.855V102.096H120.355V99.5963ZM125.875 89.8729H128.375V87.3729H125.875V89.8729ZM120.355 89.8729V87.3729H117.855V89.8729H120.355ZM125.875 94.8729V97.3729H128.375V94.8729H125.875ZM120.355 94.8729H117.855V97.3729H120.355V94.8729ZM125.875 85.1494H128.375V82.6494H125.875V85.1494ZM120.355 85.1494V82.6494H117.855V85.1494H120.355ZM125.875 90.1494V92.6494H128.375V90.1494H125.875ZM120.355 90.1494H117.855V92.6494H120.355V90.1494ZM125.875 80.426H128.375V77.926H125.875V80.426ZM120.355 80.426V77.926H117.855V80.426H120.355ZM125.875 85.426V87.926H128.375V85.426H125.875ZM120.355 85.426H117.855V87.926H120.355V85.426ZM125.875 75.7026H128.375V73.2026H125.875V75.7026ZM120.355 75.7026V73.2026H117.855V75.7026H120.355ZM125.875 80.7026V83.2026H128.375V80.7026H125.875ZM120.355 80.7026H117.855V83.2026H120.355V80.7026ZM125.875 70.9791H128.375V68.4791H125.875V70.9791ZM120.355 70.9791V68.4791H117.855V70.9791H120.355ZM125.875 75.9791V78.4791H128.375V75.9791H125.875ZM120.355 75.9791H117.855V78.4791H120.355V75.9791ZM79.8988 104.043H82.3988V101.543H79.8988V104.043ZM74.3793 104.043V101.543H71.8793V104.043H74.3793ZM79.8988 109.043V111.543H82.3988V109.043H79.8988ZM74.3793 109.043H71.8793V111.543H74.3793V109.043ZM79.8988 99.3197H82.3988V96.8197H79.8988V99.3197ZM74.3793 99.3197V96.8197H71.8793V99.3197H74.3793ZM79.8988 104.32V106.82H82.3988V104.32H79.8988ZM74.3793 104.32H71.8793V106.82H74.3793V104.32ZM79.8988 94.5963H82.3988V92.0963H79.8988V94.5963ZM74.3793 94.5963V92.0963H71.8793V94.5963H74.3793ZM79.8988 99.5963V102.096H82.3988V99.5963H79.8988ZM74.3793 99.5963H71.8793V102.096H74.3793V99.5963ZM79.8988 89.8729H82.3988V87.3729H79.8988V89.8729ZM74.3793 89.8729V87.3729H71.8793V89.8729H74.3793ZM79.8988 94.8729V97.3729H82.3988V94.8729H79.8988ZM74.3793 94.8729H71.8793V97.3729H74.3793V94.8729ZM79.8988 85.1494H82.3988V82.6494H79.8988V85.1494ZM74.3793 85.1494V82.6494H71.8793V85.1494H74.3793ZM79.8988 90.1494V92.6494H82.3988V90.1494H79.8988ZM74.3793 90.1494H71.8793V92.6494H74.3793V90.1494ZM79.6553 80.7553H82.1553V78.2553H79.6553V80.7553ZM74.1357 80.7553V78.2553H71.6357V80.7553H74.1357ZM79.6553 85.7553V88.2553H82.1553V85.7553H79.6553ZM74.1357 85.7553H71.6357V88.2553H74.1357V85.7553ZM79.8988 75.7026H82.3988V73.2026H79.8988V75.7026ZM74.3793 75.7026V73.2026H71.8793V75.7026H74.3793ZM79.8988 80.7026V83.2026H82.3988V80.7026H79.8988ZM74.3793 80.7026H71.8793V83.2026H74.3793V80.7026ZM79.8988 70.9791H82.3988V68.4791H79.8988V70.9791ZM74.3793 70.9791V68.4791H71.8793V70.9791H74.3793ZM79.8988 75.9791V78.4791H82.3988V75.9791H79.8988ZM74.3793 75.9791H71.8793V78.4791H74.3793V75.9791ZM125.875 101.543H120.355V106.543H125.875V101.543ZM128.375 109.043V104.043H123.375V109.043H128.375ZM120.355 111.543H125.875V106.543H120.355V111.543ZM117.855 104.043V109.043H122.855V104.043H117.855ZM125.875 96.8197H120.355V101.82H125.875V96.8197ZM128.375 104.32V99.3197H123.375V104.32H128.375ZM120.355 106.82H125.875V101.82H120.355V106.82ZM117.855 99.3197V104.32H122.855V99.3197H117.855ZM125.875 92.0963H120.355V97.0963H125.875V92.0963ZM128.375 99.5963V94.5963H123.375V99.5963H128.375ZM120.355 102.096H125.875V97.0963H120.355V102.096ZM117.855 94.5963V99.5963H122.855V94.5963H117.855ZM125.875 87.3729H120.355V92.3729H125.875V87.3729ZM128.375 94.8729V89.8729H123.375V94.8729H128.375ZM120.355 97.3729H125.875V92.3729H120.355V97.3729ZM117.855 89.8729V94.8729H122.855V89.8729H117.855ZM125.875 82.6494H120.355V87.6494H125.875V82.6494ZM128.375 90.1494V85.1494H123.375V90.1494H128.375ZM120.355 92.6494H125.875V87.6494H120.355V92.6494ZM117.855 85.1494V90.1494H122.855V85.1494H117.855ZM125.875 77.926H120.355V82.926H125.875V77.926ZM128.375 85.426V80.426H123.375V85.426H128.375ZM120.355 87.926H125.875V82.926H120.355V87.926ZM117.855 80.426V85.426H122.855V80.426H117.855ZM125.875 73.2026H120.355V78.2026H125.875V73.2026ZM128.375 80.7026V75.7026H123.375V80.7026H128.375ZM120.355 83.2026H125.875V78.2026H120.355V83.2026ZM117.855 75.7026V80.7026H122.855V75.7026H117.855ZM125.875 68.4791H120.355V73.4791H125.875V68.4791ZM128.375 75.9791V70.9791H123.375V75.9791H128.375ZM120.355 78.4791H125.875V73.4791H120.355V78.4791ZM117.855 70.9791V75.9791H122.855V70.9791H117.855ZM79.8988 101.543H74.3793V106.543H79.8988V101.543ZM82.3988 109.043V104.043H77.3988V109.043H82.3988ZM74.3793 111.543H79.8988V106.543H74.3793V111.543ZM71.8793 104.043V109.043H76.8793V104.043H71.8793ZM79.8988 96.8197H74.3793V101.82H79.8988V96.8197ZM82.3988 104.32V99.3197H77.3988V104.32H82.3988ZM74.3793 106.82H79.8988V101.82H74.3793V106.82ZM71.8793 99.3197V104.32H76.8793V99.3197H71.8793ZM79.8988 92.0963H74.3793V97.0963H79.8988V92.0963ZM82.3988 99.5963V94.5963H77.3988V99.5963H82.3988ZM74.3793 102.096H79.8988V97.0963H74.3793V102.096ZM71.8793 94.5963V99.5963H76.8793V94.5963H71.8793ZM79.8988 87.3729H74.3793V92.3729H79.8988V87.3729ZM82.3988 94.8729V89.8729H77.3988V94.8729H82.3988ZM74.3793 97.3729H79.8988V92.3729H74.3793V97.3729ZM71.8793 89.8729V94.8729H76.8793V89.8729H71.8793ZM79.8988 82.6494H74.3793V87.6494H79.8988V82.6494ZM82.3988 90.1494V85.1494H77.3988V90.1494H82.3988ZM74.3793 92.6494H79.8988V87.6494H74.3793V92.6494ZM71.8793 85.1494V90.1494H76.8793V85.1494H71.8793ZM79.6553 78.2553H74.1357V83.2553H79.6553V78.2553ZM82.1553 85.7553V80.7553H77.1553V85.7553H82.1553ZM74.1357 88.2553H79.6553V83.2553H74.1357V88.2553ZM71.6357 80.7553V85.7553H76.6357V80.7553H71.6357ZM79.8988 73.2026H74.3793V78.2026H79.8988V73.2026ZM82.3988 80.7026V75.7026H77.3988V80.7026H82.3988ZM74.3793 83.2026H79.8988V78.2026H74.3793V83.2026ZM71.8793 75.7026V80.7026H76.8793V75.7026H71.8793ZM79.8988 68.4791H74.3793V73.4791H79.8988V68.4791ZM82.3988 75.9791V70.9791H77.3988V75.9791H82.3988ZM74.3793 78.4791H79.8988V73.4791H74.3793V78.4791ZM71.8793 70.9791V75.9791H76.8793V70.9791H71.8793Z" fill="#208AF2"/>
<path fill-rule="evenodd" clip-rule="evenodd" d="M94.5488 83.2726H102.345V70.8639H94.5488V83.2726Z" fill="#0E84E5"/>
<path d="M114.432 37.6303H107.601" stroke="#0C4676" stroke-width="5" stroke-linecap="round"/>
<path d="M93.5789 28.2852C92.2802 28.2852 91.2173 29.3511 91.2173 30.6541" stroke="white" stroke-width="5" stroke-linecap="round"/>
<path d="M83.4546 37.6303H91.8568" stroke="#0C4676" stroke-width="5" stroke-linecap="round"/>
<path fill-rule="evenodd" clip-rule="evenodd" d="M114.117 50.2835C115.358 50.3722 116.336 51.4098 116.336 52.6766V53.7551H84.4401V52.6766C84.4401 51.4098 85.4188 50.3722 86.6595 50.2835V49.8563C86.6595 48.3961 87.723 47.173 89.1115 46.9279V29.3162C89.1115 27.6729 90.4519 26.3286 92.09 26.3286H108.687C110.325 26.3286 111.665 27.6729 111.665 29.3162V46.9279C113.054 47.173 114.117 48.3961 114.117 49.8563V50.2835ZM119.18 37.6304C119.18 39.2334 117.885 40.533 116.287 40.533C114.689 40.533 113.393 39.2334 113.393 37.6304C113.393 36.0273 114.689 34.7279 116.287 34.7279C117.885 34.7279 119.18 36.0273 119.18 37.6304ZM83.5397 34.7279C81.9416 34.7279 80.646 36.0273 80.646 37.6304C80.646 39.2334 81.9416 40.533 83.5397 40.533C85.1378 40.533 86.4335 39.2334 86.4335 37.6304C86.4335 36.0273 85.1378 34.7279 83.5397 34.7279Z" fill="#699CFF"/>
<path opacity="0.395926" fill-rule="evenodd" clip-rule="evenodd" d="M86.6595 50.2835V49.5425C86.7894 48.1988 87.9932 46.8832 89.6234 46.8832H111.153C112.783 46.8832 113.937 48.0977 114.117 49.4456V50.2835C115.358 50.3722 116.336 51.4098 116.336 52.6766V53.7551H84.4401V52.6766C84.4401 51.4098 85.4188 50.3722 86.6595 50.2835V50.2835ZM119.18 37.6303C119.18 39.2334 117.885 40.533 116.287 40.533C114.689 40.533 113.393 39.2334 113.393 37.6303C113.393 36.0273 114.689 34.7279 116.287 34.7279C117.885 34.7279 119.18 36.0273 119.18 37.6303ZM80.646 37.6303C80.646 36.0273 81.9416 34.7279 83.5397 34.7279C85.1378 34.7279 86.4335 36.0273 86.4335 37.6303C86.4335 39.2334 85.1378 40.533 83.5397 40.533C81.9416 40.533 80.646 39.2334 80.646 37.6303Z" fill="#A2BDFF"/>
<path d="M86.8481 50.3548H114.05" stroke="#0C5076" stroke-width="5"/>
<path d="M93.7539 42.364H111.665" stroke="#0C4676" stroke-width="7"/>
<path fill-rule="evenodd" clip-rule="evenodd" d="M98.4356 33.8235C97.1731 34.8658 96.9922 36.7374 98.0313 38.0037C99.0704 39.2701 100.936 39.4516 102.199 38.4093C103.461 37.367 103.642 35.4953 102.603 34.229C101.564 32.9627 99.698 32.7812 98.4356 33.8235" fill="white"/>
<path fill-rule="evenodd" clip-rule="evenodd" d="M100.018 35.0949C99.4378 35.5737 99.3546 36.4334 99.832 37.0153C100.309 37.5969 101.166 37.6804 101.746 37.2015C102.326 36.7227 102.41 35.863 101.932 35.2811C101.455 34.6994 100.598 34.616 100.018 35.0949" fill="#0C4676"/>
<path fill-rule="evenodd" clip-rule="evenodd" d="M106.223 33.8235C104.961 34.8658 104.78 36.7374 105.819 38.0037C106.858 39.2701 108.724 39.4516 109.986 38.4093C111.249 37.367 111.43 35.4953 110.391 34.229C109.351 32.9627 107.486 32.7812 106.223 33.8235" fill="white"/>
<path fill-rule="evenodd" clip-rule="evenodd" d="M107.805 35.0949C107.225 35.5737 107.142 36.4334 107.62 37.0153C108.097 37.5969 108.954 37.6804 109.534 37.2015C110.114 36.7227 110.197 35.863 109.72 35.2811C109.242 34.6994 108.385 34.616 107.805 35.0949" fill="#0C4676"/>
<path fill-rule="evenodd" clip-rule="evenodd" d="M50.7816 122.753C50.7816 132.965 44.1173 138.662 35.4373 138.662C26.7571 138.662 20.0928 132.965 20.0928 122.753C20.0928 101.253 29.8865 76.4659 35.4373 76.4659C40.9879 76.4659 50.7816 101.253 50.7816 122.753" fill="#CCE3FF"/>
<path d="M35.4376 107.564V154.697" stroke="#ECF6FF" stroke-width="8" stroke-linecap="square"/>
<path d="M35.6206 132.533L41.0515 127.102" stroke="#ECF6FF" stroke-width="8" stroke-linecap="square"/>
<path d="M34.9826 122.185L30.5386 117.741" stroke="#ECF6FF" stroke-width="8" stroke-linecap="square"/>
<path d="M35.7046 115.224L39.0971 111.831" stroke="#ECF6FF" stroke-width="8" stroke-linecap="square"/>
<path fill-rule="evenodd" clip-rule="evenodd" d="M84.8805 28.3003H32.564C32.564 28.3003 37.4926 21.1122 41.5445 20.9997C46.3803 20.8655 48.5577 26.183 53.2015 26.183C57.8463 26.183 60.956 13.1762 69.553 13.1762C78.7305 13.1762 84.8805 28.3003 84.8805 28.3003" fill="#ECF6FF"/>
<path fill-rule="evenodd" clip-rule="evenodd" d="M163.224 16.5786H161.807C161.125 16.5786 160.572 17.1312 160.572 17.8131V120.014H164.458V17.8131C164.458 17.1312 163.906 16.5786 163.224 16.5786" fill="#D7EBFF"/>
<path fill-rule="evenodd" clip-rule="evenodd" d="M159.407 129.415H165.624V118.875H159.407V129.415Z" fill="#CCE3FF"/>
<path fill-rule="evenodd" clip-rule="evenodd" d="M157.719 154.475H167.311V123.67H157.719V154.475Z" fill="#D7EBFF"/>
<path fill-rule="evenodd" clip-rule="evenodd" d="M166.513 150.394H158.517C156.901 150.394 155.591 151.704 155.591 153.32V154.606H169.439V153.32C169.439 151.704 168.129 150.394 166.513 150.394" fill="#CCE3FF"/>
<path fill-rule="evenodd" clip-rule="evenodd" d="M167.311 123.38H157.72C156.925 123.38 156.281 124.025 156.281 124.82V124.997C156.281 125.792 156.925 126.436 157.72 126.436H167.311C168.106 126.436 168.75 125.792 168.75 124.997V124.82C168.75 124.025 168.106 123.38 167.311 123.38" fill="#CCE3FF"/>
<path fill-rule="evenodd" clip-rule="evenodd" d="M162.515 11.0858V11.0858C161.086 11.0858 159.928 12.2441 159.928 13.6728V13.9917C159.928 15.4204 161.086 16.5786 162.515 16.5786C163.944 16.5786 165.102 15.4204 165.102 13.9917V13.6728C165.102 12.2441 163.944 11.0858 162.515 11.0858" fill="#CCE3FF"/>
<path fill-rule="evenodd" clip-rule="evenodd" d="M166.34 41.2543H158.691C157.896 41.2543 157.251 41.8986 157.251 42.6935V42.8708C157.251 43.6658 157.896 44.31 158.691 44.31H166.34C167.135 44.31 167.779 43.6658 167.779 42.8708V42.6935C167.779 41.8986 167.135 41.2543 166.34 41.2543" fill="#CCE3FF"/>
<path fill-rule="evenodd" clip-rule="evenodd" d="M165.296 44.3101H159.735C159.213 44.3101 158.79 44.7331 158.79 45.2549V45.3714C158.79 45.8931 159.213 46.3162 159.735 46.3162H165.296C165.818 46.3162 166.24 45.8931 166.24 45.3714V45.2549C166.24 44.7331 165.818 44.3101 165.296 44.3101" fill="#CCE3FF"/>
<path fill-rule="evenodd" clip-rule="evenodd" d="M169.86 21.0063L165.659 41.2541H159.373L155.17 21.0063H169.86Z" fill="#ECF6FF"/>
<path fill-rule="evenodd" clip-rule="evenodd" d="M171.136 22.0795L169.294 18.4553H155.736L153.895 22.0795H171.136Z" fill="#CCE3FF"/>
</svg>
