<svg width="107" height="107" viewBox="0 0 107 107" fill="none" xmlns="http://www.w3.org/2000/svg">
<path d="M56.3257 17.3058C56.3257 17.3058 49.5089 35.2406 28.6675 32.3859C7.82606 29.5313 -3.01742 58.4284 17.0501 67.6202C37.1176 76.812 24.2705 89.3809 37.6079 94.687C52.7669 100.718 56.9929 77.4779 67.9971 78.9984C92.2837 82.3542 106.693 73.4608 99.5146 62.98C86.9144 44.5823 78.5786 45.7522 81.2937 33.264C84.0088 20.7757 63.7313 2.97263 56.3257 17.3058Z" fill="#EFEFEF"/>
<path d="M49.7322 35.1252C49.5652 35.1145 49.4089 35.0396 49.296 34.9161C49.1832 34.7925 49.1227 34.63 49.1272 34.4628L49.1736 28.16C49.1726 28.0724 49.1892 27.9854 49.2225 27.9043C49.2558 27.8232 49.305 27.7497 49.3673 27.688C49.4297 27.6264 49.5037 27.5779 49.5852 27.5455C49.6666 27.5131 49.7538 27.4974 49.8414 27.4994L50.3452 27.5219C50.4326 27.5276 50.5178 27.551 50.5959 27.5906C50.674 27.6301 50.7432 27.6851 50.7995 27.7521C50.8558 27.8191 50.8979 27.8968 50.9234 27.9806C50.9489 28.0643 50.9571 28.1523 50.9477 28.2393L50.3975 34.5195C50.3859 34.6867 50.3103 34.843 50.1864 34.9559C50.0625 35.0687 49.8998 35.1293 49.7322 35.1252Z" fill="#418DF9"/>
<path d="M46.7856 35.808C46.6827 35.8436 46.5699 35.8368 46.4719 35.7893C46.374 35.7417 46.299 35.6571 46.2634 35.5542L44.8491 31.7018C44.8081 31.5923 44.8122 31.471 44.8605 31.3645C44.9088 31.258 44.9974 31.175 45.1069 31.1337L45.4206 31.0226C45.4744 31.0041 45.5315 30.997 45.5883 31.0016C45.6451 31.0063 45.7002 31.0227 45.7503 31.0497C45.8004 31.0768 45.8444 31.114 45.8794 31.1589C45.9144 31.2038 45.9397 31.2554 45.9538 31.3106L47.0544 35.2741C47.0849 35.3806 47.0741 35.4946 47.0243 35.5936C46.9745 35.6925 46.8893 35.769 46.7856 35.808Z" fill="#418DF9"/>
<path d="M45.2342 38.1416C45.0269 38.4249 44.5838 38.4427 44.2298 38.1818L37.9437 33.5505C37.5683 33.2739 37.4386 32.7928 37.6585 32.4924L37.965 32.0736C38.1849 31.7731 38.6658 31.774 39.0231 32.0758L45.0025 37.1259C45.3393 37.4103 45.4414 37.8583 45.2342 38.1416Z" fill="#418DF9"/>
<path d="M89.387 48.1484L50.6045 38.9162C49.1673 38.5741 47.7249 39.4618 47.3827 40.899L41.6795 64.8572C41.3374 66.2944 42.2251 67.7368 43.6623 68.0789L82.4449 77.3111C83.8821 77.6532 85.3245 76.7654 85.6666 75.3282L91.3698 51.3701C91.7119 49.9329 90.8242 48.4905 89.387 48.1484Z" fill="#A2BDFF"/>
<path d="M90.8313 53.6317L46.8442 43.1606L45.6508 48.174L89.6379 58.6451L90.8313 53.6317Z" fill="#418DF9"/>
<path d="M83.7805 72.3581L75.0341 70.276C75.0062 70.2694 74.9783 70.2866 74.9716 70.3144L74.4175 72.6422C74.4109 72.67 74.4281 72.698 74.4559 72.7046L83.2024 74.7867C83.2302 74.7933 83.2582 74.7761 83.2648 74.7483L83.8189 72.4205C83.8256 72.3927 83.8083 72.3647 83.7805 72.3581Z" fill="white"/>
<path d="M66.9175 35.5735L21.7474 51.1338C20.3506 51.615 19.6083 53.1374 20.0895 54.5342L29.8185 82.7765C30.2997 84.1733 31.8221 84.9156 33.2189 84.4344L78.389 68.874C79.7858 68.3929 80.5281 66.8705 80.0469 65.4736L70.3179 37.2313C69.8367 35.8345 68.3143 35.0923 66.9175 35.5735Z" fill="#699CFF"/>
<path d="M65.979 39.2244L60.7101 41.0395C59.872 41.3282 59.4267 42.2417 59.7154 43.0797L61.5304 48.3487C61.8191 49.1867 62.7326 49.6321 63.5707 49.3434L68.8396 47.5283C69.6777 47.2396 70.123 46.3262 69.8343 45.4881L68.0192 40.2192C67.7305 39.3811 66.8171 38.9357 65.979 39.2244Z" fill="white"/>
<path d="M47.5244 64.4752L29.9986 70.5126C29.9484 70.5299 29.9217 70.5846 29.939 70.6348L30.8317 73.2262C30.849 73.2764 30.9037 73.3031 30.9539 73.2858L48.4798 67.2484C48.53 67.2311 48.5567 67.1764 48.5394 67.1262L47.6467 64.5348C47.6294 64.4846 47.5746 64.4579 47.5244 64.4752Z" fill="white"/>
<path d="M56.8552 67.2511L31.8429 75.8674C31.7926 75.8847 31.766 75.9394 31.7833 75.9896L32.676 78.581C32.6933 78.6312 32.748 78.6579 32.7982 78.6406L57.8105 70.0242C57.8607 70.007 57.8874 69.9522 57.8701 69.902L56.9774 67.3106C56.9601 67.2604 56.9054 67.2338 56.8552 67.2511Z" fill="white"/>
</svg>
