<svg width="194" height="194" viewBox="0 0 194 194" fill="none" xmlns="http://www.w3.org/2000/svg">
<path d="M26.1475 126.28C28.9467 139.554 36.7256 143.635 42.9972 142.127C55.1257 139.211 85.2835 138.994 112.822 157.529C149.295 182.077 162.505 157.536 154.686 128.834C146.868 100.132 147.466 72.6632 164.742 60.6333C182.018 48.6033 167.145 22.1109 128.869 39.8431C104.134 51.3022 88.6906 44.9139 80.8599 38.9604C73.4797 33.3484 65.2217 27.3829 56.1293 29.1948C45.0965 31.3939 39.4233 39.5034 51.4503 62.143C68.4937 94.2256 19.8732 96.5264 26.1475 126.28Z" fill="#EFEFEF"/>
<path d="M98.7785 123.198L99.8067 124.418L99.4975 133.94L57.7462 142.305C57.4382 142.367 57.121 142.368 56.8127 142.307C56.5044 142.247 56.2111 142.126 55.9494 141.952C55.6878 141.778 55.4631 141.554 55.288 141.293C55.1129 141.032 54.991 140.739 54.9292 140.431L42.7162 79.4729C42.6538 79.1651 42.6529 78.8481 42.7135 78.5399C42.774 78.2318 42.8949 77.9387 43.0691 77.6774C43.2434 77.4162 43.4675 77.1919 43.7287 77.0176C43.9899 76.8432 44.283 76.7222 44.5911 76.6615L89.0623 67.7458L87.1159 74.5274C87.1159 74.5274 90.6749 81.2391 91.3637 82.3283L88.0911 96.4817L97.7568 106.053L94.6916 118.328L98.7785 123.198Z" fill="#699CFF"/>
<path d="M92.3925 107.81L57.8656 114.729C57.7606 114.75 57.6925 114.852 57.7135 114.957L58.7329 120.044C58.7539 120.149 58.8562 120.217 58.9612 120.196L93.4881 113.277C93.5932 113.256 93.6613 113.154 93.6402 113.049L92.6209 107.962C92.5998 107.857 92.4976 107.789 92.3925 107.81Z" fill="white"/>
<path d="M94.6917 118.328L98.7782 123.198L62.0589 130.554C61.7479 130.616 61.4252 130.552 61.1613 130.376C60.8974 130.201 60.7136 129.928 60.6502 129.617L60.027 126.497C59.9955 126.343 59.9948 126.184 60.0248 126.03C60.0549 125.875 60.1153 125.729 60.2024 125.598C60.2895 125.467 60.4016 125.354 60.5323 125.267C60.663 125.179 60.8098 125.119 60.964 125.088L94.6917 118.328Z" fill="white"/>
<path d="M169.331 68.6413L153.264 128.693C153.099 129.305 152.698 129.827 152.149 130.144C151.601 130.462 150.948 130.549 150.335 130.387L102.904 117.696L107.992 109.862L107.419 107.857L105.631 101.607L105.632 101.602L114.042 92.2726L109.372 78.5731L118.613 67.8086L118.196 57.9898L123.342 53.8567L167.644 65.7084C168.256 65.8744 168.777 66.2763 169.093 66.8261C169.41 67.3759 169.495 68.0287 169.331 68.6413Z" fill="#699CFF"/>
<path d="M158.88 69.5568L150.249 67.2471C148.179 66.6932 146.052 67.9222 145.498 69.9923L143.188 78.6236C142.634 80.6937 143.863 82.8208 145.933 83.3747L154.565 85.6844C156.635 86.2384 158.762 85.0093 159.316 82.9393L161.625 74.3079C162.179 72.2379 160.95 70.1107 158.88 69.5568Z" fill="white"/>
<path d="M115.383 105.452L114.564 108.527C114.481 108.833 114.281 109.094 114.006 109.253C113.732 109.411 113.406 109.455 113.099 109.374L107.419 107.857L105.631 101.607L114.541 103.989C114.693 104.029 114.835 104.099 114.96 104.194C115.084 104.29 115.189 104.409 115.267 104.545C115.345 104.681 115.396 104.831 115.416 104.987C115.436 105.142 115.424 105.3 115.383 105.452Z" fill="white"/>
<path d="M96.8966 64.0225C96.6704 63.776 96.5487 63.4513 96.557 63.1168C96.5654 62.7823 96.7031 62.464 96.9413 62.229L105.738 53.2018C106.263 52.6626 107.117 52.6498 107.616 53.1738L108.312 53.9041C108.811 54.4279 108.754 55.2778 108.187 55.7734L98.695 64.0703C98.4468 64.2955 98.1213 64.4162 97.7862 64.4073C97.4512 64.3984 97.1325 64.2606 96.8966 64.0225Z" fill="#418DF9"/>
<path d="M91.7014 60.9266C91.6035 60.8815 91.5154 60.8175 91.4422 60.7383C91.3691 60.6591 91.3122 60.5663 91.2749 60.4652C91.2375 60.364 91.2205 60.2565 91.2248 60.1488C91.229 60.041 91.2544 59.9352 91.2996 59.8373L94.5954 52.3217C94.6879 52.1069 94.8618 51.9375 95.079 51.8507C95.2962 51.764 95.539 51.7671 95.754 51.8592L96.3604 52.1335C96.4637 52.1814 96.556 52.2502 96.6314 52.3355C96.7068 52.4208 96.7637 52.5209 96.7985 52.6293C96.8333 52.7377 96.8452 52.8521 96.8335 52.9654C96.8219 53.0787 96.7868 53.1883 96.7307 53.2873L92.8286 60.529C92.725 60.7248 92.5516 60.8744 92.3427 60.9481C92.1338 61.0217 91.9049 61.0141 91.7014 60.9266Z" fill="#418DF9"/>
<path d="M86.2306 62.1437C85.5392 62.2652 84.8755 61.6771 84.7261 60.8105L82.0735 45.4236C81.9151 44.5044 82.3943 43.631 83.1276 43.502L84.1499 43.3225C84.8832 43.1937 85.5758 43.8613 85.6728 44.7912L87.3032 60.3577C87.3954 61.2344 86.922 62.0222 86.2306 62.1437Z" fill="#418DF9"/>
</svg>
