<svg width="548" height="496" viewBox="0 0 548 496" fill="none" xmlns="http://www.w3.org/2000/svg">
<path d="M376.553 139.668L378.944 212.549" stroke="#1E1E1C" stroke-width="5" stroke-linecap="round"/>
<path d="M397.083 72.4746L374.746 132.12" stroke="#1E1E1C" stroke-width="5" stroke-linecap="round"/>
<path d="M273.863 399.019C407.229 399.019 515.344 392.734 515.344 384.982C515.344 377.23 407.229 370.945 273.863 370.945C140.497 370.945 32.3818 377.23 32.3818 384.982C32.3818 392.734 140.497 399.019 273.863 399.019Z" fill="#D8D9DB"/>
<path d="M216.287 224.303H269.518C270.965 224.303 272.398 224.587 273.734 225.138C275.071 225.69 276.285 226.499 277.308 227.518C278.33 228.537 279.141 229.747 279.693 231.078C280.246 232.41 280.53 233.836 280.528 235.277V253.877C280.53 255.317 280.246 256.744 279.693 258.075C279.141 259.407 278.33 260.617 277.308 261.636C276.285 262.655 275.071 263.464 273.734 264.015C272.398 264.567 270.965 264.851 269.518 264.851H234.147L217.956 282.087L226.675 264.851H216.238C213.314 264.851 210.511 263.695 208.444 261.637C206.377 259.579 205.215 256.787 205.215 253.877V235.277C205.215 233.832 205.502 232.4 206.059 231.066C206.616 229.731 207.432 228.519 208.461 227.499C209.49 226.48 210.711 225.672 212.054 225.124C213.397 224.575 214.836 224.296 216.287 224.303Z" fill="#8F8F8E"/>
<path opacity="0.7" d="M216.287 224.303H269.518C270.965 224.303 272.398 224.587 273.734 225.138C275.071 225.69 276.285 226.499 277.308 227.518C278.33 228.537 279.141 229.747 279.693 231.078C280.246 232.41 280.53 233.836 280.528 235.277V253.877C280.53 255.317 280.246 256.744 279.693 258.075C279.141 259.407 278.33 260.617 277.308 261.636C276.285 262.655 275.071 263.464 273.734 264.015C272.398 264.567 270.965 264.851 269.518 264.851H234.147L217.956 282.087L226.675 264.851H216.238C213.314 264.851 210.511 263.695 208.444 261.637C206.377 259.579 205.215 256.787 205.215 253.877V235.277C205.215 233.832 205.502 232.4 206.059 231.066C206.616 229.731 207.432 228.519 208.461 227.499C209.49 226.48 210.711 225.672 212.054 225.124C213.397 224.575 214.836 224.296 216.287 224.303Z" fill="white"/>
<path d="M218.89 243.548C218.843 242.296 219.173 241.059 219.837 239.994C220.501 238.93 221.469 238.088 222.617 237.576C223.765 237.063 225.041 236.904 226.281 237.118C227.52 237.332 228.667 237.911 229.575 238.778C230.482 239.646 231.109 240.764 231.373 241.989C231.638 243.214 231.53 244.489 231.061 245.652C230.593 246.815 229.787 247.811 228.745 248.515C227.704 249.218 226.476 249.596 225.217 249.599C224.397 249.64 223.576 249.513 222.807 249.226C222.037 248.94 221.335 248.5 220.742 247.933C220.15 247.366 219.68 246.685 219.361 245.931C219.043 245.177 218.883 244.366 218.89 243.548ZM229.813 243.548C229.823 242.635 229.56 241.74 229.057 240.976C228.554 240.212 227.835 239.615 226.99 239.26C226.145 238.905 225.213 238.808 224.313 238.982C223.412 239.156 222.584 239.593 221.934 240.236C221.284 240.88 220.841 241.702 220.661 242.598C220.482 243.493 220.574 244.421 220.926 245.264C221.278 246.107 221.874 246.827 222.638 247.332C223.403 247.836 224.3 248.103 225.217 248.099C225.824 248.117 226.428 248.013 226.992 247.791C227.557 247.569 228.07 247.235 228.5 246.809C228.93 246.383 229.269 245.874 229.494 245.313C229.72 244.752 229.829 244.152 229.813 243.548Z" fill="#353533"/>
<path d="M233.039 244.986C233.014 244.06 233.267 243.147 233.765 242.365C234.263 241.583 234.984 240.966 235.836 240.593C236.688 240.221 237.632 240.109 238.547 240.273C239.463 240.436 240.309 240.868 240.977 241.512C241.646 242.156 242.106 242.984 242.3 243.89C242.494 244.796 242.412 245.739 242.066 246.599C241.719 247.458 241.123 248.196 240.354 248.717C239.585 249.238 238.677 249.519 237.747 249.524C237.133 249.555 236.519 249.459 235.944 249.244C235.369 249.029 234.844 248.698 234.403 248.273C233.961 247.847 233.612 247.336 233.378 246.77C233.143 246.205 233.028 245.597 233.039 244.986ZM240.748 244.986C240.775 244.573 240.716 244.159 240.576 243.77C240.435 243.38 240.216 243.024 239.932 242.722C239.648 242.42 239.304 242.18 238.923 242.016C238.542 241.851 238.131 241.766 237.715 241.766C237.3 241.766 236.889 241.851 236.508 242.016C236.126 242.18 235.783 242.42 235.499 242.722C235.215 243.024 234.996 243.38 234.855 243.77C234.715 244.159 234.656 244.573 234.683 244.986C234.656 245.398 234.715 245.812 234.855 246.201C234.996 246.591 235.215 246.947 235.499 247.249C235.783 247.551 236.126 247.791 236.508 247.956C236.889 248.12 237.3 248.205 237.715 248.205C238.131 248.205 238.542 248.12 238.923 247.956C239.304 247.791 239.648 247.551 239.932 247.249C240.216 246.947 240.435 246.591 240.576 246.201C240.716 245.812 240.775 245.398 240.748 244.986Z" fill="#353533"/>
<path d="M253.938 244.987C253.971 245.593 253.877 246.199 253.661 246.767C253.445 247.334 253.113 247.851 252.685 248.283C252.257 248.715 251.743 249.053 251.175 249.275C250.608 249.498 250.001 249.6 249.392 249.575C248.79 249.593 248.192 249.47 247.647 249.216C247.102 248.962 246.624 248.584 246.253 248.112V252.749H244.622V240.51H246.178V241.936C246.552 241.445 247.039 241.051 247.598 240.787C248.158 240.524 248.773 240.399 249.392 240.424C249.999 240.399 250.604 240.5 251.169 240.721C251.735 240.942 252.247 241.278 252.675 241.707C253.103 242.137 253.436 242.65 253.653 243.215C253.871 243.779 253.968 244.383 253.938 244.987ZM252.294 244.987C252.264 244.399 252.063 243.832 251.713 243.356C251.364 242.881 250.883 242.518 250.328 242.312C249.774 242.107 249.172 242.067 248.595 242.199C248.018 242.33 247.493 242.627 247.084 243.052C246.675 243.478 246.4 244.013 246.294 244.593C246.187 245.172 246.254 245.77 246.485 246.312C246.715 246.854 247.101 247.317 247.593 247.644C248.086 247.97 248.663 248.146 249.255 248.149C249.67 248.162 250.084 248.088 250.469 247.932C250.854 247.777 251.202 247.542 251.491 247.244C251.78 246.946 252.002 246.592 252.145 246.203C252.287 245.814 252.347 245.4 252.319 244.987H252.294Z" fill="#353533"/>
<path d="M255.083 248.519L255.756 247.279C256.701 247.878 257.799 248.197 258.919 248.197C260.426 248.197 261.049 247.75 261.049 246.957C261.049 244.948 255.37 246.696 255.37 243.125C255.37 241.526 256.814 240.434 259.106 240.434C260.251 240.417 261.381 240.699 262.382 241.253L261.684 242.493C260.908 242.01 260.008 241.765 259.094 241.786C257.661 241.786 256.964 242.307 256.964 243.026C256.964 245.134 262.668 243.41 262.668 246.895C262.668 248.507 261.174 249.548 258.782 249.548C257.473 249.588 256.182 249.229 255.083 248.519Z" fill="#353533"/>
<path d="M264.35 248.482C264.35 248.337 264.379 248.194 264.436 248.06C264.492 247.927 264.575 247.807 264.68 247.706C264.785 247.605 264.909 247.526 265.044 247.475C265.18 247.423 265.325 247.398 265.471 247.403C265.614 247.4 265.756 247.426 265.889 247.479C266.022 247.532 266.143 247.611 266.244 247.712C266.346 247.813 266.425 247.933 266.479 248.065C266.532 248.198 266.557 248.34 266.554 248.482C266.556 248.625 266.529 248.766 266.475 248.899C266.421 249.031 266.342 249.151 266.241 249.253C266.14 249.354 266.02 249.435 265.888 249.49C265.756 249.545 265.614 249.573 265.471 249.573C265.325 249.577 265.179 249.551 265.043 249.497C264.908 249.444 264.784 249.364 264.679 249.263C264.575 249.161 264.492 249.04 264.435 248.905C264.379 248.771 264.35 248.628 264.35 248.482ZM264.499 237.645H266.392L266.068 245.729H264.823L264.499 237.645Z" fill="#353533"/>
<path d="M505.519 68.2117C505.519 72.2541 483.312 75.7261 451.503 77.2513L448.95 77.3753L445.513 77.5117C440.743 77.6977 435.786 77.8341 430.679 77.9457H428.388H427.142C423.219 78.0077 419.209 78.0325 415.136 78.0325C407.763 78.0325 400.602 77.9333 393.739 77.7597L388.757 77.5985C376.24 77.1893 364.882 76.4825 355.317 75.5649C336.548 73.7545 324.704 71.1133 324.704 68.1249C324.704 63.6733 351.605 59.9285 388.608 58.6885L391.51 58.5893C394.092 58.5149 396.712 58.4529 399.369 58.4033C402.569 58.3413 405.832 58.3041 409.133 58.2793H415.148C424.464 58.2793 433.457 58.4281 441.913 58.7257L445.924 58.8621L451.142 59.0853L452.5 59.1597L455.974 59.3333C485.28 61.0445 505.519 64.3553 505.519 68.2117Z" fill="#353533"/>
<path opacity="0.4" d="M505.519 68.213C505.519 72.2554 483.312 75.7275 451.503 77.2527L448.95 77.3766L445.513 77.513C440.743 77.699 435.786 77.8355 430.679 77.9471H428.388H427.142C423.219 78.0091 419.209 78.0338 415.136 78.0338C407.763 78.0338 400.602 77.9346 393.739 77.761L388.757 77.5999C376.24 77.1907 364.882 76.4839 355.317 75.5663C336.548 73.7559 324.704 71.1147 324.704 68.1263C324.704 66.8119 327.058 65.5471 331.329 64.4062C339.22 66.2468 347.238 67.4903 355.317 68.1263C364.882 69.0439 376.24 69.7507 388.757 70.1599L393.739 70.321C400.602 70.4946 407.763 70.5938 415.136 70.5938C419.209 70.5938 423.219 70.5939 427.142 70.5071H428.388H430.679C435.786 70.3955 440.743 70.259 445.513 70.073L448.95 69.9366L451.503 69.8127C472.962 68.7835 490.038 66.8738 498.893 64.493C503.102 65.6462 505.519 66.8862 505.519 68.213Z" fill="white"/>
<path d="M396.118 384.697H407.638L370.175 89.9492H358.654L396.118 384.697Z" fill="#353533"/>
<path opacity="0.4" d="M396.118 384.697H407.638L370.175 89.9492H358.654L396.118 384.697Z" fill="white"/>
<path d="M372.03 133.635H408.659C409.115 133.611 409.555 133.458 409.928 133.195C410.3 132.931 410.59 132.568 410.764 132.147L413.093 127.188H367.596L369.925 132.147C370.099 132.568 370.389 132.931 370.761 133.195C371.134 133.458 371.574 133.611 372.03 133.635Z" fill="#353533"/>
<path opacity="0.4" d="M372.03 133.635H408.659C409.115 133.611 409.555 133.458 409.928 133.195C410.3 132.931 410.59 132.568 410.764 132.147L413.093 127.188H367.596L369.925 132.147C370.099 132.568 370.389 132.931 370.761 133.195C371.134 133.458 371.574 133.611 372.03 133.635Z" fill="white"/>
<path d="M368.206 129.568H412.469C413.783 129.568 414.848 128.508 414.848 127.2V126.667C414.848 125.359 413.783 124.298 412.469 124.298H368.206C366.892 124.298 365.827 125.359 365.827 126.667V127.2C365.827 128.508 366.892 129.568 368.206 129.568Z" fill="#353533"/>
<path opacity="0.1" d="M368.206 129.568H412.469C413.783 129.568 414.848 128.508 414.848 127.2V126.667C414.848 125.359 413.783 124.298 412.469 124.298H368.206C366.892 124.298 365.827 125.359 365.827 126.667V127.2C365.827 128.508 366.892 129.568 368.206 129.568Z" fill="white"/>
<path d="M378.717 175.769H415.334C415.792 175.747 416.234 175.593 416.608 175.327C416.981 175.061 417.269 174.694 417.438 174.269L419.767 169.371H374.283L376.6 174.269C376.771 174.695 377.062 175.063 377.437 175.329C377.813 175.595 378.257 175.748 378.717 175.769Z" fill="#353533"/>
<path opacity="0.4" d="M378.717 175.769H415.334C415.792 175.747 416.234 175.593 416.608 175.327C416.981 175.061 417.269 174.694 417.438 174.269L419.767 169.371H374.283L376.6 174.269C376.771 174.695 377.062 175.063 377.437 175.329C377.813 175.595 378.257 175.748 378.717 175.769Z" fill="white"/>
<path d="M374.895 171.703H419.159C420.473 171.703 421.538 170.643 421.538 169.335V168.802C421.538 167.493 420.473 166.433 419.159 166.433H374.895C373.582 166.433 372.516 167.493 372.516 168.802V169.335C372.516 170.643 373.582 171.703 374.895 171.703Z" fill="#353533"/>
<path opacity="0.1" d="M374.895 171.703H419.159C420.473 171.703 421.538 170.643 421.538 169.335V168.802C421.538 167.493 420.473 166.433 419.159 166.433H374.895C373.582 166.433 372.516 167.493 372.516 168.802V169.335C372.516 170.643 373.582 171.703 374.895 171.703Z" fill="white"/>
<path d="M385.394 231.532H422.073C422.532 231.513 422.976 231.362 423.352 231.098C423.727 230.834 424.018 230.468 424.19 230.044L426.507 225.084H380.973L383.302 230.044C383.471 230.466 383.758 230.83 384.129 231.094C384.5 231.357 384.939 231.51 385.394 231.532Z" fill="#353533"/>
<path opacity="0.4" d="M385.394 231.532H422.073C422.532 231.513 422.976 231.362 423.352 231.098C423.727 230.834 424.018 230.468 424.19 230.044L426.507 225.084H380.973L383.302 230.044C383.471 230.466 383.758 230.83 384.129 231.094C384.5 231.357 384.939 231.51 385.394 231.532Z" fill="white"/>
<path d="M381.57 227.479H425.834C427.148 227.479 428.213 226.418 428.213 225.11V224.577C428.213 223.269 427.148 222.209 425.834 222.209H381.57C380.257 222.209 379.192 223.269 379.192 224.577V225.11C379.192 226.418 380.257 227.479 381.57 227.479Z" fill="#353533"/>
<path opacity="0.1" d="M381.57 227.479H425.834C427.148 227.479 428.213 226.418 428.213 225.11V224.577C428.213 223.269 427.148 222.209 425.834 222.209H381.57C380.257 222.209 379.192 223.269 379.192 224.577V225.11C379.192 226.418 380.257 227.479 381.57 227.479Z" fill="white"/>
<path d="M392.069 287.307H428.698C429.155 287.286 429.597 287.134 429.97 286.87C430.343 286.607 430.632 286.242 430.803 285.819L433.132 280.859H387.635L389.964 285.819C390.136 286.242 390.425 286.607 390.798 286.87C391.171 287.134 391.612 287.286 392.069 287.307Z" fill="#353533"/>
<path opacity="0.4" d="M392.069 287.307H428.698C429.155 287.286 429.597 287.134 429.97 286.87C430.343 286.607 430.632 286.242 430.803 285.819L433.132 280.859H387.635L389.964 285.819C390.136 286.242 390.425 286.607 390.798 286.87C391.171 287.134 391.612 287.286 392.069 287.307Z" fill="white"/>
<path d="M388.245 283.254H432.509C433.822 283.254 434.887 282.194 434.887 280.886V280.352C434.887 279.044 433.822 277.984 432.509 277.984H388.245C386.931 277.984 385.866 279.044 385.866 280.352V280.886C385.866 282.194 386.931 283.254 388.245 283.254Z" fill="#353533"/>
<path opacity="0.1" d="M388.245 283.254H432.509C433.822 283.254 434.887 282.194 434.887 280.886V280.352C434.887 279.044 433.822 277.984 432.509 277.984H388.245C386.931 277.984 385.866 279.044 385.866 280.352V280.886C385.866 282.194 386.931 283.254 388.245 283.254Z" fill="white"/>
<path d="M398.757 343.083H435.373C435.831 343.063 436.273 342.912 436.646 342.648C437.019 342.384 437.308 342.018 437.478 341.595L439.807 336.635H394.311L396.64 341.595C396.811 342.019 397.103 342.385 397.478 342.649C397.854 342.913 398.298 343.064 398.757 343.083Z" fill="#353533"/>
<path opacity="0.4" d="M398.757 343.083H435.373C435.831 343.063 436.273 342.912 436.646 342.648C437.019 342.384 437.308 342.018 437.478 341.595L439.807 336.635H394.311L396.64 341.595C396.811 342.019 397.103 342.385 397.478 342.649C397.854 342.913 398.298 343.064 398.757 343.083Z" fill="white"/>
<path d="M394.922 339.027H439.186C440.5 339.027 441.565 337.967 441.565 336.659V336.126C441.565 334.818 440.5 333.757 439.186 333.757H394.922C393.609 333.757 392.544 334.818 392.544 336.126V336.659C392.544 337.967 393.609 339.027 394.922 339.027Z" fill="#353533"/>
<path opacity="0.1" d="M394.922 339.027H439.186C440.5 339.027 441.565 337.967 441.565 336.659V336.126C441.565 334.818 440.5 333.757 439.186 333.757H394.922C393.609 333.757 392.544 334.818 392.544 336.126V336.659C392.544 337.967 393.609 339.027 394.922 339.027Z" fill="white"/>
<path d="M440.592 384.697H452.112L414.649 89.9492H403.128L440.592 384.697Z" fill="#353533"/>
<path opacity="0.7" d="M440.592 384.697H452.112L414.649 89.9492H403.128L440.592 384.697Z" fill="white"/>
<path d="M319.646 384.697H308.126L345.577 89.9492H357.097L319.646 384.697Z" fill="#353533"/>
<path opacity="0.4" d="M319.646 384.697H308.126L345.577 89.9492H357.097L319.646 384.697Z" fill="white"/>
<path d="M388.196 133.635H351.58C351.122 133.613 350.679 133.462 350.304 133.198C349.929 132.935 349.637 132.57 349.463 132.147L347.146 127.188H392.63L390.301 132.147C390.13 132.57 389.841 132.935 389.468 133.199C389.095 133.462 388.653 133.614 388.196 133.635Z" fill="#353533"/>
<path opacity="0.5" d="M388.196 133.635H351.58C351.122 133.613 350.679 133.462 350.304 133.198C349.929 132.935 349.637 132.57 349.463 132.147L347.146 127.188H392.63L390.301 132.147C390.13 132.57 389.841 132.935 389.468 133.199C389.095 133.462 388.653 133.614 388.196 133.635Z" fill="white"/>
<path d="M392.02 124.311H347.756C346.443 124.311 345.378 125.371 345.378 126.679V127.212C345.378 128.52 346.443 129.581 347.756 129.581H392.02C393.334 129.581 394.399 128.52 394.399 127.212V126.679C394.399 125.371 393.334 124.311 392.02 124.311Z" fill="#353533"/>
<path d="M381.52 175.769H344.854C344.396 175.745 343.954 175.591 343.581 175.325C343.208 175.06 342.92 174.693 342.749 174.269L340.42 169.371H385.954L383.625 174.269C383.455 174.693 383.166 175.06 382.793 175.325C382.42 175.591 381.978 175.745 381.52 175.769Z" fill="#353533"/>
<path opacity="0.5" d="M381.52 175.769H344.854C344.396 175.745 343.954 175.591 343.581 175.325C343.208 175.06 342.92 174.693 342.749 174.269L340.42 169.371H385.954L383.625 174.269C383.455 174.693 383.166 175.06 382.793 175.325C382.42 175.591 381.978 175.745 381.52 175.769Z" fill="white"/>
<path d="M385.345 166.434H341.082C339.768 166.434 338.703 167.494 338.703 168.802V169.335C338.703 170.643 339.768 171.704 341.082 171.704H385.345C386.659 171.704 387.724 170.643 387.724 169.335V168.802C387.724 167.494 386.659 166.434 385.345 166.434Z" fill="#353533"/>
<path opacity="0.2" d="M385.345 166.434H341.082C339.768 166.434 338.703 167.494 338.703 168.802V169.335C338.703 170.643 339.768 171.704 341.082 171.704H385.345C386.659 171.704 387.724 170.643 387.724 169.335V168.802C387.724 167.494 386.659 166.434 385.345 166.434Z" fill="white"/>
<path d="M374.832 231.532H338.216C337.758 231.512 337.316 231.361 336.943 231.097C336.569 230.833 336.281 230.467 336.111 230.044L333.782 225.084H379.266L376.949 230.044C376.777 230.468 376.486 230.834 376.111 231.098C375.735 231.362 375.291 231.513 374.832 231.532Z" fill="#353533"/>
<path opacity="0.5" d="M374.832 231.532H338.216C337.758 231.512 337.316 231.361 336.943 231.097C336.569 230.833 336.281 230.467 336.111 230.044L333.782 225.084H379.266L376.949 230.044C376.777 230.468 376.486 230.834 376.111 231.098C375.735 231.362 375.291 231.513 374.832 231.532Z" fill="white"/>
<path d="M378.656 222.207H334.392C333.078 222.207 332.013 223.267 332.013 224.575V225.109C332.013 226.417 333.078 227.477 334.392 227.477H378.656C379.969 227.477 381.034 226.417 381.034 225.109V224.575C381.034 223.267 379.969 222.207 378.656 222.207Z" fill="#353533"/>
<path opacity="0.2" d="M378.656 222.207H334.392C333.078 222.207 332.013 223.267 332.013 224.575V225.109C332.013 226.417 333.078 227.477 334.392 227.477H378.656C379.969 227.477 381.034 226.417 381.034 225.109V224.575C381.034 223.267 379.969 222.207 378.656 222.207Z" fill="white"/>
<path d="M368.157 287.307H331.541C331.082 287.287 330.639 287.136 330.263 286.872C329.888 286.608 329.597 286.243 329.423 285.819L327.107 280.859H372.591L370.262 285.819C370.092 286.243 369.803 286.608 369.43 286.872C369.057 287.136 368.615 287.287 368.157 287.307Z" fill="#353533"/>
<path opacity="0.5" d="M368.157 287.307H331.541C331.082 287.287 330.639 287.136 330.263 286.872C329.888 286.608 329.597 286.243 329.423 285.819L327.107 280.859H372.591L370.262 285.819C370.092 286.243 369.803 286.608 369.43 286.872C369.057 287.136 368.615 287.287 368.157 287.307Z" fill="white"/>
<path d="M371.981 277.982H327.717C326.404 277.982 325.339 279.043 325.339 280.351V280.884C325.339 282.192 326.404 283.252 327.717 283.252H371.981C373.295 283.252 374.36 282.192 374.36 280.884V280.351C374.36 279.043 373.295 277.982 371.981 277.982Z" fill="#353533"/>
<path opacity="0.2" d="M371.981 277.982H327.717C326.404 277.982 325.339 279.043 325.339 280.351V280.884C325.339 282.192 326.404 283.252 327.717 283.252H371.981C373.295 283.252 374.36 282.192 374.36 280.884V280.351C374.36 279.043 373.295 277.982 371.981 277.982Z" fill="white"/>
<path d="M361.48 343.083H324.851C324.394 343.061 323.953 342.91 323.58 342.646C323.207 342.382 322.918 342.017 322.746 341.595L320.417 336.635H365.914L363.585 341.595C363.415 342.018 363.126 342.384 362.753 342.648C362.38 342.912 361.938 343.063 361.48 343.083Z" fill="#353533"/>
<path opacity="0.5" d="M361.48 343.083H324.851C324.394 343.061 323.953 342.91 323.58 342.646C323.207 342.382 322.918 342.017 322.746 341.595L320.417 336.635H365.914L363.585 341.595C363.415 342.018 363.126 342.384 362.753 342.648C362.38 342.912 361.938 343.063 361.48 343.083Z" fill="white"/>
<path d="M365.306 333.758H321.042C319.729 333.758 318.664 334.818 318.664 336.126V336.659C318.664 337.967 319.729 339.028 321.042 339.028H365.306C366.62 339.028 367.685 337.967 367.685 336.659V336.126C367.685 334.818 366.62 333.758 365.306 333.758Z" fill="#353533"/>
<path opacity="0.2" d="M365.306 333.758H321.042C319.729 333.758 318.664 334.818 318.664 336.126V336.659C318.664 337.967 319.729 339.028 321.042 339.028H365.306C366.62 339.028 367.685 337.967 367.685 336.659V336.126C367.685 334.818 366.62 333.758 365.306 333.758Z" fill="white"/>
<path d="M364.108 384.697H352.588L390.051 89.9492H401.571L364.108 384.697Z" fill="#353533"/>
<path opacity="0.7" d="M364.108 384.697H352.588L390.051 89.9492H401.571L364.108 384.697Z" fill="white"/>
<path d="M416.493 91.4499H343.485C343.028 91.4254 342.588 91.2726 342.216 91.0093C341.843 90.7459 341.553 90.3827 341.38 89.9619L339.051 85.002H420.927L418.61 89.9619C418.429 90.3795 418.135 90.7392 417.761 91.0017C417.388 91.2641 416.949 91.4192 416.493 91.4499Z" fill="#353533"/>
<path opacity="0.5" d="M416.493 91.4499H343.485C343.028 91.4254 342.588 91.2726 342.216 91.0093C341.843 90.7459 341.553 90.3827 341.38 89.9619L339.051 85.002H420.927L418.61 89.9619C418.429 90.3795 418.135 90.7392 417.761 91.0017C417.388 91.2641 416.949 91.4192 416.493 91.4499Z" fill="white"/>
<path d="M420.316 82.125H339.673C338.359 82.125 337.294 83.1854 337.294 84.4934V85.0266C337.294 86.3346 338.359 87.395 339.673 87.395H420.316C421.63 87.395 422.695 86.3346 422.695 85.0266V84.4934C422.695 83.1854 421.63 82.125 420.316 82.125Z" fill="#353533"/>
<path opacity="0.2" d="M420.316 82.125H339.673C338.359 82.125 337.294 83.1854 337.294 84.4934V85.0266C337.294 86.3346 338.359 87.395 339.673 87.395H420.316C421.63 87.395 422.695 86.3346 422.695 85.0266V84.4934C422.695 83.1854 421.63 82.125 420.316 82.125Z" fill="white"/>
<path opacity="0.2" d="M392.02 124.311H347.756C346.443 124.311 345.378 125.371 345.378 126.679V127.212C345.378 128.52 346.443 129.581 347.756 129.581H392.02C393.334 129.581 394.399 128.52 394.399 127.212V126.679C394.399 125.371 393.334 124.311 392.02 124.311Z" fill="white"/>
<path d="M278.023 384.487C278.029 384.557 278.029 384.628 278.023 384.698C278.029 384.731 278.029 384.764 278.023 384.797C278.008 384.861 277.987 384.923 277.961 384.983C277.925 385.067 277.879 385.146 277.824 385.219C277.77 385.307 277.707 385.39 277.637 385.467C277.049 386.036 276.355 386.487 275.594 386.793L274.984 387.054C274.386 387.302 273.739 387.537 272.954 387.773C272.481 387.922 271.983 388.058 271.447 388.207C262.729 390.551 245.978 392.435 224.917 393.477L222.426 393.601L218.341 393.775L214.144 393.923L211.242 394.023C208.938 394.085 206.609 394.147 204.242 394.184H203.383H201.776H200.22C198.04 394.184 195.836 394.184 193.619 394.258H187.603C180.33 394.258 173.243 394.171 166.43 393.985L163.416 393.886C162.545 393.886 161.673 393.886 160.813 393.812L156.803 393.675L151.585 393.452L150.227 393.378L146.752 393.204C141.036 392.882 135.668 392.51 130.736 392.063C118.929 391.022 109.563 389.67 103.772 388.108L103.273 387.971L102.725 387.81C101.791 387.537 100.982 387.252 100.234 386.979C99.9729 386.868 99.7238 386.769 99.4997 386.657C99.1275 386.484 98.7657 386.289 98.4161 386.074C98.2972 386.006 98.1846 385.927 98.0798 385.839L97.8058 385.628L97.5443 385.367C97.4745 385.295 97.4119 385.216 97.3575 385.132C97.2657 385 97.1982 384.853 97.1582 384.698V384.561C97.152 384.504 97.152 384.446 97.1582 384.388C97.1582 380.345 119.365 376.873 151.174 375.348L153.727 375.224L157.164 375.088L162.445 374.902L165.297 374.815L171.998 374.654H172.359H174.289H175.597C177.565 374.654 179.545 374.654 181.55 374.592H182.148C183.954 374.592 185.772 374.592 187.603 374.592C194.976 374.592 202.138 374.691 209 374.865L213.982 375.026L216.099 375.1H216.311L218.627 375.187L220.147 375.249L224.082 375.423L227.819 375.609C234.943 375.993 241.519 376.477 247.447 377.047C266.179 378.895 278.023 381.536 278.023 384.487Z" fill="#1E1E1C"/>
<path opacity="0.4" d="M97.1333 384.487C97.1333 380.444 119.34 376.972 151.149 375.447L153.702 375.323L157.139 375.187C161.909 375.001 166.866 374.864 171.973 374.753H174.264H175.572C179.495 374.691 183.506 374.666 187.578 374.666C194.951 374.666 202.113 374.765 208.975 374.939L213.957 375.1C226.474 375.509 237.832 376.216 247.397 377.134C266.166 378.944 278.011 381.585 278.011 384.574C278.011 385.888 275.657 387.153 271.385 388.294C263.495 386.453 255.476 385.21 247.397 384.574C237.832 383.656 226.474 382.949 213.957 382.54L208.975 382.379C202.113 382.205 194.951 382.106 187.578 382.106C183.506 382.106 179.495 382.106 175.572 382.193H174.227H171.935C166.829 382.304 161.872 382.441 157.102 382.627L153.664 382.763L151.111 382.887C129.652 383.916 112.577 385.826 103.784 388.207C99.4997 387.054 97.1333 385.814 97.1333 384.487Z" fill="white"/>
<path opacity="0.1" d="M220.022 387.227C219.424 389.335 218.864 391.48 218.341 393.637C218.335 393.683 218.335 393.728 218.341 393.774L214.144 393.923L211.242 394.022C208.938 394.084 206.609 394.146 204.242 394.183H203.383H201.776H200.219C201.73 391.356 203.858 388.903 206.447 387.003C206.907 386.655 207.39 386.336 207.891 386.049C208.928 385.482 210.052 385.092 211.217 384.895C214.345 384.498 217.505 385.335 220.022 387.227Z" fill="#1E1E1C"/>
<path d="M417.613 70.082L417.93 133.319" stroke="#1E1E1C" stroke-width="5" stroke-linecap="round"/>
<path d="M417.931 136.025L426.464 214.6" stroke="#1E1E1C" stroke-width="5" stroke-linecap="round"/>
<path fill-rule="evenodd" clip-rule="evenodd" d="M420.518 67.8803C420.518 70.3423 418.504 72.3564 416.042 72.3564H395.875C393.413 72.3564 391.399 70.3423 391.399 67.8803C391.399 65.4187 393.413 63.4043 395.875 63.4043H416.042C418.504 63.4043 420.518 65.4187 420.518 67.8803ZM416.342 126.768L416.385 126.768H419.491L419.534 126.768L419.577 126.768H419.701V126.771C422.997 126.884 425.642 130.335 425.642 134.577C425.642 138.818 422.997 142.27 419.701 142.382V142.386L416.341 142.385C412.968 142.385 410.233 138.889 410.233 134.577C410.233 130.264 412.968 126.768 416.342 126.768ZM407.642 220.301H432.971L428.969 210.052L407.642 220.301ZM373.636 220.301H359.799L374.259 213.28L373.636 220.301Z" fill="#BCBCBB"/>
<path opacity="0.403041" fill-rule="evenodd" clip-rule="evenodd" d="M419.734 142.368C423.03 142.256 425.676 138.804 425.676 134.563C425.676 130.321 423.03 126.87 419.734 126.757V126.754H419.61C419.596 126.754 419.582 126.754 419.567 126.754C419.553 126.754 419.538 126.754 419.524 126.754H416.418C416.404 126.754 416.389 126.754 416.375 126.754C413.001 126.754 410.266 130.25 410.266 134.563C410.266 138.875 413.001 142.371 416.374 142.371L419.734 142.371V142.368Z" fill="#1E1E1C"/>
<path opacity="0.403041" fill-rule="evenodd" clip-rule="evenodd" d="M423.571 134.564C423.571 137.088 422.204 139.135 420.517 139.135C418.83 139.135 417.463 137.088 417.463 134.564C417.463 132.039 418.83 129.992 420.517 129.992C422.204 129.992 423.571 132.039 423.571 134.564Z" fill="#1E1E1C"/>
<path opacity="0.602888" fill-rule="evenodd" clip-rule="evenodd" d="M423.564 134.593C423.564 137.118 422.196 139.164 420.51 139.164C418.823 139.164 417.456 137.118 417.456 134.593C417.456 132.068 418.823 130.021 420.51 130.021C422.196 130.021 423.564 132.068 423.564 134.593Z" fill="#1E1E1C"/>
<path opacity="0.39588" fill-rule="evenodd" clip-rule="evenodd" d="M407.642 220.37H432.971L428.969 210.121L407.642 220.37Z" fill="#1E1E1C"/>
<path opacity="0.39588" fill-rule="evenodd" clip-rule="evenodd" d="M359.799 220.369H373.636L374.259 213.279L359.799 220.369Z" fill="#1E1E1C"/>
<path d="M415.846 64.7644V58.5645H393.428V64.7644H415.846Z" fill="#BCBCBB"/>
<path opacity="0.394764" fill-rule="evenodd" clip-rule="evenodd" d="M416.035 64.7644V58.5645H393.617V64.7644H416.035Z" fill="#1E1E1C"/>
<path fill-rule="evenodd" clip-rule="evenodd" d="M87.4773 267.686C87.4773 267.686 65.6037 315.8 62.9919 368.114C62.9919 368.114 75.2345 315.101 87.4773 267.686Z" fill="#626261"/>
<path fill-rule="evenodd" clip-rule="evenodd" d="M48.3398 304.662C48.3398 304.662 64.0836 305.07 66.4806 357.384C66.4806 357.384 59.7619 317.901 48.3398 304.662Z" fill="#626261"/>
<path fill-rule="evenodd" clip-rule="evenodd" d="M64.4175 252.006C64.4175 252.006 73.6081 307.354 64.5618 363.675C64.5618 363.675 65.0993 304.852 64.4175 252.006Z" fill="#626261"/>
<path fill-rule="evenodd" clip-rule="evenodd" d="M76.8143 378.486H54.084C53.9134 378.486 53.7434 378.483 53.5739 378.477C43.2094 378.091 37.443 365.026 43.3129 355.599L48.5202 347.238H82.3782L87.5851 355.599C93.4553 365.026 87.689 378.091 77.3244 378.477C77.155 378.483 76.9852 378.486 76.8143 378.486Z" fill="#BCBCBB"/>
<path d="M40.9639 366.468H89.9343" stroke="#353533" stroke-width="2"/>
<path d="M42.1021 358.386H88.9568" stroke="#353533" stroke-width="2"/>
<path d="M210.429 389.945L203 335.621" stroke="#1E1E1C" stroke-width="5" stroke-linecap="round"/>
<path fill-rule="evenodd" clip-rule="evenodd" d="M141.246 383.241H187.578L194.643 375.656H134.181L141.246 383.241Z" fill="#1E1E1C"/>
<path d="M113.691 388.139L121.524 333.871" stroke="#1E1E1C" stroke-width="5" stroke-linecap="round"/>
<path fill-rule="evenodd" clip-rule="evenodd" d="M206.861 364.789V349.472C207.227 349.402 207.593 349.315 207.958 349.211C214.713 347.285 218.622 340.263 216.691 333.526C214.76 326.79 207.718 322.891 200.964 324.817C200.684 324.897 200.409 324.986 200.139 325.083C198.362 324.133 196.335 323.593 194.188 323.593H134.636C132.703 323.593 130.866 324.031 129.222 324.812C127.281 323.616 124.994 322.926 122.545 322.926C115.519 322.926 109.824 328.605 109.824 335.611C109.824 342.423 115.208 347.981 121.963 348.284V364.789C121.963 371.74 127.666 377.428 134.636 377.428H194.188C201.159 377.428 206.861 371.74 206.861 364.789ZM264.127 339.902C261.615 341.511 259.913 343.901 259.137 346.546C253.845 344.015 247.349 344.326 242.229 347.921L214.027 367.723C206.516 372.996 204.697 383.42 209.986 390.887C215.274 398.353 225.747 400.147 233.259 394.873L261.461 375.071C266.046 371.852 268.51 366.713 268.531 361.5C271.235 361.964 274.105 361.514 276.609 360.033C276.987 359.809 277.348 359.568 277.692 359.312C279.249 358.15 278.422 355.704 276.477 355.714C274.26 355.725 272.36 354.936 271.344 353.363C269.395 350.344 271.438 345.577 275.909 342.715C275.918 342.709 275.928 342.702 275.937 342.697C277.271 341.846 277.187 339.886 275.763 339.2C272.156 337.463 267.75 337.583 264.127 339.902ZM110.408 451.915C104.587 449.663 100.249 444.226 99.7553 437.631L97.1917 403.368C96.5088 394.242 103.438 386.219 112.588 385.538C121.739 384.857 129.785 391.766 130.468 400.892L133.031 435.155C133.46 440.885 130.889 446.18 126.65 449.496C129.582 451.572 131.549 454.935 131.684 458.729C131.699 459.166 131.691 459.599 131.66 460.025C131.521 461.958 129.008 462.588 127.964 460.954C126.774 459.091 125.08 457.927 123.201 457.927C119.597 457.927 116.675 462.216 116.675 467.508V467.542C116.679 469.119 114.978 470.108 113.627 469.286C110.209 467.206 107.927 463.45 107.927 459.162C107.927 456.432 108.852 453.918 110.408 451.915ZM153.502 383.202V390.525H175.322V383.202H153.502Z" fill="#BCBCBB"/>
<path opacity="0.394764" fill-rule="evenodd" clip-rule="evenodd" d="M131.684 458.729C131.699 459.166 131.691 459.599 131.66 460.025C131.521 461.958 129.008 462.588 127.964 460.954C126.774 459.091 125.08 457.927 123.201 457.927C119.597 457.927 116.675 462.216 116.675 467.508V467.541C116.679 469.118 114.978 470.108 113.627 469.286C110.209 467.205 107.927 463.45 107.927 459.162C107.927 452.498 113.445 447.118 120.177 447.32C126.378 447.505 131.463 452.545 131.684 458.729ZM190.004 349.583C190.004 357.703 184.078 364.441 176.304 365.733C176.191 365.714 176.083 365.695 175.971 365.673C168.36 364.253 162.6 357.588 162.6 349.583C162.6 341.578 168.36 334.914 175.971 333.494C176.083 333.472 176.191 333.453 176.304 333.433C184.078 334.726 190.004 341.464 190.004 349.583ZM164.001 349.605C164.001 354.844 168.259 359.09 173.512 359.09C178.765 359.09 183.023 354.844 183.023 349.605C183.023 344.367 178.765 340.12 173.512 340.12C168.259 340.12 164.001 344.367 164.001 349.605ZM109.757 335.611C109.757 328.605 115.452 322.926 122.478 322.926C129.503 322.926 135.198 328.605 135.198 335.611C135.198 342.617 129.503 348.297 122.478 348.297C115.452 348.297 109.757 342.617 109.757 335.611ZM112.826 333.26C112.826 336.659 115.589 339.414 118.997 339.414C122.405 339.414 125.168 336.659 125.168 333.26C125.168 329.861 122.405 327.106 118.997 327.106C115.589 327.106 112.826 329.861 112.826 333.26ZM200.116 325.116C200.386 325.019 200.661 324.931 200.941 324.851C207.696 322.924 214.737 326.824 216.668 333.56C218.6 340.296 214.69 347.318 207.935 349.244C207.57 349.348 207.204 349.435 206.839 349.506V336.265C206.839 331.455 204.108 327.25 200.116 325.116ZM153.886 362.72C153.886 360.921 155.349 359.462 157.153 359.462C158.957 359.462 160.419 360.921 160.419 362.72C160.419 364.519 158.957 365.977 157.153 365.977C155.349 365.977 153.886 364.519 153.886 362.72ZM144.444 362.72C144.444 360.921 145.907 359.462 147.711 359.462C149.515 359.462 150.978 360.921 150.978 362.72C150.978 364.519 149.515 365.977 147.711 365.977C145.907 365.977 144.444 364.519 144.444 362.72ZM101.403 405.913C101.263 404.119 102.609 402.553 104.408 402.414C106.206 402.275 107.778 403.616 107.917 405.41C108.056 407.204 106.711 408.77 104.912 408.91C103.113 409.048 101.543 407.707 101.403 405.913ZM102.101 414.9C101.962 413.106 103.307 411.539 105.106 411.4C106.905 411.261 108.476 412.603 108.615 414.396C108.754 416.19 107.409 417.757 105.61 417.896C103.812 418.035 102.241 416.693 102.101 414.9ZM102.816 424.104C102.677 422.31 104.022 420.743 105.821 420.604C107.62 420.465 109.191 421.807 109.33 423.6C109.469 425.394 108.124 426.961 106.326 427.1C104.527 427.239 102.956 425.898 102.816 424.104ZM153.34 390.429V383.106H175.371V390.429H153.34Z" fill="#1E1E1C"/>
<path fill-rule="evenodd" clip-rule="evenodd" d="M176.227 365.755C184.001 364.462 189.928 357.725 189.928 349.605C189.928 341.486 184.001 334.748 176.227 333.455C177.108 333.309 178.015 333.232 178.938 333.232C188.005 333.232 195.355 340.562 195.355 349.605C195.355 358.648 188.005 365.978 178.938 365.978C178.015 365.978 177.108 365.902 176.227 365.755Z" fill="#1E1E1C"/>
<path d="M182.928 300.714H173.201" stroke="#1E1E1C" stroke-width="5" stroke-linecap="round"/>
<path d="M153.236 287.484C151.386 287.484 149.873 288.993 149.873 290.838" stroke="white" stroke-width="5" stroke-linecap="round"/>
<path d="M138.819 300.714H150.783" stroke="#1E1E1C" stroke-width="5" stroke-linecap="round"/>
<path fill-rule="evenodd" clip-rule="evenodd" d="M182.48 318.626C184.246 318.752 185.64 320.221 185.64 322.014V323.541H140.223V322.014C140.223 320.221 141.616 318.752 143.383 318.626V318.022C143.383 315.955 144.897 314.223 146.874 313.876V288.944C146.874 286.618 148.783 284.715 151.115 284.715H174.748C177.08 284.715 178.989 286.618 178.989 288.944V313.876C180.966 314.223 182.48 315.955 182.48 318.022V318.626ZM189.69 300.714C189.69 302.983 187.845 304.823 185.569 304.823C183.294 304.823 181.449 302.983 181.449 300.714C181.449 298.445 183.294 296.605 185.569 296.605C187.845 296.605 189.69 298.445 189.69 300.714ZM138.941 296.605C136.665 296.605 134.82 298.445 134.82 300.714C134.82 302.983 136.665 304.823 138.941 304.823C141.216 304.823 143.061 302.983 143.061 300.714C143.061 298.445 141.216 296.605 138.941 296.605Z" fill="#BCBCBB"/>
<path opacity="0.395926" fill-rule="evenodd" clip-rule="evenodd" d="M143.383 318.627V317.578C143.568 315.675 145.282 313.813 147.603 313.813H178.26C180.581 313.813 182.223 315.532 182.48 317.44V318.627C184.246 318.752 185.64 320.221 185.64 322.014V323.541H140.223V322.014C140.223 320.221 141.616 318.752 143.383 318.627ZM189.69 300.714C189.69 302.984 187.845 304.823 185.569 304.823C183.294 304.823 181.449 302.984 181.449 300.714C181.449 298.445 183.294 296.605 185.569 296.605C187.845 296.605 189.69 298.445 189.69 300.714ZM134.82 300.714C134.82 298.445 136.665 296.605 138.941 296.605C141.216 296.605 143.061 298.445 143.061 300.714C143.061 302.984 141.216 304.823 138.941 304.823C136.665 304.823 134.82 302.984 134.82 300.714Z" fill="#1E1E1C"/>
<path d="M143.652 318.728H182.385" stroke="#1E1E1C" stroke-width="5"/>
<path d="M153.485 307.415H178.989" stroke="#1E1E1C" stroke-width="3"/>
<path fill-rule="evenodd" clip-rule="evenodd" d="M160.151 295.325C158.353 296.801 158.095 299.451 159.575 301.243C161.055 303.036 163.711 303.293 165.509 301.817C167.307 300.342 167.564 297.692 166.085 295.9C164.605 294.107 161.948 293.85 160.151 295.325Z" fill="white"/>
<path fill-rule="evenodd" clip-rule="evenodd" d="M162.403 297.124C161.578 297.802 161.459 299.019 162.139 299.842C162.819 300.666 164.039 300.784 164.865 300.106C165.691 299.428 165.809 298.211 165.129 297.387C164.45 296.564 163.229 296.446 162.403 297.124Z" fill="#1E1E1C"/>
<path fill-rule="evenodd" clip-rule="evenodd" d="M171.24 295.325C169.442 296.801 169.184 299.451 170.664 301.243C172.144 303.036 174.8 303.293 176.598 301.817C178.396 300.342 178.653 297.692 177.174 295.9C175.694 294.107 173.037 293.85 171.24 295.325Z" fill="white"/>
<path fill-rule="evenodd" clip-rule="evenodd" d="M173.492 297.124C172.667 297.802 172.548 299.019 173.228 299.842C173.908 300.666 175.128 300.784 175.954 300.106C176.78 299.428 176.898 298.211 176.219 297.387C175.539 296.564 174.318 296.446 173.492 297.124Z" fill="#1E1E1C"/>
<path opacity="0.394764" fill-rule="evenodd" clip-rule="evenodd" d="M259.337 347.168C260.113 344.523 261.815 342.133 264.327 340.524C267.95 338.205 272.356 338.085 275.963 339.822C277.387 340.508 277.471 342.468 276.137 343.319C276.128 343.324 276.118 343.331 276.108 343.337C271.638 346.199 269.595 350.966 271.544 353.985C272.56 355.558 274.46 356.347 276.677 356.336C278.622 356.326 279.449 358.772 277.892 359.934C277.548 360.19 277.187 360.431 276.809 360.655C274.305 362.136 271.435 362.586 268.73 362.122C268.71 367.335 266.246 372.474 261.66 375.693L233.458 395.495C225.947 400.769 215.474 398.975 210.185 391.509C204.897 384.042 206.715 373.618 214.227 368.345L242.429 348.543C247.549 344.948 254.045 344.637 259.337 347.168L259.337 347.168Z" fill="#8F8F8E"/>
</svg>
