<svg width="104" height="71" viewBox="0 0 104 71" fill="none" xmlns="http://www.w3.org/2000/svg">
<path d="M70.1079 2.97203C70.1079 2.97203 55.9324 17.3843 33.2512 8.78781C10.57 0.191268 -12.1108 23.4527 7.41987 37.6122C26.9505 51.7717 7.83832 59.5523 21.1069 68.2301C36.1874 78.0931 49.3168 58.0929 61.2874 62.6442C87.7069 72.689 107.279 68.7126 102.869 57.0816C95.1278 36.6648 85.2285 35.3366 92.7888 24.717C100.349 14.0973 83.6635 -7.98351 70.1079 2.97203Z" fill="white"/>
<path d="M55.8159 46.9797C55.8159 56.7296 63.7543 64.6323 73.5481 64.6323C75.8286 64.6361 78.0882 64.1991 80.2015 63.3455C80.245 63.3506 80.2888 63.3531 80.3326 63.3531H88.0935C88.3433 63.3533 88.5907 63.3044 88.8215 63.2093C89.0522 63.1142 89.2619 62.9748 89.4386 62.799C89.6152 62.6232 89.7553 62.4144 89.8508 62.1846C89.9463 61.9549 89.9954 61.7087 89.9953 61.46V53.5854C90.8475 51.4866 91.2839 49.2435 91.2802 46.9797C91.2802 37.2299 83.3419 29.3271 73.5481 29.3271C63.7543 29.3271 55.8159 37.2299 55.8159 46.9797Z" fill="#9E9E9E"/>
<path d="M61.5468 35.6516C61.5468 47.8832 51.5878 57.7975 39.3011 57.7975C36.44 57.8023 33.6052 57.2541 30.954 56.1831C30.8995 56.1895 30.8446 56.1928 30.7896 56.1928H21.053C20.7396 56.1929 20.4293 56.1316 20.1398 56.0123C19.8502 55.893 19.5872 55.7181 19.3656 55.4975C19.144 55.2769 18.9683 55.015 18.8485 54.7268C18.7286 54.4386 18.667 54.1296 18.6672 53.8177V43.9387C17.598 41.3057 17.0507 38.4917 17.0552 35.6517C17.0552 23.4201 27.0142 13.5059 39.301 13.5059C51.5877 13.5059 61.5468 23.42 61.5468 35.6516Z" fill="#757575"/>
<g clip-path="url(#clip0_6351_162379)">
<path d="M43.1944 34.1009C44.1978 34.1009 45.0113 33.2911 45.0113 32.2922C45.0113 31.2932 44.1978 30.4834 43.1944 30.4834C42.1909 30.4834 41.3774 31.2932 41.3774 32.2922C41.3774 33.2911 42.1909 34.1009 43.1944 34.1009Z" fill="white"/>
<path d="M34.7156 34.1009C35.7191 34.1009 36.5325 33.2911 36.5325 32.2922C36.5325 31.2932 35.7191 30.4834 34.7156 30.4834C33.7121 30.4834 32.8987 31.2932 32.8987 32.2922C32.8987 33.2911 33.7121 34.1009 34.7156 34.1009Z" fill="white"/>
<path d="M38.9429 23.249C32.2567 23.249 26.8423 28.6512 26.8423 35.3074C26.8423 41.9637 32.2567 47.3659 38.9429 47.3659C45.6413 47.3659 51.0678 41.9637 51.0678 35.3074C51.0678 28.6512 45.6413 23.249 38.9429 23.249ZM38.9551 44.9542C33.6012 44.9542 29.2648 40.6373 29.2648 35.3074C29.2648 29.9776 33.6012 25.6607 38.9551 25.6607C44.3089 25.6607 48.6453 29.9776 48.6453 35.3074C48.6453 40.6373 44.3089 44.9542 38.9551 44.9542ZM38.9551 40.1308C37.1624 40.1308 35.624 39.1541 34.7762 37.7191H32.7533C33.7223 40.1911 36.1328 41.9396 38.9551 41.9396C41.7773 41.9396 44.1878 40.1911 45.1568 37.7191H43.134C42.2861 39.1541 40.7477 40.1308 38.9551 40.1308Z" fill="white"/>
</g>
<path d="M76.6506 46.8843C77.4533 46.8843 78.1041 46.2364 78.1041 45.4372C78.1041 44.6381 77.4533 43.9902 76.6506 43.9902C75.8478 43.9902 75.197 44.6381 75.197 45.4372C75.197 46.2364 75.8478 46.8843 76.6506 46.8843Z" fill="white"/>
<path d="M69.8674 46.8843C70.6701 46.8843 71.3209 46.2364 71.3209 45.4372C71.3209 44.6381 70.6701 43.9902 69.8674 43.9902C69.0646 43.9902 68.4138 44.6381 68.4138 45.4372C68.4138 46.2364 69.0646 46.8843 69.8674 46.8843Z" fill="white"/>
<path d="M73.2588 49.7782C71.001 49.7782 69.0726 51.177 68.2974 53.1546H69.9157C70.5843 52.0066 71.8247 51.2252 73.2588 51.2252C74.693 51.2252 75.9236 52.0066 76.6019 53.1546H78.2202C77.445 51.177 75.5166 49.7782 73.2588 49.7782ZM73.2491 38.2021C67.9001 38.2021 63.5686 42.5239 63.5686 47.8489C63.5686 53.1739 67.9001 57.4956 73.2491 57.4956C78.6078 57.4956 82.949 53.1739 82.949 47.8489C82.949 42.5239 78.6078 38.2021 73.2491 38.2021ZM73.2588 55.5663C68.9757 55.5663 65.5066 52.1127 65.5066 47.8489C65.5066 43.585 68.9757 40.1315 73.2588 40.1315C77.5419 40.1315 81.011 43.585 81.011 47.8489C81.011 52.1127 77.5419 55.5663 73.2588 55.5663Z" fill="white"/>
<defs>
<clipPath id="clip0_6351_162379">
<rect width="29.0707" height="28.9402" fill="white" transform="translate(24.4197 20.8369)"/>
</clipPath>
</defs>
</svg>
