<svg width="195" height="194" viewBox="0 0 195 194" fill="none" xmlns="http://www.w3.org/2000/svg">
<path d="M71.0268 168.008C81.3203 174.212 88.6637 171.636 91.4751 166.661C96.9118 157.04 114.989 137.364 143.635 130.715C181.576 121.907 173.653 98.5214 150.329 86.2497C127.005 73.9781 109.566 56.9979 112.205 38.5351C114.845 20.0722 88.6923 13.7074 77.062 49.2238C69.5463 72.1758 56.0775 78.3247 47.4888 79.8028C39.394 81.1959 30.5394 82.9437 26.2214 89.9308C20.9819 98.4086 22.8102 106.984 44.7471 112.866C75.8337 121.201 47.9545 154.1 71.0268 168.008Z" fill="#EFEFEF"/>
<path d="M44.282 127.779C44.7177 127.53 49.6344 125.449 74.0943 136.852C74.023 136.949 73.9927 136.995 73.9927 136.995C73.9927 136.995 48.5643 145.558 43.5821 135.008C42.0943 131.868 42.5206 129.705 44.2395 127.804L44.282 127.779Z" fill="#0E84E5"/>
<path d="M126.494 132.094C121.18 136.562 112.846 139.804 104.805 135.492C106.075 134.68 107.388 133.844 108.726 132.979C116.802 127.79 123.915 131.262 126.494 132.094Z" fill="#0E84E5"/>
<path d="M136.013 77.1486C141.442 122.359 128.539 130.564 127.103 131.81C126.687 132.171 126.518 132.145 125.89 131.983L125.879 131.989C123.218 131.284 116.802 127.79 108.726 132.978C107.388 133.844 106.075 134.68 104.805 135.492C96.5663 140.717 89.9136 144.399 85.1208 142.262C81.0554 140.188 77.3899 138.393 74.0945 136.851C49.6346 125.448 44.7179 127.53 44.2822 127.779C44.7877 127.504 49.4246 124.934 55.6681 120.414C55.6893 120.401 55.7106 120.389 55.7151 120.373C64.0604 114.325 75.2365 104.794 83.2698 92.5336C88.7386 84.1967 94.0886 63.0616 104.411 58.9146C125.626 51.0004 135.132 67.9526 136.013 77.1486Z" fill="#699CFF"/>
<path d="M112.555 76.3553C113.213 74.6164 113.149 72.9803 112.411 72.7009C111.674 72.4215 110.542 73.6047 109.883 75.3436C109.225 77.0825 109.289 78.7187 110.027 78.998C110.764 79.2774 111.896 78.0942 112.555 76.3553Z" fill="white"/>
<path d="M126.062 78.5742C126.529 76.7743 126.288 75.1546 125.525 74.9566C124.761 74.7586 123.764 76.0573 123.297 77.8572C122.83 79.6571 123.071 81.2767 123.835 81.4747C124.598 81.6727 125.596 80.3741 126.062 78.5742Z" fill="white"/>
<path d="M117.84 85.1827C117.729 85.1826 117.622 85.1446 117.536 85.0751C117.45 85.0057 117.39 84.9088 117.367 84.8007C117.28 84.4092 116.896 83.2508 116.286 83.0787C115.676 82.9065 114.479 83.5749 113.995 83.9256C113.891 84.001 113.761 84.032 113.634 84.0117C113.507 83.9914 113.393 83.9214 113.318 83.8172C113.242 83.713 113.211 83.5831 113.232 83.4561C113.252 83.3291 113.322 83.2153 113.426 83.1399C113.617 83.0017 115.325 81.7998 116.549 82.145C117.825 82.5051 118.268 84.3816 118.314 84.5944C118.33 84.6652 118.329 84.7386 118.312 84.8092C118.296 84.8798 118.264 84.9457 118.218 85.0021C118.172 85.0586 118.115 85.1041 118.049 85.1353C117.984 85.1666 117.912 85.1828 117.84 85.1827H117.84Z" fill="white"/>
</svg>
