<svg width="33" height="21" viewBox="0 0 33 21" fill="none" xmlns="http://www.w3.org/2000/svg">
<path d="M32.5 16.628C32.4925 14.6286 30.8556 13.0069 28.8384 13.0069C27.7645 13.0069 26.7988 13.4697 26.1313 14.2028H26.109C25.2327 15.0877 24.0171 15.6394 22.6673 15.6394C21.3175 15.6394 20.102 15.0877 19.2257 14.2028H19.222C19.1772 14.1547 19.1288 14.1103 19.084 14.0658C19.0393 14.0177 18.9945 13.9696 18.9461 13.9288V13.9251C18.0549 13.055 17.4993 11.848 17.4993 10.5076C17.4993 9.16731 18.0549 7.96026 18.9461 7.09016V7.06794C19.6843 6.40148 20.1504 5.44621 20.1504 4.37987C20.1504 4.37617 20.1504 4.37617 20.1504 4.37247C20.1504 4.36876 20.1504 4.36876 20.1504 4.36506C20.1504 4.36506 20.1504 4.36506 20.1504 4.36136C20.1504 4.30212 20.143 4.24287 20.1392 4.18363C20.1355 4.12069 20.1355 4.05775 20.1281 3.9985C20.1206 3.94297 20.1131 3.89113 20.102 3.83559C20.0908 3.76894 20.0833 3.7023 20.0721 3.63935C20.0609 3.59122 20.046 3.54309 20.0348 3.49495C20.0162 3.42831 20.0013 3.35796 19.9826 3.29131C19.9677 3.24688 19.9491 3.20245 19.9342 3.15802C19.9118 3.09137 19.8894 3.02473 19.8596 2.95808C19.8409 2.91365 19.8186 2.87292 19.7962 2.83219C19.7664 2.76925 19.7365 2.7063 19.703 2.64336C19.6806 2.60263 19.6545 2.5619 19.6284 2.52118C19.5911 2.46193 19.5576 2.40269 19.5203 2.34345C19.4942 2.30272 19.4606 2.2657 19.4308 2.22497C19.3898 2.16943 19.3525 2.11759 19.3077 2.06576C19.2742 2.02503 19.2369 1.988 19.1996 1.94728C19.1586 1.90284 19.1176 1.85471 19.0728 1.81028C19.0318 1.76955 18.9871 1.73253 18.9423 1.6918C18.9013 1.65477 18.8603 1.61404 18.8155 1.57702C18.7671 1.53629 18.7149 1.49926 18.6627 1.46224C18.6217 1.42891 18.5769 1.39559 18.5359 1.36597C18.48 1.32894 18.424 1.29562 18.3681 1.2623C18.3234 1.23638 18.2823 1.20676 18.2376 1.18454C18.1779 1.15122 18.1145 1.1253 18.0549 1.09568C18.0101 1.07347 17.9654 1.05125 17.9206 1.03274C17.8573 1.00682 17.7901 0.984605 17.723 0.958687C17.6783 0.943876 17.6335 0.921661 17.5851 0.90685C17.5179 0.884635 17.4508 0.869825 17.3837 0.855014C17.3352 0.843907 17.2868 0.829096 17.2346 0.817989C17.1712 0.803178 17.1041 0.795773 17.0369 0.788368C16.981 0.780963 16.9288 0.769855 16.8691 0.76245C16.8095 0.755045 16.7461 0.755045 16.6827 0.751342C16.6231 0.74764 16.5634 0.740234 16.5037 0.740234C16.5037 0.740234 16.5037 0.740234 16.5 0.740234C16.4963 0.740234 16.4963 0.740234 16.4925 0.740234C16.4888 0.740234 16.4888 0.740234 16.4851 0.740234C15.4112 0.740234 14.4455 1.20306 13.778 1.93617H13.7557C12.8794 2.82108 11.6638 3.37277 10.314 3.37277C8.96423 3.37277 7.74866 2.82108 6.87241 1.93617H6.86868C6.19751 1.20306 5.23549 0.740234 4.16162 0.740234C2.14437 0.740234 0.507457 2.35826 0.5 4.36136V4.36506C0.507457 6.36445 2.14437 7.98618 4.16162 7.98618C5.23549 7.98618 6.20124 7.52336 6.86868 6.79025H6.87241C7.74866 5.90533 8.96423 5.35365 10.314 5.35365C11.6638 5.35365 12.8794 5.90533 13.7557 6.79025H13.778C13.8228 6.83838 13.875 6.88652 13.9234 6.93095C13.9682 6.97538 14.0129 7.02351 14.0577 7.06424V7.08646C14.9488 7.95656 15.5044 9.1636 15.5044 10.5039C15.5044 11.8443 14.9488 13.0513 14.0577 13.9214V13.9251C13.3194 14.5916 12.8533 15.5469 12.8533 16.6132C12.8533 16.6169 12.8533 16.6169 12.8533 16.6206C12.8533 16.6243 12.8533 16.6243 12.8533 16.628C12.8533 16.628 12.8533 16.628 12.8533 16.6317C12.8533 16.6909 12.8608 16.7502 12.8645 16.8094C12.8682 16.8724 12.8682 16.9353 12.8757 16.9946C12.8831 17.0501 12.8943 17.1056 12.9018 17.1612C12.913 17.2278 12.9204 17.2908 12.9316 17.3574C12.9428 17.4092 12.9577 17.4574 12.9689 17.5092C12.9838 17.5759 12.9987 17.6425 13.0211 17.7055C13.036 17.7536 13.0547 17.798 13.0733 17.8462C13.0957 17.9091 13.118 17.9757 13.1441 18.0387C13.1628 18.0831 13.1889 18.1276 13.2075 18.172C13.2374 18.2349 13.2635 18.2942 13.297 18.3534C13.3231 18.3978 13.3492 18.4386 13.3753 18.483C13.4089 18.5385 13.4424 18.5978 13.4797 18.6533C13.5096 18.6977 13.5431 18.7385 13.5767 18.7829C13.614 18.8347 13.6512 18.8829 13.6885 18.931C13.7258 18.9754 13.7668 19.0162 13.8041 19.0606C13.8451 19.105 13.8824 19.1495 13.9234 19.1902C13.9682 19.2346 14.0129 19.2716 14.0577 19.3124C14.0987 19.3494 14.1397 19.3864 14.1807 19.4235C14.2329 19.4642 14.2851 19.5012 14.3373 19.5419C14.3784 19.5716 14.4194 19.6049 14.4604 19.6345C14.5163 19.6715 14.576 19.7048 14.6356 19.7419C14.6766 19.7678 14.7177 19.7937 14.7624 19.8159C14.8221 19.8492 14.8855 19.8752 14.9488 19.9048C14.9936 19.927 15.0346 19.9492 15.0794 19.9677C15.1427 19.9936 15.2099 20.0159 15.277 20.0418C15.3217 20.0566 15.3665 20.0788 15.4149 20.0936C15.4821 20.1158 15.5492 20.1306 15.6163 20.1455C15.6648 20.1566 15.7132 20.1714 15.7654 20.1825C15.8288 20.1973 15.8959 20.2047 15.9631 20.2121C16.019 20.2195 16.0712 20.2306 16.1271 20.238C16.1905 20.2454 16.2539 20.2454 16.3136 20.2491C16.3732 20.2528 16.4329 20.2602 16.4925 20.2602C16.4925 20.2602 16.4925 20.2602 16.4963 20.2602C16.5 20.2602 16.5 20.2602 16.5037 20.2602C16.5075 20.2602 16.5075 20.2602 16.5112 20.2602C17.5851 20.2602 18.5508 19.7974 19.2182 19.0643H19.222C20.0982 18.1794 21.3138 17.6277 22.6636 17.6277C24.0134 17.6277 25.229 18.1794 26.1052 19.0643H26.1276C26.7988 19.7974 27.7608 20.2602 28.8347 20.2602C30.8556 20.2491 32.4888 18.6311 32.5 16.628Z" fill="#002FC5"/>
</svg>
